<?xml version="1.0" encoding="utf-8"?>
<!-- Generator: Adobe Illustrator 15.0.0, SVG Export Plug-In . SVG Version: 6.00 Build 0)  -->
<!DOCTYPE svg PUBLIC "-//W3C//DTD SVG 1.1//EN" "http://www.w3.org/Graphics/SVG/1.1/DTD/svg11.dtd">
<svg version="1.1" id="Layer_1" xmlns="http://www.w3.org/2000/svg" xmlns:xlink="http://www.w3.org/1999/xlink" x="0px" y="0px"
	 width="192.492px" height="360.606px" viewBox="0 0 192.492 360.606" enable-background="new 0 0 192.492 360.606"
	 xml:space="preserve">
<path fill="#FF9900" d="M13.169,11.663l2.804-2.422c0.396-0.345,0.191-1.018-0.328-1.047l-3.611-0.229
	c-0.219-0.015-0.41-0.158-0.492-0.373l-1.327-3.555c-0.191-0.502-0.862-0.502-1.053,0l-1.328,3.54
	C7.752,7.792,7.56,7.936,7.341,7.95L3.717,8.18c-0.52,0.029-0.725,0.702-0.329,1.046l2.804,2.409
	c0.164,0.144,0.246,0.387,0.191,0.603l-0.917,3.684c-0.123,0.517,0.411,0.932,0.848,0.646l3.05-2.05
	c0.192-0.129,0.424-0.129,0.602,0l3.064,2.05c0.438,0.286,0.971-0.129,0.848-0.646l-0.916-3.67
	C12.922,12.036,12.991,11.807,13.169,11.663z"/>
<path fill="#CCCCCC" d="M15.404,26.307c-1.297-1.703-3.281-2.669-5.416-2.669c-2.136,0-4.119,0.966-5.416,2.669
	c-1.855,2.441-1.855,5.823,0,8.263l5.416,7.068l5.416-7.068C17.258,32.129,17.258,28.748,15.404,26.307z M9.988,27.256
	c1.66,0,3.017,1.358,3.017,3.018c0,1.659-1.356,3.017-3.017,3.017c-1.661,0-3.018-1.358-3.018-3.018
	C6.97,28.614,8.328,27.256,9.988,27.256z"/>
<path fill="#027ABF" d="M11.029,51.476c-0.2-0.179-0.525-0.177-0.726,0L7.185,54.24l-3.119-2.764
	c-0.007-0.006-0.013-0.011-0.02-0.016c-0.204-0.173-0.529-0.166-0.724,0.016c-0.195,0.182-0.187,0.468,0.018,0.641l3.481,3.086
	c0.001,0,0.001,0,0.001,0c0.2,0.177,0.525,0.177,0.724,0l3.483-3.086l0,0C11.23,51.941,11.23,51.652,11.029,51.476L11.029,51.476z"
	/>
<g transform="translate(0,-952.36216)">
	<path fill="#66CCFF" d="M11.181,1015.819c-4.418,0-8,3.582-8,8l0,0c0,4.418,3.582,8,8,8l0,0c4.418,0,8-3.582,8-8l0,0
		C19.181,1019.401,15.6,1015.819,11.181,1015.819L11.181,1015.819z M11.181,1018.63c0.577,0,1.045,0.468,1.045,1.045l0,0
		c0,0.577-0.468,1.044-1.044,1.044l0,0c-0.577,0-1.044-0.467-1.044-1.044l0,0C10.136,1019.098,10.604,1018.63,11.181,1018.63
		L11.181,1018.63z M11.181,1022.026c0.55,0,0.992,0.442,0.992,0.992v4.998c0,0.55-0.442,0.992-0.992,0.992
		c-0.549,0-0.992-0.442-0.992-0.992v-4.998C10.189,1022.469,10.631,1022.026,11.181,1022.026z"/>
</g>
<g transform="translate(0,-952.36216)">
	<path fill="#027ABF" d="M29.371,1015.819c-4.418,0-8,3.582-8,8l0,0c0,4.418,3.582,8,8,8l0,0c4.418,0,8-3.582,8-8l0,0
		C37.371,1019.401,33.79,1015.819,29.371,1015.819L29.371,1015.819z M29.371,1018.63c0.577,0,1.045,0.468,1.045,1.045l0,0
		c0,0.577-0.468,1.044-1.044,1.044l0,0c-0.577,0-1.044-0.467-1.044-1.044l0,0C28.326,1019.098,28.794,1018.63,29.371,1018.63
		L29.371,1018.63z M29.371,1022.026c0.55,0,0.992,0.442,0.992,0.992v4.998c0,0.55-0.442,0.992-0.992,0.992
		c-0.549,0-0.992-0.442-0.992-0.992v-4.998C28.379,1022.469,28.821,1022.026,29.371,1022.026z"/>
</g>
<g>
	<g>
		<path fill="#515976" d="M37.138,346.719c0.627,0.578,0.941,1.441,0.941,2.59v5.146h-1.465v-1.127
			c-0.257,0.396-0.625,0.699-1.101,0.91c-0.479,0.209-1.044,0.313-1.696,0.313c-0.955,0-1.721-0.229-2.294-0.691
			c-0.573-0.461-0.859-1.064-0.859-1.816c0-0.75,0.271-1.354,0.82-1.811c0.546-0.455,1.415-0.684,2.605-0.684h2.443v-0.307
			c0-0.666-0.192-1.176-0.577-1.527c-0.387-0.354-0.955-0.529-1.706-0.529c-0.503,0-0.996,0.082-1.479,0.248
			c-0.482,0.168-0.891,0.389-1.224,0.668l-0.644-1.156c0.438-0.354,0.964-0.625,1.575-0.813c0.613-0.189,1.261-0.281,1.946-0.281
			C35.607,345.85,36.511,346.141,37.138,346.719z M35.601,352.969c0.431-0.266,0.74-0.639,0.934-1.119v-1.189h-2.382
			c-1.308,0-1.961,0.439-1.961,1.32c0,0.428,0.165,0.766,0.497,1.012c0.333,0.246,0.794,0.369,1.385,0.369
			C34.662,353.362,35.172,353.231,35.601,352.969z"/>
		<path fill="#515976" d="M45.384,353.958c-0.228,0.193-0.505,0.34-0.836,0.441c-0.333,0.102-0.676,0.148-1.031,0.148
			c-0.857,0-1.521-0.229-1.994-0.688c-0.472-0.461-0.708-1.121-0.708-1.98v-4.68h-1.448v-1.271h1.448v-1.861h1.546v1.863h2.444
			v1.271h-2.444v4.617c0,0.461,0.114,0.813,0.345,1.061c0.229,0.248,0.563,0.369,0.989,0.369c0.472,0,0.873-0.133,1.207-0.398
			L45.384,353.958z"/>
		<path fill="#515976" d="M51.834,353.958c-0.227,0.193-0.504,0.34-0.836,0.441c-0.332,0.1-0.678,0.148-1.029,0.148
			c-0.857,0-1.521-0.229-1.995-0.688c-0.472-0.461-0.708-1.121-0.708-1.98v-4.68h-1.447v-1.271h1.447v-1.861h1.547v1.863h2.443
			v1.271h-2.443v4.617c0,0.461,0.115,0.813,0.344,1.061c0.23,0.248,0.563,0.369,0.99,0.369c0.471,0,0.873-0.133,1.207-0.398
			L51.834,353.958z"/>
		<path fill="#515976" d="M56.019,346.235c0.522-0.258,1.161-0.387,1.911-0.387v1.496c-0.084-0.012-0.202-0.018-0.354-0.018
			c-0.836,0-1.49,0.25-1.971,0.748c-0.477,0.498-0.717,1.209-0.717,2.133v4.246h-1.543v-8.525h1.479v1.434
			C55.094,346.868,55.494,346.495,56.019,346.235z"/>
		<path fill="#515976" d="M65.279,346.719c0.627,0.578,0.938,1.441,0.938,2.59v5.146h-1.463v-1.127
			c-0.258,0.396-0.625,0.699-1.103,0.91c-0.479,0.209-1.043,0.313-1.696,0.313c-0.953,0-1.72-0.229-2.293-0.691
			c-0.572-0.461-0.859-1.064-0.859-1.816c0-0.75,0.272-1.354,0.82-1.811c0.545-0.455,1.414-0.684,2.604-0.684h2.444v-0.307
			c0-0.666-0.192-1.176-0.578-1.527c-0.389-0.354-0.957-0.529-1.707-0.529c-0.504,0-0.995,0.082-1.479,0.248
			c-0.482,0.168-0.891,0.389-1.223,0.668l-0.645-1.156c0.438-0.354,0.967-0.625,1.572-0.813c0.613-0.189,1.266-0.281,1.947-0.281
			C63.747,345.85,64.652,346.141,65.279,346.719z M63.742,352.969c0.429-0.266,0.74-0.639,0.935-1.119v-1.189h-2.381
			c-1.31,0-1.963,0.439-1.963,1.32c0,0.428,0.166,0.766,0.498,1.012s0.793,0.369,1.385,0.369
			C62.803,353.362,63.314,353.231,63.742,352.969z"/>
		<path fill="#515976" d="M81.59,346.784c0.629,0.621,0.94,1.543,0.94,2.768v4.904h-1.543v-4.73c0-0.824-0.192-1.445-0.571-1.865
			c-0.382-0.418-0.925-0.627-1.634-0.627c-0.782,0-1.403,0.242-1.864,0.729c-0.463,0.488-0.69,1.189-0.69,2.1v4.396h-1.545v-4.73
			c0-0.824-0.191-1.445-0.572-1.865c-0.381-0.416-0.924-0.627-1.631-0.627c-0.783,0-1.404,0.244-1.867,0.73
			c-0.461,0.488-0.688,1.189-0.688,2.102v4.393h-1.547v-8.523h1.479v1.27c0.312-0.438,0.719-0.775,1.224-1.006
			c0.504-0.23,1.077-0.346,1.721-0.346c0.666,0,1.257,0.135,1.771,0.4c0.516,0.27,0.91,0.66,1.189,1.174
			c0.32-0.492,0.77-0.879,1.344-1.154c0.572-0.279,1.219-0.418,1.938-0.418C80.115,345.85,80.963,346.161,81.59,346.784z"/>
		<path fill="#515976" d="M86.443,353.989c-0.674-0.375-1.203-0.896-1.584-1.555c-0.379-0.656-0.569-1.404-0.569-2.24
			c0-0.838,0.19-1.584,0.569-2.244c0.381-0.66,0.91-1.174,1.584-1.545c0.679-0.369,1.438-0.557,2.285-0.557
			c0.848,0,1.604,0.188,2.276,0.557c0.668,0.371,1.192,0.885,1.574,1.545c0.381,0.66,0.569,1.406,0.569,2.244
			c0,0.836-0.188,1.584-0.569,2.24c-0.382,0.658-0.906,1.18-1.574,1.555c-0.674,0.375-1.431,0.563-2.276,0.563
			C87.881,354.553,87.119,354.366,86.443,353.989z M90.201,352.823c0.435-0.252,0.773-0.605,1.021-1.064
			c0.246-0.455,0.371-0.979,0.371-1.564c0-0.592-0.125-1.113-0.371-1.57c-0.245-0.453-0.588-0.805-1.021-1.051
			c-0.437-0.248-0.926-0.371-1.473-0.371c-0.548,0-1.039,0.123-1.472,0.371c-0.437,0.246-0.778,0.598-1.028,1.051
			c-0.254,0.457-0.379,0.979-0.379,1.57c0,0.59,0.127,1.109,0.379,1.564c0.25,0.457,0.594,0.813,1.028,1.064
			c0.433,0.254,0.924,0.379,1.472,0.379C89.275,353.202,89.764,353.077,90.201,352.823z"/>
	</g>
	<g>
		<path fill="#0098CC" d="M22.766,336.686H6.432l-3.251,5.646v1.961c0,0.975,0.556,1.818,1.368,2.236h0.014v10.078
			c0,0.76,0.616,1.375,1.376,1.375h12.864l-0.86-2.783c-0.032-0.1-0.161-0.168-0.261-0.135l-2.333,0.721
			c-0.149,0.045-0.295-0.072-0.258-0.221l1.219-7.666c0.056-0.35,0.453-0.473,0.662-0.232l5.336,5.641
			c0.113,0.102,0.061,0.281-0.089,0.326l-2.366,0.707c-0.1,0.029-0.167,0.158-0.137,0.26l1.047,3.383h2.505
			c0.76,0,1.375-0.615,1.375-1.375v-10.076h0.006c0.813-0.42,1.366-1.266,1.366-2.236v-1.961L22.766,336.686z M12.42,338.946
			l-0.397,3.629v1.398c0,1.002-0.813,1.814-1.815,1.814c-1.001,0-1.816-0.813-1.816-1.814v-1.371H8.389l1.201-3.656l0.408-1.24
			h2.558L12.42,338.946z M20.811,343.977L20.811,343.977c-0.001,1-0.815,1.814-1.818,1.814s-1.815-0.814-1.815-1.814v-1.4
			l-0.397-3.631l-0.135-1.24h2.56l0.405,1.24l1.202,3.658L20.811,343.977L20.811,343.977z"/>
	</g>
</g>
<g>
	<g>
		<path fill="#515976" d="M133.535,346.719c0.627,0.578,0.94,1.441,0.94,2.59v5.146h-1.466v-1.127
			c-0.256,0.396-0.625,0.699-1.1,0.91c-0.479,0.209-1.045,0.313-1.697,0.313c-0.955,0-1.721-0.229-2.293-0.691
			c-0.573-0.461-0.859-1.064-0.859-1.816c0-0.75,0.271-1.354,0.82-1.811c0.545-0.455,1.414-0.684,2.604-0.684h2.443v-0.307
			c0-0.666-0.192-1.176-0.577-1.527c-0.387-0.354-0.955-0.529-1.706-0.529c-0.503,0-0.996,0.082-1.479,0.248
			c-0.481,0.168-0.891,0.389-1.224,0.668l-0.644-1.156c0.438-0.354,0.964-0.625,1.574-0.813c0.613-0.189,1.262-0.281,1.946-0.281
			C132.003,345.85,132.908,346.141,133.535,346.719z M131.998,352.969c0.432-0.266,0.74-0.639,0.935-1.119v-1.189h-2.382
			c-1.309,0-1.961,0.439-1.961,1.32c0,0.428,0.164,0.766,0.496,1.012c0.334,0.246,0.795,0.369,1.386,0.369
			C131.059,353.362,131.568,353.231,131.998,352.969z"/>
		<path fill="#515976" d="M141.78,353.958c-0.228,0.193-0.505,0.34-0.836,0.441c-0.333,0.102-0.676,0.148-1.03,0.148
			c-0.857,0-1.521-0.229-1.994-0.688c-0.473-0.461-0.709-1.121-0.709-1.98v-4.68h-1.447v-1.271h1.447v-1.861h1.547v1.863h2.443
			v1.271h-2.443v4.617c0,0.461,0.113,0.813,0.345,1.061c0.229,0.248,0.563,0.369,0.989,0.369c0.472,0,0.873-0.133,1.207-0.398
			L141.78,353.958z"/>
		<path fill="#515976" d="M148.231,353.958c-0.228,0.193-0.504,0.34-0.836,0.441c-0.332,0.1-0.679,0.148-1.028,0.148
			c-0.857,0-1.521-0.229-1.996-0.688c-0.472-0.461-0.707-1.121-0.707-1.98v-4.68h-1.447v-1.271h1.447v-1.861h1.547v1.863h2.442
			v1.271h-2.442v4.617c0,0.461,0.115,0.813,0.344,1.061c0.23,0.248,0.563,0.369,0.99,0.369c0.471,0,0.873-0.133,1.207-0.398
			L148.231,353.958z"/>
		<path fill="#515976" d="M152.416,346.235c0.522-0.258,1.162-0.387,1.912-0.387v1.496c-0.084-0.012-0.203-0.018-0.354-0.018
			c-0.836,0-1.49,0.25-1.972,0.748c-0.477,0.498-0.717,1.209-0.717,2.133v4.246h-1.543v-8.525h1.479v1.434
			C151.492,346.868,151.89,346.495,152.416,346.235z"/>
		<path fill="#515976" d="M161.675,346.719c0.627,0.578,0.938,1.441,0.938,2.59v5.146h-1.463v-1.127
			c-0.258,0.396-0.625,0.699-1.104,0.91c-0.479,0.209-1.043,0.313-1.695,0.313c-0.953,0-1.721-0.229-2.293-0.691
			c-0.572-0.461-0.859-1.064-0.859-1.816c0-0.75,0.272-1.354,0.82-1.811c0.545-0.455,1.414-0.684,2.604-0.684h2.444v-0.307
			c0-0.666-0.192-1.176-0.577-1.527c-0.39-0.354-0.957-0.529-1.707-0.529c-0.505,0-0.996,0.082-1.479,0.248
			c-0.482,0.168-0.892,0.389-1.224,0.668l-0.645-1.156c0.438-0.354,0.967-0.625,1.572-0.813c0.613-0.189,1.266-0.281,1.947-0.281
			C160.143,345.85,161.048,346.141,161.675,346.719z M160.138,352.969c0.429-0.266,0.74-0.639,0.936-1.119v-1.189h-2.382
			c-1.31,0-1.963,0.439-1.963,1.32c0,0.428,0.166,0.766,0.498,1.012s0.793,0.369,1.385,0.369
			C159.201,353.362,159.71,353.231,160.138,352.969z"/>
		<path fill="#515976" d="M177.987,346.784c0.63,0.621,0.94,1.543,0.94,2.768v4.904h-1.543v-4.73c0-0.824-0.192-1.445-0.571-1.865
			c-0.382-0.418-0.925-0.627-1.634-0.627c-0.782,0-1.403,0.242-1.864,0.729c-0.463,0.488-0.69,1.189-0.69,2.1v4.396h-1.545v-4.73
			c0-0.824-0.19-1.445-0.572-1.865c-0.381-0.416-0.924-0.627-1.631-0.627c-0.783,0-1.403,0.244-1.867,0.73
			c-0.461,0.488-0.688,1.189-0.688,2.102v4.393h-1.547v-8.523h1.479v1.27c0.313-0.438,0.72-0.775,1.225-1.006
			c0.504-0.23,1.077-0.346,1.721-0.346c0.666,0,1.258,0.135,1.771,0.4c0.516,0.27,0.91,0.66,1.189,1.174
			c0.319-0.492,0.77-0.879,1.344-1.154c0.572-0.279,1.219-0.418,1.938-0.418C176.511,345.85,177.36,346.161,177.987,346.784z"/>
		<path fill="#515976" d="M182.839,353.989c-0.674-0.375-1.203-0.896-1.584-1.555c-0.379-0.656-0.569-1.404-0.569-2.24
			c0-0.838,0.19-1.584,0.569-2.244c0.381-0.66,0.91-1.174,1.584-1.545c0.679-0.369,1.438-0.557,2.285-0.557s1.604,0.188,2.275,0.557
			c0.668,0.371,1.191,0.885,1.574,1.545c0.381,0.66,0.568,1.406,0.568,2.244c0,0.836-0.188,1.584-0.568,2.24
			c-0.383,0.658-0.906,1.18-1.574,1.555c-0.674,0.375-1.431,0.563-2.275,0.563C184.278,354.553,183.515,354.366,182.839,353.989z
			 M186.597,352.823c0.436-0.252,0.773-0.605,1.021-1.064c0.245-0.455,0.37-0.979,0.37-1.564c0-0.592-0.125-1.113-0.37-1.57
			c-0.246-0.453-0.589-0.805-1.021-1.051c-0.438-0.248-0.926-0.371-1.473-0.371c-0.549,0-1.039,0.123-1.473,0.371
			c-0.438,0.246-0.777,0.598-1.027,1.051c-0.254,0.457-0.379,0.979-0.379,1.57c0,0.59,0.127,1.109,0.379,1.564
			c0.25,0.457,0.594,0.813,1.027,1.064c0.434,0.254,0.924,0.379,1.473,0.379C185.671,353.202,186.162,353.077,186.597,352.823z"/>
	</g>
	<g>
		<path fill="#027ABF" d="M119.164,336.686H102.83l-3.252,5.646v1.961c0,0.975,0.557,1.818,1.368,2.236h0.015v10.078
			c0,0.76,0.615,1.375,1.375,1.375h12.865l-0.861-2.783c-0.031-0.1-0.16-0.168-0.26-0.135l-2.334,0.721
			c-0.148,0.045-0.295-0.072-0.258-0.221l1.219-7.666c0.057-0.35,0.453-0.473,0.662-0.232l5.336,5.641
			c0.113,0.102,0.062,0.281-0.088,0.326l-2.367,0.707c-0.1,0.029-0.166,0.158-0.137,0.26l1.047,3.383h2.506
			c0.76,0,1.375-0.615,1.375-1.375v-10.076h0.006c0.813-0.42,1.365-1.266,1.365-2.236v-1.961L119.164,336.686z M108.816,338.946
			l-0.396,3.629v1.398c0,1.002-0.813,1.814-1.815,1.814c-1.001,0-1.815-0.813-1.815-1.814v-1.371h-0.004l1.201-3.656l0.408-1.24
			h2.559L108.816,338.946z M117.208,343.977L117.208,343.977c-0.002,1-0.815,1.814-1.818,1.814s-1.814-0.814-1.814-1.814v-1.4
			l-0.397-3.631l-0.136-1.24h2.561l0.404,1.24l1.203,3.658L117.208,343.977L117.208,343.977z"/>
	</g>
</g>
<g>
	<path fill="#DB472E" d="M20.181,91.269c-9.39,0-17,7.611-17,17c0,9.388,7.612,17,17,17c9.387,0,17-7.611,17-17
		C37.182,98.879,29.569,91.269,20.181,91.269L20.181,91.269z"/>
	<g>
		<path fill="#FFFFFF" d="M21.895,100.177h1.047v4.27c0,0.246,0,0.375,0.014,0.409c0.02,0.164,0.104,0.246,0.244,0.246
			c0.21,0,0.432-0.163,0.665-0.493v-4.432h1.052v5.8h-1.052v-0.634c-0.418,0.48-0.818,0.714-1.199,0.714
			c-0.339,0-0.571-0.137-0.678-0.431c-0.057-0.176-0.092-0.454-0.092-0.863L21.895,100.177L21.895,100.177z"/>
		<path fill="#FFFFFF" d="M15.117,98.195l0.827,3.057l0.793-3.057h1.179l-1.402,4.631v3.151H15.35v-3.151
			c-0.105-0.559-0.34-1.378-0.714-2.462c-0.245-0.723-0.5-1.448-0.747-2.168H15.117z"/>
		<g>
			<path fill="#FFFFFF" d="M20.705,100.704c-0.291-0.396-0.7-0.594-1.228-0.594c-0.522,0-0.933,0.198-1.224,0.594
				c-0.224,0.293-0.327,0.747-0.327,1.367v2.031c0,0.616,0.104,1.073,0.327,1.363c0.291,0.396,0.701,0.595,1.224,0.595
				c0.527,0,0.937-0.199,1.228-0.595c0.22-0.29,0.324-0.748,0.324-1.363v-2.031C21.03,101.449,20.925,100.997,20.705,100.704z
				 M19.98,104.297c0,0.536-0.163,0.805-0.501,0.805s-0.5-0.269-0.5-0.805v-2.439c0-0.536,0.164-0.805,0.5-0.805
				c0.341,0,0.501,0.268,0.501,0.805V104.297z"/>
		</g>
		<g>
			<path fill="#FFFFFF" d="M22.083,111.27c-0.17,0-0.346,0.082-0.518,0.252v3.499c0.172,0.174,0.348,0.254,0.518,0.254
				c0.301,0,0.455-0.254,0.455-0.774v-2.446C22.539,111.535,22.385,111.27,22.083,111.27z"/>
			<path fill="#FFFFFF" d="M25.945,111.27c-0.349,0-0.524,0.266-0.524,0.795v0.532h1.041v-0.532
				C26.461,111.535,26.287,111.27,25.945,111.27z"/>
			<path fill="#FFFFFF" d="M26.622,118.34c0.9-0.1,1.65-0.776,1.86-1.69l0.003-8.134c-0.209-0.916-0.959-1.591-1.86-1.69H13.74
				c-0.9,0.099-1.648,0.774-1.859,1.69l-0.003,8.134c0.211,0.915,0.959,1.591,1.858,1.69H26.622z M16.484,109.525h-1.246v6.617
				h-1.156v-6.617H12.86v-1.084h3.623L16.484,109.525L16.484,109.525z M19.626,116.143h-1.041v-0.625
				c-0.415,0.474-0.807,0.705-1.189,0.705c-0.334,0-0.566-0.137-0.67-0.426c-0.056-0.176-0.091-0.449-0.091-0.855v-4.537h1.042
				v4.227c0,0.243,0,0.37,0.008,0.404c0.026,0.162,0.105,0.241,0.244,0.241c0.208,0,0.426-0.16,0.657-0.486v-4.386h1.041
				L19.626,116.143L19.626,116.143z M23.577,114.421c0,0.532-0.034,0.912-0.104,1.157c-0.138,0.426-0.418,0.644-0.831,0.644
				c-0.37,0-0.726-0.205-1.075-0.635v0.556h-1.04v-7.702h1.04v2.516c0.336-0.413,0.692-0.623,1.075-0.623
				c0.414,0,0.692,0.219,0.831,0.649c0.07,0.231,0.104,0.608,0.104,1.154V114.421z M27.501,113.463h-2.079v1.017
				c0,0.531,0.173,0.794,0.533,0.794c0.255,0,0.406-0.138,0.464-0.417c0.009-0.055,0.021-0.287,0.021-0.705h1.061v0.152
				c0,0.337-0.013,0.567-0.021,0.671c-0.035,0.231-0.117,0.439-0.242,0.622c-0.287,0.418-0.714,0.624-1.257,0.624
				c-0.544,0-0.958-0.198-1.26-0.588c-0.221-0.287-0.335-0.74-0.335-1.35v-2.009c0-0.611,0.101-1.062,0.321-1.351
				c0.3-0.392,0.715-0.589,1.246-0.589c0.522,0,0.937,0.197,1.228,0.587c0.217,0.291,0.32,0.74,0.32,1.353V113.463z"/>
		</g>
	</g>
</g>
<g>
	<path fill="#3C5A98" d="M20.181,130.15c-9.388,0-17,7.612-17,17c0,9.387,7.612,17,17,17c9.386,0,17-7.613,17-17
		C37.181,137.763,29.566,130.15,20.181,130.15L20.181,130.15z"/>
	<path fill="#FFFFFF" d="M23.988,147.134h-2.456v9.002h-3.725v-9.002h-1.771v-3.165h1.771v-2.046c0-1.464,0.695-3.757,3.757-3.757
		l2.758,0.012v3.071H22.32c-0.329,0-0.79,0.164-0.79,0.863v1.861h2.779L23.988,147.134z"/>
</g>
<g>
	<path fill="#6A453C" d="M20.182,169.623c-9.389,0-17.001,7.612-17.001,17.001c0,9.387,7.612,16.999,17.001,16.999
		c9.387,0,16.999-7.612,16.999-16.999C37.182,177.234,29.571,169.623,20.182,169.623L20.182,169.623z"/>
	<g>
		<path fill="#FFFFFF" d="M20.18,182.474c-2.288,0-4.148,1.86-4.148,4.147c0,2.289,1.86,4.148,4.148,4.148
			c2.288,0,4.147-1.859,4.147-4.148C24.328,184.336,22.467,182.474,20.18,182.474z M20.18,189.017c-1.32,0-2.397-1.074-2.397-2.396
			c0-1.32,1.077-2.396,2.397-2.396c1.32,0,2.396,1.075,2.396,2.396C22.575,187.943,21.5,189.017,20.18,189.017z"/>
		<path fill="#FFFFFF" d="M24.17,178.569h-7.981c-2.241,0-4.063,1.823-4.063,4.062v7.98c0,2.241,1.822,4.063,4.063,4.063h7.981
			c2.242,0,4.063-1.821,4.063-4.063v-7.98C28.232,180.392,26.413,178.569,24.17,178.569z M26.48,190.613
			c0,1.272-1.037,2.312-2.311,2.312h-7.98c-1.273,0-2.31-1.038-2.31-2.312v-7.979c0-1.274,1.037-2.31,2.31-2.31h7.981
			c1.273,0,2.311,1.035,2.311,2.31L26.48,190.613L26.48,190.613z"/>
		<circle fill="#FFFFFF" cx="24.461" cy="182.35" r="0.982"/>
	</g>
</g>
<g>
	<path fill="#017AB9" d="M20.181,209.634c-9.389,0-17,7.611-17,16.999c0,9.39,7.612,17.001,17,17.001c9.387,0,17-7.611,17-17.001
		C37.181,217.246,29.568,209.634,20.181,209.634L20.181,209.634z"/>
	<g>
		<path fill="#FFFFFF" d="M28.665,227.396v5.623h-3.26v-5.246c0-1.315-0.47-2.217-1.651-2.217c-0.9,0-1.436,0.606-1.671,1.192
			c-0.087,0.209-0.108,0.5-0.108,0.793v5.478h-3.26c0,0,0.044-8.886,0-9.806h3.26v1.39c-0.006,0.011-0.017,0.022-0.021,0.03h0.021
			v-0.03c0.434-0.667,1.206-1.62,2.937-1.62C27.055,222.982,28.665,224.383,28.665,227.396L28.665,227.396z M15.301,218.488
			c-1.115,0-1.843,0.732-1.843,1.694c0,0.939,0.708,1.693,1.801,1.693h0.02c1.137,0,1.845-0.752,1.845-1.693
			C17.103,219.22,16.417,218.488,15.301,218.488L15.301,218.488z M13.652,233.017h3.257v-9.806h-3.257V233.017z"/>
	</g>
</g>
<g>
	<path fill="#CA2227" d="M20.18,249.002c-9.388,0-16.999,7.61-16.999,16.998s7.611,17.002,16.999,17.002
		c9.388,0,17.001-7.612,17.001-17.002C37.181,256.615,29.568,249.002,20.18,249.002L20.18,249.002z"/>
	<g>
		<path fill="#FFFFFF" d="M22.166,269.827c-1.034-0.08-1.467-0.594-2.279-1.084c-0.446,2.337-0.989,4.577-2.602,5.749
			c-0.498-3.533,0.731-6.188,1.301-9.003c-0.973-1.636,0.117-4.932,2.169-4.118c2.526,0.997-2.186,6.087,0.976,6.724
			c3.302,0.662,4.65-5.731,2.603-7.81c-2.958-3.002-8.613-0.068-7.917,4.229c0.168,1.05,1.255,1.369,0.434,2.82
			c-1.894-0.422-2.459-1.914-2.386-3.905c0.118-3.258,2.928-5.541,5.749-5.857c3.566-0.398,6.915,1.309,7.375,4.662
			C28.108,266.021,25.979,270.122,22.166,269.827L22.166,269.827z"/>
	</g>
</g>
<g>
	<path fill="#5EA8DD" d="M20.181,289.645c-9.389,0-17,7.611-17,17.002c0,9.387,7.611,16.998,17,16.998c9.388,0,17-7.609,17-16.998
		C37.181,297.256,29.569,289.645,20.181,289.645L20.181,289.645z"/>
	<g>
		<path fill="#FFFFFF" d="M28.413,302.42c-0.606,0.269-1.257,0.449-1.939,0.531c0.697-0.418,1.232-1.08,1.487-1.867
			c-0.652,0.386-1.377,0.668-2.146,0.818c-0.616-0.654-1.493-1.066-2.467-1.066c-1.864,0-3.378,1.514-3.378,3.377
			c0,0.266,0.03,0.523,0.089,0.771c-2.808-0.14-5.297-1.485-6.961-3.528c-0.291,0.498-0.459,1.078-0.459,1.698
			c0,1.171,0.599,2.205,1.503,2.812c-0.553-0.02-1.074-0.168-1.528-0.424c0,0.019,0,0.029,0,0.043c0,1.637,1.164,3.004,2.708,3.314
			c-0.281,0.08-0.581,0.121-0.889,0.121c-0.219,0-0.429-0.021-0.636-0.061c0.43,1.342,1.677,2.318,3.156,2.346
			c-1.157,0.906-2.613,1.447-4.196,1.447c-0.272,0-0.542-0.018-0.806-0.049c1.493,0.959,3.27,1.52,5.178,1.52
			c6.212,0,9.609-5.146,9.609-9.612c0-0.146-0.003-0.29-0.011-0.437C27.387,303.692,27.959,303.097,28.413,302.42L28.413,302.42z"/>
	</g>
</g>
<g>
	<path fill="#990000" d="M56.931,91.269c-9.39,0-17,7.611-17,17c0,9.388,7.612,17,17,17c9.387,0,17-7.611,17-17
		C73.931,98.879,66.319,91.269,56.931,91.269L56.931,91.269z"/>
	<g>
		<path fill="#FFFFFF" d="M58.645,100.177h1.047v4.27c0,0.246,0,0.375,0.014,0.409c0.02,0.164,0.104,0.246,0.244,0.246
			c0.21,0,0.432-0.163,0.665-0.493v-4.432h1.052v5.8h-1.052v-0.634c-0.418,0.48-0.818,0.714-1.199,0.714
			c-0.339,0-0.571-0.137-0.678-0.431c-0.057-0.176-0.092-0.454-0.092-0.863L58.645,100.177L58.645,100.177z"/>
		<path fill="#FFFFFF" d="M51.867,98.195l0.827,3.057l0.793-3.057h1.179l-1.402,4.631v3.151H52.1v-3.151
			c-0.105-0.559-0.34-1.378-0.714-2.462c-0.245-0.723-0.5-1.448-0.747-2.168H51.867z"/>
		<g>
			<path fill="#FFFFFF" d="M57.455,100.704c-0.291-0.396-0.7-0.594-1.228-0.594c-0.522,0-0.933,0.198-1.224,0.594
				c-0.224,0.293-0.327,0.747-0.327,1.367v2.031c0,0.616,0.104,1.073,0.327,1.363c0.291,0.396,0.701,0.595,1.224,0.595
				c0.527,0,0.937-0.199,1.228-0.595c0.22-0.29,0.324-0.748,0.324-1.363v-2.031C57.779,101.449,57.674,100.997,57.455,100.704z
				 M56.729,104.297c0,0.536-0.163,0.805-0.501,0.805s-0.5-0.269-0.5-0.805v-2.439c0-0.536,0.164-0.805,0.5-0.805
				c0.341,0,0.501,0.268,0.501,0.805V104.297z"/>
		</g>
		<g>
			<path fill="#FFFFFF" d="M58.833,111.27c-0.17,0-0.346,0.082-0.518,0.252v3.499c0.172,0.174,0.348,0.254,0.518,0.254
				c0.301,0,0.455-0.254,0.455-0.774v-2.446C59.289,111.535,59.134,111.27,58.833,111.27z"/>
			<path fill="#FFFFFF" d="M62.694,111.27c-0.349,0-0.524,0.266-0.524,0.795v0.532h1.041v-0.532
				C63.21,111.535,63.037,111.27,62.694,111.27z"/>
			<path fill="#FFFFFF" d="M63.372,118.34c0.9-0.1,1.65-0.776,1.86-1.69l0.003-8.134c-0.209-0.916-0.959-1.591-1.86-1.69H50.49
				c-0.9,0.099-1.648,0.774-1.859,1.69l-0.003,8.134c0.211,0.915,0.959,1.591,1.858,1.69H63.372z M53.233,109.525h-1.246v6.617
				h-1.156v-6.617h-1.222v-1.084h3.623L53.233,109.525L53.233,109.525z M56.375,116.143h-1.041v-0.625
				c-0.415,0.474-0.807,0.705-1.189,0.705c-0.334,0-0.566-0.137-0.67-0.426c-0.056-0.176-0.091-0.449-0.091-0.855v-4.537h1.042
				v4.227c0,0.243,0,0.37,0.008,0.404c0.026,0.162,0.105,0.241,0.244,0.241c0.208,0,0.426-0.16,0.657-0.486v-4.386h1.041
				L56.375,116.143L56.375,116.143z M60.327,114.421c0,0.532-0.034,0.912-0.104,1.157c-0.138,0.426-0.418,0.644-0.831,0.644
				c-0.37,0-0.726-0.205-1.075-0.635v0.556h-1.04v-7.702h1.04v2.516c0.336-0.413,0.692-0.623,1.075-0.623
				c0.414,0,0.692,0.219,0.831,0.649c0.07,0.231,0.104,0.608,0.104,1.154V114.421z M64.25,113.463h-2.079v1.017
				c0,0.531,0.173,0.794,0.533,0.794c0.255,0,0.406-0.138,0.464-0.417c0.009-0.055,0.021-0.287,0.021-0.705h1.061v0.152
				c0,0.337-0.013,0.567-0.021,0.671c-0.035,0.231-0.117,0.439-0.242,0.622c-0.287,0.418-0.714,0.624-1.257,0.624
				c-0.544,0-0.958-0.198-1.26-0.588c-0.221-0.287-0.335-0.74-0.335-1.35v-2.009c0-0.611,0.101-1.062,0.321-1.351
				c0.3-0.392,0.715-0.589,1.246-0.589c0.522,0,0.937,0.197,1.228,0.587c0.217,0.291,0.32,0.74,0.32,1.353V113.463z"/>
		</g>
	</g>
</g>
<g>
	<path fill="#003366" d="M56.93,130.15c-9.388,0-17,7.612-17,17c0,9.387,7.612,17,17,17c9.386,0,17-7.613,17-17
		C73.93,137.763,66.316,130.15,56.93,130.15L56.93,130.15z"/>
	<path fill="#FFFFFF" d="M60.738,147.134h-2.456v9.002h-3.725v-9.002h-1.771v-3.165h1.771v-2.046c0-1.464,0.695-3.757,3.757-3.757
		l2.758,0.012v3.071H59.07c-0.329,0-0.79,0.164-0.79,0.863v1.861h2.779L60.738,147.134z"/>
</g>
<g>
	<path fill="#330000" d="M56.931,169.623c-9.389,0-17.001,7.612-17.001,17.001c0,9.387,7.612,16.999,17.001,16.999
		c9.387,0,16.999-7.612,16.999-16.999C73.931,177.234,66.321,169.623,56.931,169.623L56.931,169.623z"/>
	<g>
		<path fill="#FFFFFF" d="M56.929,182.474c-2.288,0-4.148,1.86-4.148,4.147c0,2.289,1.86,4.148,4.148,4.148
			c2.288,0,4.147-1.859,4.147-4.148C61.077,184.336,59.217,182.474,56.929,182.474z M56.929,189.017
			c-1.32,0-2.397-1.074-2.397-2.396c0-1.32,1.077-2.396,2.397-2.396c1.32,0,2.396,1.075,2.396,2.396
			C59.324,187.943,58.249,189.017,56.929,189.017z"/>
		<path fill="#FFFFFF" d="M60.92,178.569h-7.981c-2.241,0-4.063,1.823-4.063,4.062v7.98c0,2.241,1.822,4.063,4.063,4.063h7.981
			c2.242,0,4.063-1.821,4.063-4.063v-7.98C64.982,180.392,63.162,178.569,60.92,178.569z M63.23,190.613
			c0,1.272-1.037,2.312-2.311,2.312h-7.98c-1.273,0-2.31-1.038-2.31-2.312v-7.979c0-1.274,1.037-2.31,2.31-2.31h7.981
			c1.273,0,2.311,1.035,2.311,2.31L63.23,190.613L63.23,190.613z"/>
		<circle fill="#FFFFFF" cx="61.211" cy="182.35" r="0.982"/>
	</g>
</g>
<g>
	<path fill="#003366" d="M56.93,209.634c-9.389,0-17,7.611-17,16.999c0,9.39,7.612,17.001,17,17.001c9.387,0,17-7.611,17-17.001
		C73.93,217.246,66.318,209.634,56.93,209.634L56.93,209.634z"/>
	<g>
		<path fill="#FFFFFF" d="M65.414,227.396v5.623h-3.26v-5.246c0-1.315-0.47-2.217-1.651-2.217c-0.9,0-1.436,0.606-1.671,1.192
			c-0.087,0.209-0.108,0.5-0.108,0.793v5.478h-3.26c0,0,0.044-8.886,0-9.806h3.26v1.39c-0.006,0.011-0.017,0.022-0.021,0.03h0.021
			v-0.03c0.434-0.667,1.206-1.62,2.937-1.62C63.804,222.982,65.414,224.383,65.414,227.396L65.414,227.396z M52.051,218.488
			c-1.115,0-1.843,0.732-1.843,1.694c0,0.939,0.708,1.693,1.801,1.693h0.02c1.137,0,1.845-0.752,1.845-1.693
			C53.852,219.22,53.167,218.488,52.051,218.488L52.051,218.488z M50.402,233.017h3.257v-9.806h-3.257V233.017z"/>
	</g>
</g>
<g>
	<path fill="#660000" d="M56.929,249.002c-9.388,0-16.999,7.61-16.999,16.998s7.611,17.002,16.999,17.002
		c9.388,0,17.001-7.612,17.001-17.002C73.93,256.615,66.318,249.002,56.929,249.002L56.929,249.002z"/>
	<g>
		<path fill="#FFFFFF" d="M58.915,269.827c-1.034-0.08-1.467-0.594-2.279-1.084c-0.446,2.337-0.989,4.577-2.602,5.749
			c-0.498-3.533,0.731-6.188,1.301-9.003c-0.973-1.636,0.117-4.932,2.169-4.118c2.526,0.997-2.186,6.087,0.976,6.724
			c3.302,0.662,4.65-5.731,2.603-7.81c-2.958-3.002-8.613-0.068-7.917,4.229c0.168,1.05,1.255,1.369,0.434,2.82
			c-1.894-0.422-2.459-1.914-2.386-3.905c0.118-3.258,2.928-5.541,5.749-5.857c3.566-0.398,6.915,1.309,7.375,4.662
			C64.858,266.021,62.728,270.122,58.915,269.827L58.915,269.827z"/>
	</g>
</g>
<g>
	<path fill="#003366" d="M56.93,289.645c-9.389,0-17,7.611-17,17.002c0,9.387,7.611,16.998,17,16.998c9.388,0,17-7.609,17-16.998
		C73.93,297.256,66.319,289.645,56.93,289.645L56.93,289.645z"/>
	<g>
		<path fill="#FFFFFF" d="M65.162,302.42c-0.606,0.269-1.257,0.449-1.939,0.531c0.697-0.418,1.232-1.08,1.487-1.867
			c-0.652,0.386-1.377,0.668-2.146,0.818c-0.616-0.654-1.493-1.066-2.467-1.066c-1.864,0-3.378,1.514-3.378,3.377
			c0,0.266,0.03,0.523,0.089,0.771c-2.808-0.14-5.297-1.485-6.961-3.528c-0.291,0.498-0.459,1.078-0.459,1.698
			c0,1.171,0.599,2.205,1.503,2.812c-0.553-0.02-1.074-0.168-1.528-0.424c0,0.019,0,0.029,0,0.043c0,1.637,1.164,3.004,2.708,3.314
			c-0.281,0.08-0.581,0.121-0.889,0.121c-0.219,0-0.429-0.021-0.636-0.061c0.43,1.342,1.677,2.318,3.156,2.346
			c-1.157,0.906-2.613,1.447-4.196,1.447c-0.272,0-0.542-0.018-0.806-0.049c1.493,0.959,3.27,1.52,5.178,1.52
			c6.212,0,9.609-5.146,9.609-9.612c0-0.146-0.003-0.29-0.011-0.437C64.136,303.692,64.709,303.097,65.162,302.42L65.162,302.42z"/>
	</g>
</g>
</svg>
