<?xml version="1.0" encoding="utf-8"?>
<!-- Generator: Adobe Illustrator 15.0.0, SVG Export Plug-In . SVG Version: 6.00 Build 0)  -->
<!DOCTYPE svg PUBLIC "-//W3C//DTD SVG 1.1//EN" "http://www.w3.org/Graphics/SVG/1.1/DTD/svg11.dtd">
<svg version="1.1" id="Layer_1" xmlns="http://www.w3.org/2000/svg" xmlns:xlink="http://www.w3.org/1999/xlink" x="0px" y="0px"
	 width="106.664px" height="422.917px" viewBox="0 0 106.664 422.917" enable-background="new 0 0 106.664 422.917"
	 xml:space="preserve">
<path fill="#28B5DE" d="M7.582,336.587c-0.392,0.395-0.39,1.031,0.003,1.422l6.119,6.115l-6.119,6.113
	c-0.013,0.012-0.023,0.021-0.037,0.037c-0.382,0.4-0.365,1.037,0.035,1.42c0.402,0.383,1.038,0.367,1.421-0.035l6.831-6.824
	c0-0.002,0-0.002,0-0.002c0.395-0.393,0.395-1.027,0-1.42l-6.831-6.826c0,0,0,0-0.001,0C8.611,336.195,7.975,336.195,7.582,336.587
	L7.582,336.587z"/>
<path fill="#538BC8" d="M26.459,336.587c-0.392,0.395-0.39,1.031,0.003,1.422l6.119,6.115l-6.119,6.113
	c-0.013,0.012-0.023,0.021-0.037,0.037c-0.382,0.4-0.365,1.037,0.035,1.42c0.402,0.383,1.038,0.367,1.421-0.035l6.831-6.824
	c0-0.002,0-0.002,0-0.002c0.395-0.393,0.395-1.027,0-1.42l-6.831-6.826c0,0,0,0-0.001,0
	C27.489,336.195,26.853,336.195,26.459,336.587L26.459,336.587z"/>
<path fill="#538BC8" d="M20.381,312.801c-0.224-0.222-0.585-0.22-0.807,0.003l-3.467,3.47l-3.466-3.47
	c-0.006-0.008-0.012-0.015-0.021-0.022c-0.227-0.217-0.588-0.207-0.805,0.021c-0.217,0.229-0.208,0.589,0.02,0.806l3.87,3.873
	c0.001,0,0.001,0,0.001,0c0.223,0.225,0.583,0.225,0.805,0l3.871-3.873l0,0C20.603,313.386,20.603,313.026,20.381,312.801
	L20.381,312.801z"/>
<g>
	<path fill="#515976" d="M43.237,401.101c0.627,0.578,0.941,1.441,0.941,2.59v5.146h-1.465v-1.127
		c-0.257,0.398-0.625,0.699-1.101,0.91c-0.479,0.209-1.044,0.313-1.696,0.313c-0.955,0-1.721-0.229-2.294-0.691
		c-0.573-0.461-0.859-1.064-0.859-1.816c0-0.75,0.271-1.354,0.82-1.811c0.546-0.455,1.415-0.684,2.605-0.684h2.443v-0.307
		c0-0.666-0.192-1.176-0.577-1.527c-0.387-0.354-0.955-0.529-1.706-0.529c-0.503,0-0.996,0.082-1.479,0.248
		c-0.482,0.168-0.891,0.389-1.224,0.668l-0.644-1.156c0.438-0.354,0.964-0.625,1.575-0.813c0.613-0.189,1.261-0.281,1.946-0.281
		C41.706,400.232,42.61,400.523,43.237,401.101z M41.7,407.351c0.431-0.266,0.74-0.639,0.934-1.119v-1.189h-2.382
		c-1.308,0-1.961,0.439-1.961,1.32c0,0.428,0.165,0.766,0.497,1.012c0.333,0.246,0.794,0.369,1.385,0.369
		C40.761,407.744,41.271,407.613,41.7,407.351z"/>
	<path fill="#515976" d="M51.483,408.339c-0.228,0.193-0.505,0.34-0.836,0.441c-0.333,0.102-0.676,0.152-1.031,0.152
		c-0.857,0-1.521-0.229-1.994-0.691c-0.472-0.461-0.708-1.121-0.708-1.979v-4.68h-1.448v-1.271h1.448v-1.863h1.546v1.865h2.444v1.27
		H48.46v4.617c0,0.461,0.114,0.814,0.345,1.061c0.229,0.248,0.563,0.369,0.989,0.369c0.472,0,0.873-0.133,1.207-0.398
		L51.483,408.339z"/>
	<path fill="#515976" d="M57.933,408.339c-0.226,0.193-0.504,0.34-0.836,0.441s-0.677,0.152-1.029,0.152
		c-0.857,0-1.521-0.229-1.995-0.691c-0.472-0.461-0.708-1.121-0.708-1.979v-4.68h-1.447v-1.271h1.447v-1.863h1.547v1.865h2.443v1.27
		h-2.443v4.617c0,0.461,0.115,0.814,0.344,1.061c0.23,0.248,0.562,0.369,0.99,0.369c0.471,0,0.873-0.133,1.207-0.398L57.933,408.339
		z"/>
	<path fill="#515976" d="M62.118,400.617c0.523-0.256,1.162-0.385,1.912-0.385v1.496c-0.084-0.012-0.203-0.018-0.354-0.018
		c-0.836,0-1.491,0.25-1.971,0.748c-0.477,0.498-0.717,1.209-0.717,2.133v4.246h-1.543v-8.525h1.479v1.432
		C61.194,401.25,61.593,400.876,62.118,400.617z"/>
	<path fill="#515976" d="M71.378,401.101c0.627,0.578,0.939,1.441,0.939,2.59v5.146h-1.463v-1.127
		c-0.258,0.398-0.625,0.699-1.103,0.91c-0.479,0.209-1.043,0.313-1.696,0.313c-0.953,0-1.72-0.229-2.293-0.691
		c-0.572-0.461-0.859-1.064-0.859-1.816c0-0.75,0.272-1.354,0.82-1.811c0.545-0.455,1.414-0.684,2.604-0.684h2.445v-0.307
		c0-0.666-0.193-1.176-0.578-1.527c-0.389-0.354-0.957-0.529-1.707-0.529c-0.504,0-0.996,0.082-1.479,0.248
		c-0.482,0.168-0.891,0.389-1.223,0.668l-0.645-1.156c0.438-0.354,0.967-0.625,1.573-0.813c0.613-0.189,1.265-0.281,1.947-0.281
		C69.845,400.232,70.751,400.523,71.378,401.101z M69.841,407.351c0.429-0.266,0.74-0.639,0.935-1.119v-1.189h-2.381
		c-1.31,0-1.963,0.439-1.963,1.32c0,0.428,0.166,0.766,0.498,1.012s0.793,0.369,1.385,0.369
		C68.903,407.744,69.413,407.613,69.841,407.351z"/>
	<path fill="#515976" d="M87.69,401.166c0.629,0.621,0.94,1.543,0.94,2.768v4.904h-1.543v-4.729c0-0.826-0.192-1.447-0.571-1.867
		c-0.382-0.418-0.925-0.627-1.634-0.627c-0.782,0-1.403,0.244-1.864,0.73c-0.463,0.488-0.691,1.188-0.691,2.1v4.395h-1.545v-4.729
		c0-0.826-0.191-1.447-0.572-1.867c-0.381-0.416-0.924-0.627-1.631-0.627c-0.783,0-1.404,0.246-1.867,0.732
		c-0.461,0.488-0.688,1.188-0.688,2.1v4.393h-1.547v-8.525h1.479v1.271c0.312-0.438,0.719-0.775,1.224-1.006
		c0.504-0.23,1.077-0.346,1.721-0.346c0.666,0,1.256,0.135,1.771,0.4c0.515,0.27,0.91,0.66,1.189,1.174
		c0.32-0.492,0.77-0.879,1.344-1.154c0.572-0.279,1.219-0.418,1.937-0.418C86.214,400.232,87.063,400.542,87.69,401.166z"/>
	<path fill="#515976" d="M92.542,408.371c-0.674-0.375-1.203-0.895-1.584-1.553c-0.379-0.658-0.569-1.406-0.569-2.242
		c0-0.838,0.19-1.584,0.569-2.244c0.381-0.66,0.91-1.174,1.584-1.545c0.679-0.369,1.439-0.555,2.285-0.555
		c0.848,0,1.604,0.186,2.277,0.555c0.668,0.371,1.192,0.885,1.574,1.545c0.381,0.66,0.569,1.406,0.569,2.244
		c0,0.836-0.188,1.584-0.569,2.242c-0.382,0.658-0.906,1.178-1.574,1.553c-0.674,0.375-1.431,0.564-2.277,0.564
		S93.218,408.748,92.542,408.371z M96.3,407.205c0.435-0.252,0.773-0.605,1.021-1.063c0.246-0.455,0.371-0.979,0.371-1.566
		c0-0.59-0.125-1.113-0.371-1.57c-0.246-0.453-0.588-0.805-1.021-1.051c-0.436-0.248-0.926-0.371-1.473-0.371
		s-1.039,0.123-1.471,0.371c-0.437,0.246-0.779,0.598-1.029,1.051c-0.254,0.457-0.379,0.98-0.379,1.57s0.127,1.111,0.379,1.566
		c0.25,0.457,0.594,0.811,1.029,1.063c0.432,0.254,0.924,0.379,1.471,0.379S95.864,407.458,96.3,407.205z"/>
</g>
<g>
	<path fill="#0098CC" d="M28.865,391.068H12.531l-3.251,5.646v1.961c0,0.975,0.556,1.818,1.368,2.236h0.014v10.078
		c0,0.76,0.616,1.375,1.376,1.375h12.864l-0.86-2.783c-0.032-0.098-0.161-0.168-0.261-0.135l-2.333,0.721
		c-0.149,0.045-0.295-0.072-0.258-0.221l1.219-7.666c0.056-0.346,0.453-0.469,0.662-0.232l5.336,5.641
		c0.113,0.102,0.061,0.281-0.089,0.326l-2.366,0.707c-0.1,0.029-0.167,0.158-0.137,0.26l1.047,3.383h2.505
		c0.76,0,1.375-0.615,1.375-1.375v-10.076h0.006c0.813-0.42,1.366-1.266,1.366-2.236v-1.961L28.865,391.068z M18.519,393.328
		l-0.397,3.629v1.4c0,1.002-0.813,1.814-1.815,1.814c-1.001,0-1.816-0.813-1.816-1.814v-1.371h-0.003l1.201-3.658l0.408-1.24h2.558
		L18.519,393.328z M26.91,398.359L26.91,398.359c-0.001,1-0.815,1.814-1.818,1.814s-1.815-0.814-1.815-1.814v-1.4l-0.397-3.631
		l-0.135-1.24h2.56l0.405,1.24l1.202,3.658L26.91,398.359L26.91,398.359z"/>
</g>
<g>
	<g>
		<path fill="#CCCBCB" d="M20.689,369.015c0-3.461-2.807-6.266-6.267-6.266c-3.461,0-6.265,2.805-6.265,6.266
			c0,1.264,0.374,2.439,1.019,3.426H9.166l4.696,7.506l0,0c0.104,0.207,0.314,0.348,0.562,0.348s0.458-0.141,0.562-0.348h0.002
			l4.695-7.506H19.67C20.314,371.455,20.689,370.279,20.689,369.015L20.689,369.015 M14.423,366.16c1.577,0,2.855,1.277,2.855,2.855
			c0,1.576-1.278,2.857-2.855,2.857s-2.856-1.279-2.856-2.855C11.566,367.439,12.845,366.16,14.423,366.16L14.423,366.16"/>
	</g>
</g>
<path fill="#28B5DE" d="M22.288,305.389c1.519,0,2.754,1.235,2.754,2.753v12.37c0,1.519-1.236,2.754-2.754,2.754H9.918
	c-1.519,0-2.753-1.235-2.753-2.754v-12.37c0-1.518,1.236-2.753,2.753-2.753H22.288 M22.288,304.58H9.918
	c-1.968,0-3.563,1.595-3.563,3.563v12.37c0,1.968,1.597,3.563,3.563,3.563h12.369c1.97,0,3.564-1.596,3.564-3.563v-12.37
	C25.853,306.174,24.258,304.58,22.288,304.58L22.288,304.58z"/>
<path fill="#538BC8" d="M46.932,304.58h-12.37c-1.968,0-3.563,1.595-3.563,3.563v12.37c0,1.968,1.597,3.563,3.563,3.563h12.369
	c1.97,0,3.564-1.596,3.564-3.563v-12.37C50.497,306.174,48.902,304.58,46.932,304.58L46.932,304.58z"/>
<g>
	<path fill="#DB472E" d="M25.881,10C15.23,10,6.594,18.636,6.594,29.287c0,10.65,8.636,19.286,19.287,19.286
		c10.649,0,19.285-8.636,19.285-19.286C45.167,18.636,36.531,10,25.881,10L25.881,10z"/>
	<g>
		<path fill="#FFFFFF" d="M27.825,20.108h1.188v4.844c0,0.279,0,0.425,0.016,0.464c0.023,0.186,0.118,0.279,0.277,0.279
			c0.238,0,0.49-0.185,0.754-0.559v-5.028h1.193v6.58H30.06v-0.719c-0.475,0.544-0.928,0.81-1.36,0.81
			c-0.385,0-0.648-0.156-0.769-0.489c-0.065-0.2-0.105-0.515-0.105-0.979V20.108L27.825,20.108z"/>
		<path fill="#FFFFFF" d="M20.136,17.859l0.938,3.466l0.9-3.466h1.338l-1.591,5.253v3.576h-1.321v-3.576
			c-0.119-0.634-0.386-1.563-0.81-2.793c-0.278-0.82-0.568-1.643-0.847-2.46H20.136z"/>
		<g>
			<path fill="#FFFFFF" d="M26.475,20.704c-0.33-0.449-0.794-0.674-1.392-0.674c-0.593,0-1.059,0.225-1.388,0.674
				c-0.254,0.333-0.372,0.847-0.372,1.551v2.304c0,0.699,0.118,1.218,0.372,1.547c0.329,0.449,0.795,0.675,1.388,0.675
				c0.598,0,1.062-0.226,1.392-0.675c0.25-0.329,0.368-0.848,0.368-1.547v-2.304C26.844,21.55,26.725,21.036,26.475,20.704z
				 M25.653,24.782c0,0.608-0.185,0.913-0.569,0.913c-0.384,0-0.568-0.305-0.568-0.913v-2.768c0-0.608,0.186-0.913,0.568-0.913
				c0.386,0,0.569,0.304,0.569,0.913V24.782z"/>
		</g>
		<g>
			<path fill="#FFFFFF" d="M28.039,32.692c-0.193,0-0.392,0.092-0.588,0.286v3.969c0.196,0.197,0.395,0.289,0.588,0.289
				c0.342,0,0.516-0.289,0.516-0.878v-2.777C28.555,32.993,28.381,32.692,28.039,32.692z"/>
			<path fill="#FFFFFF" d="M32.42,32.692c-0.396,0-0.595,0.301-0.595,0.902v0.603h1.181v-0.603
				C33.006,32.993,32.808,32.692,32.42,32.692z"/>
			<path fill="#FFFFFF" d="M33.188,40.713c1.021-0.114,1.872-0.881,2.11-1.918l0.004-9.229c-0.238-1.039-1.088-1.805-2.11-1.918
				H18.573c-1.021,0.113-1.87,0.879-2.109,1.918l-0.004,9.229c0.239,1.037,1.088,1.804,2.108,1.918H33.188z M21.687,30.713h-1.413
				v7.507h-1.311v-7.507h-1.388v-1.23h4.11L21.687,30.713L21.687,30.713z M25.252,38.22h-1.181v-0.709
				c-0.471,0.538-0.915,0.799-1.35,0.799c-0.379,0-0.642-0.155-0.76-0.483c-0.064-0.199-0.104-0.509-0.104-0.97V31.71h1.182v4.795
				c0,0.275,0,0.42,0.01,0.459c0.029,0.183,0.119,0.273,0.276,0.273c0.236,0,0.483-0.182,0.746-0.552v-4.976h1.181V38.22z
				 M29.733,36.268c0,0.603-0.038,1.035-0.118,1.312c-0.157,0.484-0.475,0.731-0.942,0.731c-0.42,0-0.824-0.233-1.22-0.72v0.63
				h-1.18v-8.737h1.18v2.854c0.382-0.469,0.786-0.707,1.22-0.707c0.469,0,0.785,0.248,0.942,0.736
				c0.08,0.262,0.118,0.69,0.118,1.309V36.268z M34.185,35.181h-2.358v1.154c0,0.602,0.196,0.901,0.604,0.901
				c0.289,0,0.461-0.157,0.527-0.474c0.01-0.063,0.024-0.326,0.024-0.799h1.203v0.173c0,0.382-0.014,0.643-0.024,0.761
				c-0.039,0.262-0.132,0.498-0.275,0.706c-0.325,0.474-0.81,0.707-1.426,0.707c-0.617,0-1.086-0.224-1.429-0.667
				c-0.251-0.325-0.38-0.839-0.38-1.531v-2.279c0-0.694,0.114-1.205,0.364-1.533c0.341-0.445,0.812-0.668,1.414-0.668
				c0.593,0,1.063,0.223,1.393,0.666c0.246,0.33,0.363,0.839,0.363,1.535V35.181z"/>
		</g>
	</g>
</g>
<g>
	<path fill="#3C5A98" d="M25.837,58.882c-10.651,0-19.287,8.636-19.287,19.287c0,10.65,8.636,19.287,19.287,19.287
		c10.649,0,19.286-8.637,19.286-19.287C45.123,67.519,36.486,58.882,25.837,58.882L25.837,58.882z"/>
	<path fill="#FFFFFF" d="M30.157,78.15h-2.786v10.213h-4.226V78.15h-2.009v-3.59h2.009v-2.322c0-1.661,0.789-4.262,4.262-4.262
		l3.129,0.013v3.484h-2.271c-0.373,0-0.896,0.186-0.896,0.979v2.111h3.153L30.157,78.15z"/>
</g>
<g>
	<path fill="#6A453C" d="M26.08,107.354c-10.652,0-19.287,8.635-19.287,19.287c0,10.65,8.635,19.287,19.287,19.287
		c10.649,0,19.285-8.637,19.285-19.287C45.366,115.99,36.733,107.354,26.08,107.354L26.08,107.354z"/>
	<g>
		<path fill="#FFFFFF" d="M26.078,121.935c-2.596,0-4.706,2.111-4.706,4.705c0,2.597,2.11,4.707,4.706,4.707s4.705-2.11,4.705-4.707
			C30.784,124.047,28.674,121.935,26.078,121.935z M26.078,129.358c-1.498,0-2.719-1.219-2.719-2.718
			c0-1.497,1.221-2.717,2.719-2.717c1.497,0,2.718,1.22,2.718,2.717C28.796,128.139,27.576,129.358,26.078,129.358z"/>
		<path fill="#FFFFFF" d="M30.606,117.505h-9.054c-2.542,0-4.609,2.068-4.609,4.609v9.054c0,2.542,2.067,4.608,4.609,4.608h9.054
			c2.543,0,4.609-2.066,4.609-4.608v-9.054C35.215,119.572,33.149,117.505,30.606,117.505z M33.227,131.168
			c0,1.444-1.176,2.621-2.621,2.621h-9.054c-1.445,0-2.621-1.177-2.621-2.621v-9.054c0-1.445,1.176-2.62,2.621-2.62h9.054
			c1.445,0,2.621,1.175,2.621,2.62V131.168z"/>
		<circle fill="#FFFFFF" cx="30.936" cy="121.794" r="1.114"/>
	</g>
</g>
<path fill="#017AB9" d="M26.462,156.366c-10.651,0-19.286,8.635-19.286,19.287s8.635,19.287,19.286,19.287
	c10.649,0,19.285-8.635,19.285-19.287S37.112,156.366,26.462,156.366L26.462,156.366z"/>
<g>
	<path fill="#FFFFFF" d="M36.086,176.516v6.379h-3.699v-5.951c0-1.493-0.533-2.515-1.873-2.515c-1.021,0-1.629,0.688-1.896,1.353
		c-0.099,0.236-0.122,0.566-0.122,0.9v6.213h-3.698c0,0,0.05-10.081,0-11.124h3.698v1.576c-0.007,0.013-0.019,0.025-0.024,0.036
		h0.024v-0.036c0.492-0.756,1.368-1.837,3.332-1.837C34.26,171.51,36.086,173.1,36.086,176.516L36.086,176.516z M20.927,166.411
		c-1.265,0-2.091,0.831-2.091,1.922c0,1.066,0.803,1.921,2.043,1.921h0.023c1.289,0,2.093-0.854,2.093-1.921
		C22.97,167.242,22.193,166.411,20.927,166.411L20.927,166.411z M19.056,182.894h3.695V171.77h-3.695V182.894z"/>
</g>
<path fill="#CA2227" d="M26.077,204.734c-10.65,0-19.284,8.635-19.284,19.285c0,10.651,8.634,19.288,19.284,19.288
	s19.286-8.636,19.286-19.288C45.363,213.37,36.728,204.734,26.077,204.734L26.077,204.734z"/>
<g>
	<path fill="#FFFFFF" d="M28.33,228.36c-1.173-0.091-1.664-0.673-2.585-1.229c-0.506,2.651-1.122,5.192-2.951,6.521
		c-0.565-4.009,0.829-7.019,1.476-10.213c-1.104-1.856,0.133-5.596,2.461-4.675c2.866,1.133-2.479,6.908,1.107,7.629
		c3.746,0.753,5.275-6.501,2.952-8.859c-3.356-3.406-9.771-0.078-8.981,4.799c0.191,1.191,1.424,1.554,0.492,3.199
		c-2.148-0.477-2.79-2.17-2.707-4.43c0.134-3.697,3.322-6.286,6.521-6.646c4.046-0.452,7.844,1.486,8.366,5.292
		C35.072,224.042,32.656,228.694,28.33,228.36L28.33,228.36z"/>
</g>
<path fill="#5EA8DD" d="M26.376,253.378c-10.652,0-19.287,8.635-19.287,19.287c0,10.65,8.635,19.286,19.287,19.286
	c10.651,0,19.286-8.633,19.286-19.286S37.028,253.378,26.376,253.378L26.376,253.378z"/>
<g>
	<path fill="#FFFFFF" d="M35.715,267.87c-0.688,0.305-1.427,0.51-2.201,0.604c0.791-0.475,1.398-1.227,1.687-2.119
		c-0.74,0.438-1.562,0.758-2.435,0.93c-0.699-0.744-1.694-1.211-2.799-1.211c-2.115,0-3.832,1.717-3.832,3.832
		c0,0.301,0.034,0.594,0.101,0.873c-3.186-0.158-6.01-1.686-7.898-4.004c-0.33,0.564-0.521,1.225-0.521,1.928
		c0,1.328,0.679,2.502,1.705,3.189c-0.628-0.021-1.219-0.191-1.734-0.48c0,0.018,0,0.033,0,0.049c0,1.855,1.32,3.406,3.072,3.758
		c-0.319,0.09-0.659,0.137-1.009,0.137c-0.248,0-0.487-0.023-0.722-0.068c0.488,1.521,1.903,2.631,3.581,2.662
		c-1.313,1.027-2.965,1.641-4.761,1.641c-0.309,0-0.614-0.02-0.914-0.055c1.694,1.088,3.71,1.723,5.875,1.723
		c7.048,0,10.901-5.84,10.901-10.904c0-0.166-0.004-0.33-0.012-0.494C34.551,269.313,35.201,268.638,35.715,267.87L35.715,267.87z"
		/>
</g>
<path fill="#990000" d="M70.208,10c-10.651,0-19.287,8.636-19.287,19.287c0,10.65,8.636,19.286,19.287,19.286
	c10.649,0,19.285-8.636,19.285-19.286C89.494,18.636,80.858,10,70.208,10L70.208,10z"/>
<g>
	<path fill="#FFFFFF" d="M72.152,20.108h1.188v4.844c0,0.279,0,0.425,0.016,0.464c0.023,0.186,0.118,0.279,0.277,0.279
		c0.238,0,0.49-0.185,0.754-0.559v-5.028h1.193v6.58h-1.193v-0.719c-0.475,0.544-0.928,0.81-1.36,0.81
		c-0.385,0-0.648-0.156-0.769-0.489c-0.065-0.2-0.105-0.515-0.105-0.979V20.108L72.152,20.108z"/>
	<path fill="#FFFFFF" d="M64.463,17.859l0.938,3.466l0.9-3.466h1.338l-1.591,5.253v3.576h-1.321v-3.576
		c-0.119-0.634-0.386-1.563-0.81-2.793c-0.278-0.82-0.568-1.643-0.847-2.46H64.463z"/>
	<g>
		<path fill="#FFFFFF" d="M70.802,20.704c-0.33-0.449-0.794-0.674-1.392-0.674c-0.593,0-1.059,0.225-1.388,0.674
			c-0.254,0.333-0.372,0.847-0.372,1.551v2.304c0,0.699,0.118,1.218,0.372,1.547c0.329,0.449,0.795,0.675,1.388,0.675
			c0.598,0,1.062-0.226,1.392-0.675c0.25-0.329,0.368-0.848,0.368-1.547v-2.304C71.171,21.55,71.052,21.036,70.802,20.704z
			 M69.979,24.782c0,0.608-0.185,0.913-0.569,0.913c-0.384,0-0.568-0.305-0.568-0.913v-2.768c0-0.608,0.186-0.913,0.568-0.913
			c0.386,0,0.569,0.304,0.569,0.913V24.782z"/>
	</g>
	<g>
		<path fill="#FFFFFF" d="M72.366,32.692c-0.193,0-0.392,0.092-0.588,0.286v3.969c0.196,0.197,0.395,0.289,0.588,0.289
			c0.342,0,0.516-0.289,0.516-0.878v-2.777C72.882,32.993,72.708,32.692,72.366,32.692z"/>
		<path fill="#FFFFFF" d="M76.747,32.692c-0.396,0-0.595,0.301-0.595,0.902v0.603h1.181v-0.603
			C77.333,32.993,77.135,32.692,76.747,32.692z"/>
		<path fill="#FFFFFF" d="M77.514,40.713c1.021-0.114,1.872-0.881,2.11-1.918l0.004-9.229c-0.238-1.039-1.088-1.805-2.11-1.918
			H62.899c-1.021,0.113-1.87,0.879-2.109,1.918l-0.004,9.229c0.239,1.037,1.088,1.804,2.108,1.918H77.514z M66.013,30.713H64.6
			v7.507H63.29v-7.507h-1.388v-1.23h4.11L66.013,30.713L66.013,30.713z M69.579,38.22h-1.181v-0.709
			c-0.471,0.538-0.915,0.799-1.35,0.799c-0.379,0-0.642-0.155-0.76-0.483c-0.064-0.199-0.104-0.509-0.104-0.97V31.71h1.182v4.795
			c0,0.275,0,0.42,0.01,0.459c0.029,0.183,0.119,0.273,0.276,0.273c0.236,0,0.483-0.182,0.746-0.552v-4.976h1.181V38.22z
			 M74.059,36.268c0,0.603-0.038,1.035-0.118,1.312c-0.157,0.484-0.475,0.731-0.942,0.731c-0.42,0-0.824-0.233-1.22-0.72v0.63h-1.18
			v-8.737h1.18v2.854c0.382-0.469,0.786-0.707,1.22-0.707c0.469,0,0.785,0.248,0.942,0.736c0.08,0.262,0.118,0.69,0.118,1.309
			V36.268z M78.511,35.181h-2.358v1.154c0,0.602,0.196,0.901,0.604,0.901c0.289,0,0.461-0.157,0.527-0.474
			c0.01-0.063,0.024-0.326,0.024-0.799h1.203v0.173c0,0.382-0.014,0.643-0.024,0.761c-0.039,0.262-0.132,0.498-0.275,0.706
			c-0.325,0.474-0.81,0.707-1.426,0.707c-0.617,0-1.086-0.224-1.429-0.667c-0.251-0.325-0.38-0.839-0.38-1.531v-2.279
			c0-0.694,0.114-1.205,0.364-1.533c0.341-0.445,0.812-0.668,1.414-0.668c0.593,0,1.063,0.223,1.393,0.666
			c0.246,0.33,0.363,0.839,0.363,1.535V35.181z"/>
	</g>
</g>
<path fill="#003366" d="M70.163,58.882c-10.651,0-19.287,8.636-19.287,19.287c0,10.65,8.636,19.287,19.287,19.287
	c10.649,0,19.286-8.637,19.286-19.287C89.449,67.519,80.813,58.882,70.163,58.882L70.163,58.882z"/>
<path fill="#FFFFFF" d="M74.484,78.15h-2.786v10.213h-4.226V78.15h-2.009v-3.59h2.009v-2.322c0-1.661,0.789-4.262,4.262-4.262
	l3.129,0.013v3.484h-2.271c-0.373,0-0.896,0.186-0.896,0.979v2.111h3.153L74.484,78.15z"/>
<path fill="#330000" d="M70.407,107.354c-10.652,0-19.287,8.635-19.287,19.287c0,10.65,8.635,19.287,19.287,19.287
	c10.649,0,19.285-8.637,19.285-19.287C89.693,115.99,81.059,107.354,70.407,107.354L70.407,107.354z"/>
<g>
	<path fill="#FFFFFF" d="M70.405,121.935c-2.596,0-4.706,2.111-4.706,4.705c0,2.597,2.11,4.707,4.706,4.707s4.705-2.11,4.705-4.707
		C75.111,124.047,73.001,121.935,70.405,121.935z M70.405,129.358c-1.498,0-2.719-1.219-2.719-2.718
		c0-1.497,1.221-2.717,2.719-2.717c1.497,0,2.718,1.22,2.718,2.717C73.123,128.139,71.903,129.358,70.405,129.358z"/>
	<path fill="#FFFFFF" d="M74.932,117.505h-9.054c-2.542,0-4.609,2.068-4.609,4.609v9.054c0,2.542,2.067,4.608,4.609,4.608h9.054
		c2.543,0,4.609-2.066,4.609-4.608v-9.054C79.542,119.572,77.475,117.505,74.932,117.505z M77.553,131.168
		c0,1.444-1.176,2.621-2.621,2.621h-9.054c-1.445,0-2.621-1.177-2.621-2.621v-9.054c0-1.445,1.176-2.62,2.621-2.62h9.054
		c1.445,0,2.621,1.175,2.621,2.62V131.168z"/>
	<circle fill="#FFFFFF" cx="75.262" cy="121.794" r="1.114"/>
</g>
<path fill="#003366" d="M70.789,156.366c-10.651,0-19.286,8.635-19.286,19.287s8.635,19.287,19.286,19.287
	c10.649,0,19.285-8.635,19.285-19.287S81.438,156.366,70.789,156.366L70.789,156.366z"/>
<g>
	<path fill="#FFFFFF" d="M80.413,176.516v6.379h-3.699v-5.951c0-1.493-0.533-2.515-1.873-2.515c-1.021,0-1.629,0.688-1.896,1.353
		c-0.099,0.236-0.122,0.566-0.122,0.9v6.213h-3.698c0,0,0.05-10.081,0-11.124h3.698v1.576c-0.007,0.013-0.019,0.025-0.024,0.036
		h0.024v-0.036c0.492-0.756,1.368-1.837,3.332-1.837C78.587,171.51,80.413,173.1,80.413,176.516L80.413,176.516z M65.254,166.411
		c-1.265,0-2.091,0.831-2.091,1.922c0,1.066,0.803,1.921,2.043,1.921h0.023c1.289,0,2.093-0.854,2.093-1.921
		C67.297,167.242,66.519,166.411,65.254,166.411L65.254,166.411z M63.383,182.894h3.695V171.77h-3.695V182.894z"/>
</g>
<path fill="#660000" d="M70.404,204.734c-10.65,0-19.284,8.635-19.284,19.285c0,10.651,8.634,19.288,19.284,19.288
	s19.286-8.636,19.286-19.288C89.689,213.37,81.055,204.734,70.404,204.734L70.404,204.734z"/>
<g>
	<path fill="#FFFFFF" d="M72.656,228.36c-1.173-0.091-1.664-0.673-2.585-1.229c-0.506,2.651-1.122,5.192-2.951,6.521
		c-0.565-4.009,0.829-7.019,1.476-10.213c-1.104-1.856,0.133-5.596,2.461-4.675c2.866,1.133-2.479,6.908,1.107,7.629
		c3.746,0.753,5.275-6.501,2.952-8.859c-3.356-3.406-9.771-0.078-8.981,4.799c0.191,1.191,1.424,1.554,0.492,3.199
		c-2.148-0.477-2.79-2.17-2.707-4.43c0.134-3.697,3.322-6.286,6.521-6.646c4.046-0.452,7.844,1.486,8.366,5.292
		C79.399,224.042,76.983,228.694,72.656,228.36L72.656,228.36z"/>
</g>
<path fill="#003366" d="M70.703,253.378c-10.652,0-19.287,8.635-19.287,19.287c0,10.65,8.635,19.286,19.287,19.286
	c10.651,0,19.286-8.633,19.286-19.286S81.354,253.378,70.703,253.378L70.703,253.378z"/>
<g>
	<path fill="#FFFFFF" d="M80.042,267.87c-0.688,0.305-1.427,0.51-2.201,0.604c0.791-0.475,1.398-1.227,1.687-2.119
		c-0.74,0.438-1.562,0.758-2.435,0.93c-0.699-0.744-1.694-1.211-2.799-1.211c-2.115,0-3.832,1.717-3.832,3.832
		c0,0.301,0.034,0.594,0.101,0.873c-3.186-0.158-6.01-1.686-7.898-4.004c-0.33,0.564-0.521,1.225-0.521,1.928
		c0,1.328,0.679,2.502,1.705,3.189c-0.628-0.021-1.219-0.191-1.734-0.48c0,0.018,0,0.033,0,0.049c0,1.855,1.32,3.406,3.072,3.758
		c-0.319,0.09-0.659,0.137-1.009,0.137c-0.248,0-0.487-0.023-0.722-0.068c0.488,1.521,1.903,2.631,3.581,2.662
		c-1.313,1.027-2.965,1.641-4.761,1.641c-0.309,0-0.614-0.02-0.914-0.055c1.694,1.088,3.71,1.723,5.875,1.723
		c7.048,0,10.901-5.84,10.901-10.904c0-0.166-0.004-0.33-0.012-0.494C78.878,269.313,79.528,268.638,80.042,267.87L80.042,267.87z"
		/>
</g>
<path fill="#FFFFFF" d="M45.026,312.801c-0.224-0.222-0.585-0.22-0.807,0.003l-3.467,3.47l-3.466-3.47
	c-0.006-0.008-0.012-0.015-0.021-0.022c-0.227-0.217-0.588-0.207-0.805,0.021c-0.217,0.229-0.208,0.589,0.02,0.806l3.869,3.873
	c0.001,0,0.001,0,0.001,0c0.223,0.225,0.583,0.225,0.805,0l3.871-3.873l0,0C45.248,313.386,45.248,313.026,45.026,312.801
	L45.026,312.801z"/>
</svg>
