<?xml version="1.0" encoding="UTF-8"?>
<svg width="22px" height="41px" viewBox="0 0 22 41" version="1.1" xmlns="http://www.w3.org/2000/svg" xmlns:xlink="http://www.w3.org/1999/xlink">
    <!-- Generator: Sketch 52.6 (67491) - http://www.bohemiancoding.com/sketch -->
    <title>Artboard</title>
    <desc>Created with Sketch.</desc>
    <g id="Artboard" stroke="none" stroke-width="1" fill="none" fill-rule="evenodd">
        <path d="M18.6639535,9.67649725 C19.3004915,9.12443547 18.9822225,8.08931961 18.1335052,8.02031189 L14.2081878,7.70977713 C13.8545556,7.67527327 13.5362866,7.4682501 13.3948337,7.12321148 L11.8742152,3.56931372 C11.5559462,2.81022876 10.4243232,2.81022876 10.1060542,3.56931372 L8.58543572,7.12321148 C8.44398284,7.43374624 8.12571385,7.67527327 7.77208165,7.70977713 L3.88212741,8.05481575 C3.03341012,8.12382347 2.67977791,9.15893933 3.3516791,9.71100112 L6.32218961,12.1952792 C6.60509538,12.4368062 6.71118504,12.7818448 6.6404586,13.1268834 L5.72101487,16.8533005 C5.50883555,17.6468893 6.42827928,18.3024627 7.13554368,17.8539125 L10.4950496,15.8526885 C10.8133186,15.6801692 11.202314,15.6801692 11.4852198,15.8526885 L14.8447257,17.8539125 C15.5873534,18.3024627 16.4714339,17.6468893 16.2592545,16.8533005 L15.3398108,13.1268834 C15.2690844,12.7818448 15.375174,12.4368062 15.6580798,12.1952792 L18.6639535,9.67649725 Z" id="Path-Copy-3" fill="#F5E123"></path>
        <path d="M18.3390318,29.2964311 C18.6431687,29.029107 18.4912839,28.5510523 18.0940731,28.5187546 L14.1596334,28.207414 C13.6132551,28.1541039 13.1414229,27.8232157 12.9351451,27.3199 L11.4131057,23.7626476 C11.2662752,23.4124508 10.7139942,23.4124508 10.5657428,23.7660023 L9.04045282,27.3304781 C8.82296822,27.807927 8.34727056,28.1560303 7.81625817,28.2078217 L3.92264782,28.5531711 C3.51048704,28.5866832 3.35329569,29.0652022 3.67244539,29.3274532 L6.646838,31.8150116 C7.06368751,32.1708913 7.23881809,32.6977551 7.1259003,33.2466597 L6.20404804,36.9824475 C6.11051958,37.3322608 6.54187027,37.6383469 6.87965844,37.4243514 L10.2567761,35.413114 C10.7275791,35.1579129 11.3062445,35.1579129 11.741105,35.4231274 L15.1032326,37.425924 C15.4589426,37.6407743 15.8725566,37.3427587 15.7738128,36.9730768 L14.8499953,33.2272864 C14.7414513,32.6977551 14.9165819,32.1708913 15.3369439,31.8120407 L18.3390318,29.2964311 Z" id="Path-Copy-4" stroke="#B4B4B4"></path>
    </g>
</svg>