<?xml version="1.0" encoding="utf-8"?>
<!-- Generator: Adobe Illustrator 15.0.0, SVG Export Plug-In . SVG Version: 6.00 Build 0)  -->
<!DOCTYPE svg PUBLIC "-//W3C//DTD SVG 1.1//EN" "http://www.w3.org/Graphics/SVG/1.1/DTD/svg11.dtd">
<svg version="1.1" id="Layer_1" xmlns="http://www.w3.org/2000/svg" xmlns:xlink="http://www.w3.org/1999/xlink" x="0px" y="0px"
	 width="390.395px" height="142.873px" viewBox="0 0 390.395 142.873" enable-background="new 0 0 390.395 142.873"
	 xml:space="preserve">
<path fill="#F3E600" d="M195.511,0c-39.449,0-71.543,32.094-71.543,71.542s32.094,71.542,71.543,71.542
	c39.447,0,71.542-32.094,71.542-71.542S234.958,0,195.511,0z"/>
<ellipse transform="matrix(-0.1824 -0.9832 0.9832 -0.1824 225.1402 280.9096)" fill="#010202" cx="229.363" cy="46.849" rx="14.047" ry="10.842"/>
<ellipse transform="matrix(0.2145 -0.9767 0.9767 0.2145 81.1765 194.6378)" fill="#010202" cx="161.601" cy="46.849" rx="14.047" ry="10.842"/>
<ellipse fill="#010202" cx="195.482" cy="98.08" rx="26.951" ry="36.047"/>
<path fill="#010202" d="M164.061,20.543c3.543,0,6.753,1.451,9.07,3.788h2.549c-2.692-3.47-6.897-5.71-11.619-5.71
	s-8.927,2.24-11.618,5.71h2.548C157.308,21.994,160.518,20.543,164.061,20.543z"/>
<path fill="#010202" d="M229.363,20.543c3.543,0,6.752,1.451,9.07,3.788h2.547c-2.689-3.47-6.896-5.71-11.617-5.71
	s-8.928,2.24-11.618,5.71h2.548C222.611,21.994,225.82,20.543,229.363,20.543z"/>
<g>
	<path fill="#010202" d="M66.381,142.873v-39.125H0V91.219L63.743,0h20.882v88.802h20.002v14.946H84.625v39.125H66.381z
		 M66.381,88.802V41.103c0-7.473,0.219-14.947,0.659-22.42h-0.659c-4.396,8.353-7.913,14.507-11.87,21.102L19.562,88.361v0.44
		H66.381z"/>
</g>
<g>
	<path fill="#010202" d="M352.15,142.873v-39.125h-66.383V91.219L349.51,0h20.882v88.802h20.003v14.946h-20.003v39.125H352.15z
		 M352.15,88.802V41.103c0-7.473,0.219-14.947,0.659-22.42h-0.659c-4.396,8.353-7.915,14.507-11.871,21.102l-34.948,48.577v0.44
		H352.15z"/>
</g>
</svg>
