<?xml version="1.0" encoding="utf-8"?>
<!-- Generator: Adobe Illustrator 15.0.0, SVG Export Plug-In . SVG Version: 6.00 Build 0)  -->
<!DOCTYPE svg PUBLIC "-//W3C//DTD SVG 1.1//EN" "http://www.w3.org/Graphics/SVG/1.1/DTD/svg11.dtd">
<svg version="1.1" id="Layer_1" xmlns="http://www.w3.org/2000/svg" xmlns:xlink="http://www.w3.org/1999/xlink" x="0px" y="0px"
	 width="233px" height="17px" viewBox="0 0 233 17" enable-background="new 0 0 233 17" xml:space="preserve">
<title></title>
<desc>Created with Sketch.</desc>
<g id="Group-2" transform="translate(11.000000, 0.000000)">
	<polygon id="Shape" fill="#428CA5" points="19.395,0 14,8.777 17.211,14 17.224,14 19.395,10.465 21.566,14 28,14 	"/>
	<polygon id="Shape_1_" fill="#4EB0DC" points="8.491,0 0,14 6.335,14 8.491,10.443 10.648,13.998 17,13.998 	"/>
	<g id="Group" transform="translate(30.000000, 2.000000)">
		<path id="Shape_2_" fill="#515876" d="M1.6,12.026H0.24L5.227,0.297H6.36l4.987,11.729H9.988L8.725,8.945H2.864L1.6,12.026z
			 M3.3,7.853h4.971L5.794,1.689L3.3,7.853z"/>
		<path id="Shape_3_" fill="#515876" d="M15.347,5.268h-2.186v4.573c0,1.159,0.438,1.392,1.102,1.392
			c0.373,0,0.777-0.117,1.102-0.299l0.049,1.01c-0.389,0.185-0.908,0.284-1.441,0.284c-0.81,0-1.879-0.365-1.879-2.072V5.268h-1.603
			V4.274h1.603V2.087h1.07v2.187h2.186v0.994H15.347z"/>
		<path id="Shape_4_" fill="#515876" d="M20.092,5.268h-2.185v4.573c0,1.159,0.438,1.392,1.101,1.392
			c0.373,0,0.778-0.117,1.102-0.299l0.048,1.01c-0.387,0.185-0.906,0.284-1.439,0.284c-0.811,0-1.88-0.365-1.88-2.072V5.268h-1.603
			V4.274h1.603V2.087h1.069v2.187h2.186L20.092,5.268L20.092,5.268z"/>
		<path id="Shape_5_" fill="#515876" d="M22.02,4.274v1.441h0.031c0.309-0.829,1.103-1.642,2.431-1.642
			c0.307,0,0.566,0.033,0.792,0.1L25.063,5.25c-0.128-0.05-0.322-0.083-0.614-0.083c-1.619,0-2.348,1.44-2.348,2.485v4.373h-1.069
			V4.274H22.02z"/>
		<path id="Shape_6_" fill="#515876" d="M30.609,7.272V7.074c0-1.342-0.631-2.005-1.943-2.005c-0.89,0-1.669,0.316-2.315,0.912
			l-0.646-0.779c0.696-0.729,1.78-1.127,3.206-1.127c1.491,0,2.769,0.862,2.769,2.75v3.464c0,0.594,0.065,1.326,0.128,1.738h-1.036
			c-0.063-0.382-0.096-0.844-0.096-1.26h-0.033c-0.615,1.028-1.458,1.458-2.672,1.458c-1.343,0-2.607-0.763-2.607-2.271
			c0-2.517,2.899-2.683,4.712-2.683H30.609z M30.059,8.167c-1.086,0-3.53,0.084-3.53,1.642c0,1.027,0.922,1.424,1.78,1.424
			c1.556,0,2.3-1.127,2.3-2.502V8.168L30.059,8.167L30.059,8.167z"/>
		<path id="Shape_7_" fill="#515876" d="M34.116,4.274v1.175h0.031c0.52-0.895,1.539-1.375,2.446-1.375
			c0.825,0,1.911,0.282,2.412,1.608c0.439-0.995,1.475-1.608,2.494-1.608c1.928,0,2.851,1.109,2.851,3.031v4.921h-1.069V7.504
			c0-1.574-0.438-2.435-1.911-2.435c-1.586,0-2.137,1.393-2.137,2.833v4.124h-1.069V7.504c0-1.574-0.438-2.435-1.911-2.435
			c-0.259,0-2.135,0.149-2.135,2.981v3.977h-1.071V4.274H34.116z"/>
		<path id="Shape_8_" fill="#515876" d="M49.362,12.228c-2.348,0-4.016-1.739-4.016-4.077c0-2.336,1.667-4.076,4.016-4.076
			c2.364,0,4.031,1.74,4.031,4.076C53.393,10.488,51.727,12.228,49.362,12.228z M49.362,5.069c-1.75,0-2.851,1.342-2.851,3.081
			c0,1.74,1.102,3.082,2.851,3.082c1.764,0,2.866-1.342,2.866-3.082C52.229,6.412,51.127,5.069,49.362,5.069z"/>
	</g>
</g>
<polygon id="Line" fill="#DEDEDE" points="101,0 102,0 102,17 101,17 "/>
<path id="Know-Your-Chamber" fill="#777777" d="M112.503,9.783l-1.89,1.939v2.217H110V5.506h0.614v5.422l5.26-5.422h0.747
	l-3.708,3.832l3.96,4.602h-0.746L112.503,9.783z M121.338,7.603c0.787,0,1.408,0.229,1.866,0.687
	c0.457,0.458,0.687,1.117,0.687,1.977v3.674h-0.603v-3.626c0-0.707-0.179-1.245-0.536-1.615c-0.356-0.37-0.855-0.554-1.498-0.554
	c-0.738,0-1.32,0.221-1.745,0.663s-0.638,1.037-0.638,1.783v3.35h-0.602V7.65h0.577v1.361c0.217-0.441,0.54-0.787,0.97-1.036
	C120.245,7.727,120.752,7.603,121.338,7.603z M128.824,13.988c-0.594,0-1.129-0.137-1.605-0.41
	c-0.479-0.273-0.854-0.652-1.126-1.139s-0.409-1.033-0.409-1.645c0-0.61,0.137-1.158,0.409-1.645
	c0.272-0.486,0.647-0.865,1.126-1.138c0.477-0.273,1.012-0.41,1.605-0.41c0.595,0,1.131,0.136,1.607,0.41
	c0.478,0.273,0.853,0.652,1.125,1.138c0.273,0.486,0.41,1.034,0.41,1.645c0,0.611-0.137,1.158-0.41,1.645
	c-0.272,0.486-0.647,0.865-1.125,1.139C129.955,13.852,129.419,13.988,128.824,13.988z M128.824,13.445
	c0.482,0,0.914-0.111,1.295-0.337c0.381-0.225,0.682-0.538,0.902-0.939s0.331-0.86,0.331-1.374s-0.11-0.972-0.331-1.373
	c-0.221-0.402-0.521-0.715-0.902-0.94s-0.813-0.337-1.295-0.337c-0.48,0-0.912,0.112-1.293,0.337s-0.682,0.538-0.902,0.94
	c-0.221,0.401-0.332,0.859-0.332,1.373s0.111,0.973,0.332,1.374s0.521,0.715,0.902,0.939
	C127.912,13.334,128.344,13.445,128.824,13.445z M142.811,7.65l-2.383,6.289h-0.565l-2.118-5.458l-2.131,5.458h-0.554l-2.383-6.289
	h0.577l2.095,5.615l2.143-5.615h0.518l2.13,5.603l2.119-5.603H142.811z M150.094,11.036v2.903h-0.614v-2.903l-3.395-5.53h0.675
	l3.045,4.964l3.045-4.964h0.638L150.094,11.036z M157.279,13.988c-0.594,0-1.13-0.137-1.607-0.41
	c-0.477-0.273-0.853-0.652-1.125-1.139c-0.273-0.486-0.409-1.033-0.409-1.645c0-0.61,0.136-1.158,0.409-1.645
	c0.272-0.486,0.648-0.865,1.125-1.138c0.478-0.273,1.014-0.41,1.607-0.41s1.129,0.136,1.606,0.41
	c0.478,0.273,0.853,0.652,1.126,1.138c0.272,0.486,0.408,1.034,0.408,1.645c0,0.611-0.136,1.158-0.408,1.645
	c-0.273,0.486-0.648,0.865-1.126,1.139S157.873,13.988,157.279,13.988z M157.279,13.445c0.48,0,0.912-0.111,1.293-0.337
	c0.382-0.225,0.683-0.538,0.903-0.939s0.331-0.86,0.331-1.374s-0.11-0.972-0.331-1.373c-0.221-0.402-0.521-0.715-0.903-0.94
	c-0.381-0.225-0.813-0.337-1.293-0.337c-0.482,0-0.913,0.112-1.295,0.337c-0.381,0.225-0.682,0.538-0.902,0.94
	c-0.221,0.401-0.33,0.859-0.33,1.373s0.109,0.973,0.33,1.374s0.521,0.715,0.902,0.939C156.366,13.334,156.797,13.445,157.279,13.445
	z M167.787,7.65v6.289h-0.578v-1.35c-0.209,0.442-0.518,0.785-0.927,1.031c-0.409,0.244-0.891,0.367-1.444,0.367
	c-0.818,0-1.461-0.229-1.926-0.688c-0.465-0.457-0.698-1.116-0.698-1.976V7.65h0.603v3.627c0,0.707,0.18,1.244,0.541,1.614
	s0.871,0.554,1.529,0.554c0.705,0,1.266-0.221,1.678-0.662c0.414-0.441,0.621-1.036,0.621-1.783V7.65H167.787z M170.916,9.023
	c0.193-0.457,0.494-0.809,0.902-1.054c0.41-0.245,0.907-0.367,1.493-0.367v0.59l-0.145-0.012c-0.698,0-1.243,0.219-1.637,0.657
	s-0.59,1.046-0.59,1.825v3.277h-0.603V7.65h0.578V9.023z M181.93,14c-0.826,0-1.57-0.185-2.232-0.555
	c-0.662-0.369-1.184-0.879-1.565-1.529c-0.381-0.65-0.571-1.382-0.571-2.193c0-0.811,0.19-1.542,0.571-2.192
	c0.382-0.651,0.903-1.161,1.565-1.53s1.406-0.554,2.232-0.554c0.609,0,1.172,0.098,1.686,0.295c0.514,0.196,0.95,0.488,1.312,0.873
	l-0.386,0.398c-0.674-0.667-1.536-1-2.588-1c-0.705,0-1.348,0.161-1.926,0.482c-0.577,0.321-1.031,0.765-1.359,1.331
	c-0.329,0.566-0.494,1.198-0.494,1.897s0.165,1.332,0.494,1.898c0.328,0.565,0.782,1.01,1.359,1.33
	c0.578,0.322,1.221,0.482,1.926,0.482c1.043,0,1.906-0.338,2.588-1.012l0.386,0.397c-0.361,0.386-0.801,0.679-1.318,0.88
	C183.091,13.899,182.531,14,181.93,14z M189.861,7.603c0.787,0,1.408,0.229,1.865,0.687c0.458,0.458,0.687,1.117,0.687,1.977v3.674
	h-0.602v-3.626c0-0.707-0.179-1.245-0.536-1.615c-0.356-0.37-0.855-0.554-1.498-0.554c-0.738,0-1.32,0.221-1.745,0.663
	s-0.638,1.037-0.638,1.783v3.35h-0.602V5h0.602v3.964c0.217-0.434,0.537-0.769,0.963-1.006
	C188.782,7.721,189.283,7.603,189.861,7.603z M197.012,7.603c0.777,0,1.375,0.199,1.793,0.596c0.417,0.397,0.626,0.982,0.626,1.752
	v3.988h-0.578v-1.12c-0.2,0.37-0.493,0.657-0.878,0.861c-0.386,0.205-0.848,0.308-1.385,0.308c-0.698,0-1.25-0.165-1.654-0.494
	c-0.406-0.33-0.608-0.764-0.608-1.301c0-0.522,0.187-0.946,0.56-1.271c0.373-0.326,0.969-0.488,1.787-0.488h2.154V9.928
	c0-0.586-0.158-1.032-0.475-1.337c-0.317-0.305-0.781-0.458-1.391-0.458c-0.417,0-0.816,0.073-1.197,0.217s-0.705,0.337-0.969,0.578
	l-0.301-0.434c0.313-0.281,0.689-0.5,1.131-0.657S196.529,7.603,197.012,7.603z M196.674,13.494c0.521,0,0.965-0.121,1.33-0.361
	c0.365-0.241,0.641-0.591,0.824-1.049v-1.18h-2.143c-0.617,0-1.064,0.111-1.342,0.337c-0.276,0.225-0.415,0.534-0.415,0.928
	c0,0.409,0.153,0.732,0.458,0.97C195.691,13.375,196.121,13.494,196.674,13.494z M209.733,7.603c0.778,0,1.391,0.229,1.836,0.687
	s0.668,1.117,0.668,1.977v3.674h-0.603v-3.626c0-0.707-0.172-1.245-0.518-1.615c-0.344-0.37-0.826-0.554-1.443-0.554
	c-0.707,0-1.266,0.221-1.68,0.663c-0.413,0.442-0.619,1.037-0.619,1.783v3.35h-0.603v-3.626c0-0.707-0.173-1.245-0.518-1.615
	s-0.826-0.554-1.444-0.554c-0.706,0-1.266,0.221-1.679,0.663s-0.62,1.037-0.62,1.783v3.35h-0.602V7.65h0.578V9
	c0.208-0.442,0.52-0.785,0.932-1.03c0.414-0.245,0.905-0.367,1.475-0.367c0.57,0,1.054,0.128,1.451,0.385
	c0.396,0.257,0.68,0.635,0.848,1.133c0.209-0.466,0.536-0.836,0.981-1.109C208.62,7.739,209.14,7.603,209.733,7.603z M217.87,7.603
	c0.586,0,1.116,0.134,1.589,0.403c0.474,0.269,0.845,0.646,1.113,1.133c0.27,0.486,0.403,1.038,0.403,1.656
	c0,0.619-0.134,1.169-0.403,1.65c-0.269,0.482-0.64,0.859-1.113,1.133c-0.473,0.273-1.003,0.41-1.589,0.41
	c-0.562,0-1.069-0.135-1.522-0.404c-0.453-0.269-0.805-0.645-1.053-1.126v1.481h-0.578V5h0.602v4.084
	c0.249-0.465,0.598-0.829,1.047-1.09C216.814,7.733,217.316,7.603,217.87,7.603z M217.834,13.445c0.481,0,0.915-0.111,1.301-0.337
	c0.385-0.225,0.688-0.538,0.908-0.939s0.331-0.86,0.331-1.374s-0.11-0.972-0.331-1.373c-0.221-0.402-0.523-0.715-0.908-0.94
	c-0.386-0.225-0.819-0.337-1.301-0.337s-0.912,0.112-1.294,0.337c-0.381,0.225-0.683,0.538-0.902,0.94
	c-0.221,0.401-0.331,0.859-0.331,1.373s0.11,0.973,0.331,1.374c0.22,0.401,0.521,0.715,0.902,0.939
	C216.922,13.334,217.353,13.445,217.834,13.445z M228.149,10.939h-5.404c0.017,0.49,0.14,0.926,0.373,1.308
	c0.232,0.382,0.548,0.677,0.944,0.886c0.397,0.209,0.846,0.313,1.342,0.313c0.41,0,0.789-0.074,1.139-0.223
	c0.349-0.148,0.64-0.367,0.872-0.656l0.349,0.397c-0.272,0.329-0.615,0.583-1.029,0.759c-0.412,0.177-0.859,0.266-1.342,0.266
	c-0.625,0-1.184-0.137-1.673-0.41s-0.872-0.65-1.149-1.133c-0.277-0.481-0.415-1.031-0.415-1.65c0-0.61,0.13-1.158,0.392-1.645
	c0.26-0.486,0.619-0.865,1.076-1.138c0.458-0.273,0.972-0.41,1.541-0.41c0.57,0,1.082,0.134,1.535,0.403s0.811,0.645,1.07,1.127
	c0.262,0.481,0.392,1.027,0.392,1.639L228.149,10.939z M225.164,8.132c-0.441,0-0.838,0.099-1.191,0.295s-0.636,0.474-0.849,0.831
	c-0.212,0.357-0.335,0.761-0.367,1.211h4.815c-0.025-0.45-0.145-0.851-0.361-1.204c-0.217-0.354-0.502-0.631-0.855-0.832
	C226.003,8.233,225.605,8.132,225.164,8.132z M230.605,9.023c0.191-0.457,0.492-0.809,0.902-1.054
	c0.408-0.245,0.906-0.367,1.492-0.367v0.59l-0.145-0.012c-0.698,0-1.244,0.219-1.637,0.657c-0.394,0.438-0.59,1.046-0.59,1.825
	v3.277h-0.602V7.65h0.578V9.023z"/>
<path id="Shape_9_" fill="#9B9B9B" d="M4.444,3C4.278,3,4.167,3.056,4.056,3.169L0.167,7.106c-0.222,0.225-0.222,0.563,0,0.787
	l3.889,3.938c0.222,0.226,0.556,0.226,0.778,0c0.222-0.225,0.222-0.563,0-0.787L1.333,7.5l3.5-3.544
	c0.222-0.225,0.222-0.563,0-0.787C4.722,3.056,4.556,3,4.444,3z"/>
</svg>
