<?xml version="1.0" encoding="utf-8"?>
<!-- Generator: Adobe Illustrator 15.0.0, SVG Export Plug-In . SVG Version: 6.00 Build 0)  -->
<!DOCTYPE svg PUBLIC "-//W3C//DTD SVG 1.1//EN" "http://www.w3.org/Graphics/SVG/1.1/DTD/svg11.dtd">
<svg version="1.1" id="Layer_1" xmlns="http://www.w3.org/2000/svg" xmlns:xlink="http://www.w3.org/1999/xlink" x="0px" y="0px"
	 width="112.362px" height="173.845px" viewBox="38.138 26.221 112.362 173.845"
	 enable-background="new 38.138 26.221 112.362 173.845" xml:space="preserve">
<g>
	<polygon fill="#4EB0DC" points="151.188,168.647 60.626,112.864 151.188,49.208 	"/>
	<g>
		<g>
			<path fill="#FFFFFF" d="M42.266,131.692c0,6.222,5.768,9.276,5.768,9.276l103.17,55.617V157.21L45.916,98.854
				c0,0-3.65-1.363-3.65-6.538V131.692z"/>
		</g>
	</g>
	
		<linearGradient id="SVGID_1_" gradientUnits="userSpaceOnUse" x1="-97.2817" y1="406.3127" x2="-73.0009" y2="425.3438" gradientTransform="matrix(1 0 0 1 140.9448 -292.7207)">
		<stop  offset="0" style="stop-color:#000000;stop-opacity:0.4"/>
		<stop  offset="1" style="stop-color:#000000;stop-opacity:0"/>
	</linearGradient>
	<path fill="url(#SVGID_1_)" d="M45.916,98.854c0,0-3.65-1.363-3.65-6.538v39.375c0,6.222,5.768,9.276,5.768,9.276l30.982,16.703
		V117.2L45.916,98.854z"/>
	<g>
		<path fill="#303030" d="M94.057,136.074l2.88,1.524l-4.187,11.893l0.041,0.024l7.59-10.091l2.881,1.524l-4.086,11.948l0.045,0.021
			l7.484-10.143l2.878,1.523l-10.606,13.465l-3.358-1.78l4.056-11.695l-0.042-0.021l-7.396,9.925l-3.361-1.779L94.057,136.074z"/>
		<path fill="#303030" d="M119.129,149.359l-1.305,2.461l-5.322-2.818l-1.856,3.506l5.009,2.653l-1.305,2.463l-5.009-2.652
			l-2.122,4.007l5.531,2.929l-1.306,2.462l-8.534-4.521l7.892-14.901L119.129,149.359z"/>
		<path fill="#303030" d="M129.151,154.667l-1.306,2.462l-5.322-2.818l-1.856,3.507l5.008,2.652l-1.304,2.462l-5.01-2.652
			l-2.122,4.007l5.531,2.93l-1.306,2.462l-8.533-4.521l7.893-14.901L129.151,154.667z"/>
		<path fill="#303030" d="M133.902,157.185l-3.162,5.97l0.043,0.023l6.959-3.958l3.254,1.725l-7.43,4.24l-0.004,10.903l-3.38-1.792
			l0.172-7.739l-2.001,1.106l-2.344,4.422l-3.005-1.592l7.893-14.9L133.902,157.185z"/>
	</g>
	<g>
		<g>
			<path fill="#303030" d="M78.377,127.177c1.932,1.022,1.443,2.526,0.416,4.464c-1.027,1.938-1.997,3.187-3.927,2.164
				c-1.929-1.021-1.44-2.526-0.414-4.463C75.478,127.404,76.447,126.156,78.377,127.177z M75.371,132.857
				c0.757,0.404,1.229-0.181,2.135-1.896c0.905-1.707,1.129-2.434,0.369-2.836s-1.233,0.192-2.137,1.899
				C74.832,131.74,74.609,132.459,75.371,132.857z"/>
			<path fill="#303030" d="M81.233,128.851l3.563,1.888l-0.559,1.056l-2.275-1.206l-0.796,1.502l2.146,1.135l-0.559,1.053
				l-2.145-1.134l-1.465,2.768l-1.287-0.682L81.233,128.851z"/>
		</g>
		<g>
			<path fill="#303030" d="M76.023,136.162l-0.56,1.056l-1.394-0.738l-2.818,5.324l-1.285-0.682l2.817-5.324l-1.395-0.738
				l0.561-1.056L76.023,136.162z"/>
			<path fill="#303030" d="M76.573,136.456l1.284,0.682l-1.291,2.439l1.5,0.793l1.293-2.438l1.285,0.681l-3.376,6.378l-1.285-0.681
				l1.5-2.832l-1.502-0.794l-1.499,2.832l-1.285-0.682L76.573,136.456z"/>
			<path fill="#303030" d="M85.109,140.978l-0.559,1.055l-2.277-1.207l-0.795,1.502l2.146,1.136l-0.561,1.055l-2.143-1.137
				l-0.908,1.716l2.367,1.254l-0.558,1.053l-3.653-1.935l3.375-6.376L85.109,140.978z"/>
		</g>
	</g>
	<g>
		<g>
			<path fill="#FFFFFF" d="M42.266,95.728c0-5.174,3.65-6.538,3.65-6.538l105.287-58.357v36.75L45.916,125.94
				c0,0-3.65,1.364-3.65,6.538V95.728z"/>
		</g>
	</g>
	<g>
		<path fill="#303030" d="M58.166,98.482c-1.193-2.149-2.142-2.837-3.485-2.094c-1.508,0.836-1.024,2.541,1.289,6.716
			c2.477,4.464,3.543,4.926,4.825,4.216c1.074-0.596,1.551-1.589-0.214-4.771l2.978-1.649c1.764,3.182,2.5,6.366-1.405,8.531
			c-4.463,2.473-6.785-0.4-9.271-4.883c-2.488-4.486-3.692-7.978,0.772-10.452c4.258-2.36,6.297,0.588,7.489,2.738L58.166,98.482z"
			/>
		<path fill="#303030" d="M60.19,90.85l2.977-1.65l3.129,5.643l3.472-1.924l-3.129-5.643l2.977-1.649l8.179,14.755l-2.977,1.651
			l-3.631-6.552l-3.473,1.924l3.632,6.552l-2.976,1.65L60.19,90.85z"/>
		<path fill="#303030" d="M74.552,82.889l3.681-2.039l12.085,12.593l-3.1,1.717l-2.412-2.743l-3.927,2.177l1.049,3.5l-3.101,1.717
			L74.552,82.889z M80.044,91.869l2.892-1.605l-5.102-5.845l-0.044,0.024L80.044,91.869z"/>
		<path fill="#303030" d="M83.231,78.08l4.423-2.451l7.882,9.248l0.041-0.024l-3.644-11.595l4.4-2.44l8.18,14.758l-2.73,1.512
			l-6.528-11.781l-0.041,0.023l3.903,13.235l-2.314,1.284L87.65,79.524l-0.042,0.023l6.529,11.781l-2.728,1.513L83.231,78.08z"/>
		<path fill="#303030" d="M98.471,69.634l4.981-2.762c2.438-1.351,4.7-1.415,6.269,1.415c0.882,1.592,0.792,3.235-0.445,4.462
			l0.023,0.041c1.759-0.678,3.499-0.021,4.587,1.941c1.284,2.317,1.259,4.951-2.215,6.875l-5.021,2.784L98.471,69.634z
			 M104.805,74.04l0.848-0.469c1.632-0.905,2.066-1.875,1.299-3.261c-0.78-1.405-1.747-1.543-3.215-0.73l-1.075,0.595L104.805,74.04
			z M108.41,80.552l1.159-0.641c1.427-0.792,2.109-1.846,1.16-3.561c-0.952-1.715-2.198-1.672-3.499-0.951l-1.283,0.71
			L108.41,80.552z"/>
		<path fill="#303030" d="M118.212,58.694l1.351,2.438l-5.27,2.922l1.922,3.473l4.961-2.75l1.354,2.439l-4.962,2.749l2.201,3.968
			l5.478-3.035l1.351,2.439l-8.454,4.685l-8.178-14.755L118.212,58.694z"/>
		<path fill="#303030" d="M119.904,57.757l5.497-3.047c2.438-1.351,4.636-0.896,6.035,1.626c1.087,1.963,1.036,3.721-0.444,5
			l0.023,0.041c2.174-0.854,3.102,0.09,4.875,3.188c0.88,1.538,1.41,2.298,2.127,2.278l0.069,0.124l-3.225,1.787
			c-0.52-0.253-0.89-0.777-1.231-1.343l-1.65-2.786c-0.686-1.135-1.59-1.551-2.789-0.887l-1.593,0.882l3.46,6.242l-2.978,1.648
			L119.904,57.757z M126.455,62.555l1.238-0.688c1.426-0.792,1.89-1.858,1.008-3.449c-0.756-1.363-1.857-1.644-3.2-0.9l-1.405,0.779
			L126.455,62.555z"/>
	</g>
	
		<linearGradient id="SVGID_2_" gradientUnits="userSpaceOnUse" x1="-98.6792" y1="392.5627" x2="-55.3667" y2="392.5627" gradientTransform="matrix(1 0 0 1 140.9448 -292.7207)">
		<stop  offset="0" style="stop-color:#000000;stop-opacity:0.2"/>
		<stop  offset="1" style="stop-color:#000000;stop-opacity:0"/>
	</linearGradient>
	<path fill="url(#SVGID_2_)" d="M45.916,89.19c0,0-3.65,1.364-3.65,6.538v36.75c0-5.174,3.65-6.539,3.65-6.539l39.662-21.982v-36.75
		L45.916,89.19z"/>
</g>
<g>
	<g>
		<path fill="#FFFFFF" d="M132.397,122.53h-14.229c-0.267,0-0.503-0.169-0.59-0.42l-4.741-13.819c-0.094-0.27,0.01-0.571,0.25-0.726
			c0.241-0.154,0.559-0.126,0.766,0.072l5.303,5.013l1.047-9.39c0.032-0.278,0.241-0.5,0.517-0.545
			c0.271-0.047,0.546,0.096,0.666,0.347l3.897,8.205l3.897-8.205c0.12-0.251,0.394-0.394,0.667-0.347
			c0.273,0.046,0.484,0.268,0.516,0.545l1.047,9.39l5.301-5.013c0.21-0.199,0.523-0.227,0.766-0.072
			c0.242,0.155,0.346,0.456,0.252,0.726l-4.742,13.819C132.9,122.361,132.662,122.53,132.397,122.53z M118.613,121.284h13.34
			l3.775-11.006l-4.372,4.135c-0.171,0.164-0.418,0.214-0.641,0.132c-0.222-0.082-0.38-0.28-0.404-0.516l-0.945-8.457l-3.521,7.413
			c-0.104,0.218-0.323,0.356-0.563,0.356l0,0c-0.24,0-0.459-0.139-0.563-0.356l-3.521-7.413l-0.943,8.457
			c-0.025,0.235-0.183,0.434-0.404,0.516c-0.222,0.082-0.471,0.031-0.643-0.132l-4.372-4.135L118.613,121.284z"/>
	</g>
	<g>
		<path fill="#FFFFFF" d="M120.644,103.952c-1.45,0-2.627-1.179-2.627-2.629c0-1.448,1.177-2.627,2.627-2.627
			s2.628,1.179,2.628,2.627C123.271,102.773,122.094,103.952,120.644,103.952z M120.644,99.941c-0.763,0-1.383,0.621-1.383,1.381
			c0,0.765,0.62,1.384,1.383,1.384c0.762,0,1.384-0.619,1.384-1.384C122.027,100.562,121.405,99.941,120.644,99.941z"/>
	</g>
	<g>
		<g>
			<path fill="#FFFFFF" d="M112.965,108.724c-1.449,0-2.628-1.178-2.628-2.627c0-1.449,1.179-2.627,2.628-2.627
				c1.451,0,2.629,1.179,2.629,2.627C115.594,107.546,114.415,108.724,112.965,108.724z M112.965,104.714
				c-0.763,0-1.383,0.621-1.383,1.383c0,0.762,0.62,1.383,1.383,1.383c0.764,0,1.383-0.621,1.383-1.383
				C114.348,105.334,113.729,104.714,112.965,104.714z"/>
		</g>
		<g>
			<path fill="#FFFFFF" d="M137.601,108.724c-1.448,0-2.628-1.178-2.628-2.627c0-1.449,1.18-2.627,2.628-2.627
				s2.628,1.179,2.628,2.627C140.229,107.546,139.049,108.724,137.601,108.724z M137.601,104.714c-0.763,0-1.383,0.621-1.383,1.383
				c0,0.762,0.62,1.383,1.383,1.383c0.762,0,1.383-0.621,1.383-1.383C138.983,105.334,138.362,104.714,137.601,104.714z"/>
		</g>
	</g>
	<g>
		<path fill="#FFFFFF" d="M129.891,103.952c-1.449,0-2.627-1.179-2.627-2.629c0-1.448,1.178-2.627,2.627-2.627
			c1.447,0,2.627,1.179,2.627,2.627C132.518,102.773,131.338,103.952,129.891,103.952z M129.891,99.941
			c-0.763,0-1.384,0.621-1.384,1.381c0,0.765,0.621,1.384,1.384,1.384c0.761,0,1.383-0.619,1.383-1.384
			C131.273,100.562,130.651,99.941,129.891,99.941z"/>
	</g>
	<g>
		<path fill="#FFFFFF" d="M132.385,127.234h-14.203c-0.345,0-0.623-0.278-0.623-0.623V121.9c0-0.343,0.278-0.622,0.623-0.622h14.203
			c0.344,0,0.621,0.279,0.621,0.622v4.711C133.006,126.955,132.729,127.234,132.385,127.234z M118.805,125.988h12.957v-3.465
			h-12.957V125.988z"/>
	</g>
</g>
</svg>
