<?xml version="1.0" encoding="utf-8"?>
<!-- Generator: Adobe Illustrator 15.0.0, SVG Export Plug-In . SVG Version: 6.00 Build 0)  -->
<!DOCTYPE svg PUBLIC "-//W3C//DTD SVG 1.1//EN" "http://www.w3.org/Graphics/SVG/1.1/DTD/svg11.dtd">
<svg version="1.1" id="Layer_1" xmlns="http://www.w3.org/2000/svg" xmlns:xlink="http://www.w3.org/1999/xlink" x="0px" y="0px"
	 width="299.221px" height="53.17px" viewBox="0 0 299.221 53.17" enable-background="new 0 0 299.221 53.17" xml:space="preserve">
<g>
	<polygon fill="#E9437A" points="32.038,8.521 32.038,53.17 0,53.17 16.28,32.89 0,8.521 	"/>
</g>
<g>
	<polygon fill="#CD3366" points="23.518,0 23.518,44.648 299.221,44.648 281.941,24.369 299.221,0 	"/>
</g>
<g>
	<polygon fill="#9F1B46" points="23.518,44.648 32.038,53.17 32.038,44.648 	"/>
</g>
<g>
	<g>
		<path fill="#EB5689" d="M39.107,17.322c0.174,0.002,0.316-0.134,0.319-0.306c0-0.023-0.001-0.046-0.006-0.068l-0.724-3.489
			l2.658-2.4c0.129-0.116,0.139-0.312,0.022-0.439c-0.051-0.056-0.122-0.092-0.198-0.1l-3.576-0.397l-1.486-3.243
			c-0.07-0.157-0.256-0.228-0.415-0.158c-0.071,0.031-0.127,0.087-0.159,0.158l-1.486,3.243l-3.576,0.397
			c-0.172,0.019-0.297,0.172-0.278,0.343c0.009,0.076,0.044,0.145,0.102,0.196l2.658,2.4l-0.724,3.489
			c-0.035,0.168,0.074,0.333,0.244,0.368c0.075,0.016,0.152,0.003,0.218-0.034l3.13-1.76l3.129,1.76
			C39.004,17.308,39.055,17.321,39.107,17.322L39.107,17.322z M38.666,16.401l-2.682-1.508c-0.097-0.054-0.214-0.054-0.311,0
			l-2.682,1.508l0.621-2.99c0.022-0.107-0.015-0.218-0.097-0.292l-2.278-2.058l3.066-0.34c0.109-0.013,0.205-0.081,0.25-0.181
			l1.275-2.778l1.274,2.778c0.046,0.1,0.141,0.168,0.25,0.181l3.065,0.34l-2.278,2.058c-0.082,0.074-0.119,0.185-0.097,0.292
			L38.666,16.401L38.666,16.401z"/>
	</g>
</g>
<g>
	<g>
		<path fill="#EB5689" d="M78.493,17.322c0.174,0.002,0.316-0.134,0.319-0.306c0-0.023-0.001-0.046-0.006-0.068l-0.724-3.489
			l2.658-2.4c0.129-0.116,0.139-0.312,0.022-0.439c-0.051-0.056-0.122-0.092-0.198-0.1l-3.576-0.397l-1.486-3.243
			c-0.07-0.157-0.256-0.228-0.415-0.158c-0.071,0.031-0.127,0.087-0.159,0.158l-1.486,3.243l-3.576,0.397
			c-0.172,0.019-0.297,0.172-0.278,0.343c0.009,0.076,0.044,0.145,0.102,0.196l2.658,2.4l-0.724,3.489
			c-0.035,0.168,0.074,0.333,0.244,0.368c0.075,0.016,0.152,0.003,0.218-0.034l3.13-1.76l3.129,1.76
			C78.39,17.308,78.441,17.321,78.493,17.322L78.493,17.322z M78.051,16.401l-2.682-1.508c-0.097-0.054-0.214-0.054-0.311,0
			l-2.682,1.508l0.621-2.99c0.022-0.107-0.015-0.218-0.097-0.292l-2.278-2.058l3.066-0.34c0.109-0.013,0.205-0.081,0.25-0.181
			l1.275-2.778l1.274,2.778c0.046,0.1,0.141,0.168,0.25,0.181l3.065,0.34l-2.278,2.058c-0.082,0.074-0.119,0.185-0.097,0.292
			L78.051,16.401L78.051,16.401z"/>
	</g>
</g>
<g>
	<g>
		<path fill="#EB5689" d="M58.8,36.159c0.174,0.003,0.316-0.134,0.319-0.306c0-0.023-0.001-0.047-0.006-0.068l-0.724-3.489
			l2.658-2.399c0.129-0.116,0.139-0.313,0.022-0.439c-0.051-0.057-0.122-0.092-0.198-0.101l-3.576-0.397l-1.486-3.243
			c-0.07-0.157-0.256-0.228-0.415-0.158c-0.071,0.031-0.127,0.087-0.159,0.158l-1.486,3.243l-3.576,0.397
			c-0.172,0.019-0.297,0.173-0.278,0.343c0.009,0.076,0.044,0.146,0.102,0.197l2.658,2.399l-0.724,3.489
			c-0.035,0.168,0.074,0.332,0.244,0.367c0.075,0.016,0.152,0.004,0.218-0.033l3.13-1.761l3.129,1.761
			C58.697,36.145,58.748,36.158,58.8,36.159L58.8,36.159z M58.358,35.238l-2.682-1.508c-0.097-0.055-0.214-0.055-0.311,0
			l-2.682,1.508l0.621-2.99c0.022-0.107-0.015-0.219-0.097-0.292l-2.278-2.058l3.066-0.34c0.109-0.014,0.205-0.082,0.25-0.182
			l1.275-2.778l1.274,2.778c0.046,0.1,0.141,0.168,0.25,0.182l3.065,0.34l-2.278,2.058c-0.082,0.073-0.119,0.185-0.097,0.292
			L58.358,35.238L58.358,35.238z"/>
	</g>
</g>
<g>
	<g>
		<path fill="#EB5689" d="M99.549,36.159c0.174,0.003,0.316-0.134,0.319-0.306c0-0.023-0.001-0.047-0.006-0.068l-0.724-3.489
			l2.658-2.399c0.129-0.116,0.139-0.313,0.022-0.439c-0.051-0.057-0.122-0.092-0.198-0.101l-3.576-0.397l-1.486-3.243
			c-0.07-0.157-0.256-0.228-0.415-0.158c-0.071,0.031-0.127,0.087-0.159,0.158l-1.486,3.243l-3.576,0.397
			c-0.172,0.019-0.297,0.173-0.278,0.343c0.009,0.076,0.044,0.146,0.102,0.197l2.658,2.399l-0.724,3.489
			c-0.035,0.168,0.074,0.332,0.244,0.367c0.075,0.016,0.152,0.004,0.218-0.033l3.13-1.761l3.129,1.761
			C99.446,36.145,99.497,36.158,99.549,36.159L99.549,36.159z M99.107,35.238l-2.682-1.508c-0.097-0.055-0.214-0.055-0.311,0
			l-2.682,1.508l0.621-2.99c0.022-0.107-0.015-0.219-0.097-0.292l-2.278-2.058l3.066-0.34c0.109-0.014,0.205-0.082,0.25-0.182
			l1.275-2.778l1.274,2.778c0.046,0.1,0.141,0.168,0.25,0.182l3.065,0.34l-2.278,2.058c-0.082,0.073-0.119,0.185-0.097,0.292
			L99.107,35.238L99.107,35.238z"/>
	</g>
</g>
<g>
	<g>
		<path fill="#EB5689" d="M116.833,17.322c0.174,0.002,0.316-0.134,0.319-0.306c0-0.023-0.001-0.046-0.006-0.068l-0.724-3.489
			l2.658-2.4c0.129-0.116,0.139-0.312,0.022-0.439c-0.051-0.056-0.122-0.092-0.198-0.1l-3.576-0.397l-1.486-3.243
			c-0.07-0.157-0.256-0.228-0.415-0.158c-0.071,0.031-0.127,0.087-0.159,0.158l-1.486,3.243l-3.576,0.397
			c-0.172,0.019-0.297,0.172-0.278,0.343c0.009,0.076,0.044,0.145,0.102,0.196l2.658,2.4l-0.724,3.489
			c-0.035,0.168,0.074,0.333,0.244,0.368c0.075,0.016,0.152,0.003,0.218-0.034l3.13-1.76l3.129,1.76
			C116.729,17.308,116.78,17.321,116.833,17.322L116.833,17.322z M116.391,16.401l-2.682-1.508c-0.097-0.054-0.214-0.054-0.311,0
			l-2.682,1.508l0.621-2.99c0.022-0.107-0.015-0.218-0.097-0.292l-2.278-2.058l3.066-0.34c0.109-0.013,0.205-0.081,0.25-0.181
			l1.275-2.778l1.274,2.778c0.046,0.1,0.141,0.168,0.25,0.181l3.065,0.34l-2.278,2.058c-0.082,0.074-0.119,0.185-0.097,0.292
			L116.391,16.401L116.391,16.401z"/>
	</g>
</g>
<g>
	<g>
		<path fill="#EB5689" d="M156.218,17.322c0.174,0.002,0.316-0.134,0.319-0.306c0-0.023-0.001-0.046-0.006-0.068l-0.724-3.489
			l2.658-2.4c0.129-0.116,0.139-0.312,0.022-0.439c-0.051-0.056-0.122-0.092-0.198-0.1l-3.576-0.397l-1.486-3.243
			c-0.07-0.157-0.256-0.228-0.415-0.158c-0.071,0.031-0.127,0.087-0.159,0.158l-1.486,3.243l-3.576,0.397
			c-0.172,0.019-0.297,0.172-0.278,0.343c0.009,0.076,0.044,0.145,0.102,0.196l2.658,2.4l-0.724,3.489
			c-0.035,0.168,0.074,0.333,0.244,0.368c0.075,0.016,0.152,0.003,0.218-0.034l3.13-1.76l3.129,1.76
			C156.115,17.308,156.166,17.321,156.218,17.322L156.218,17.322z M155.776,16.401l-2.682-1.508c-0.097-0.054-0.214-0.054-0.311,0
			l-2.682,1.508l0.621-2.99c0.022-0.107-0.015-0.218-0.097-0.292l-2.278-2.058l3.066-0.34c0.109-0.013,0.205-0.081,0.25-0.181
			l1.275-2.778l1.274,2.778c0.046,0.1,0.141,0.168,0.25,0.181l3.065,0.34l-2.278,2.058c-0.082,0.074-0.119,0.185-0.097,0.292
			L155.776,16.401L155.776,16.401z"/>
	</g>
</g>
<g>
	<g>
		<path fill="#EB5689" d="M136.525,36.159c0.174,0.003,0.316-0.134,0.319-0.306c0-0.023-0.001-0.047-0.006-0.068l-0.724-3.489
			l2.658-2.399c0.129-0.116,0.139-0.313,0.022-0.439c-0.051-0.057-0.122-0.092-0.198-0.101l-3.576-0.397l-1.486-3.243
			c-0.07-0.157-0.256-0.228-0.415-0.158c-0.071,0.031-0.127,0.087-0.159,0.158l-1.486,3.243l-3.576,0.397
			c-0.172,0.019-0.297,0.173-0.278,0.343c0.009,0.076,0.044,0.146,0.102,0.197l2.658,2.399l-0.724,3.489
			c-0.035,0.168,0.074,0.332,0.244,0.367c0.075,0.016,0.152,0.004,0.218-0.033l3.13-1.761l3.129,1.761
			C136.422,36.145,136.473,36.158,136.525,36.159L136.525,36.159z M136.083,35.238l-2.682-1.508c-0.097-0.055-0.214-0.055-0.311,0
			l-2.682,1.508l0.621-2.99c0.022-0.107-0.015-0.219-0.097-0.292l-2.278-2.058l3.066-0.34c0.109-0.014,0.205-0.082,0.25-0.182
			l1.275-2.778l1.274,2.778c0.046,0.1,0.141,0.168,0.25,0.182l3.065,0.34l-2.278,2.058c-0.082,0.073-0.119,0.185-0.097,0.292
			L136.083,35.238L136.083,35.238z"/>
	</g>
</g>
<g>
	<g>
		<path fill="#EB5689" d="M177.275,36.159c0.174,0.003,0.316-0.134,0.318-0.306c0-0.023-0.002-0.047-0.006-0.068l-0.725-3.489
			l2.658-2.399c0.129-0.116,0.139-0.313,0.021-0.439c-0.051-0.057-0.121-0.092-0.197-0.101l-3.576-0.397l-1.486-3.243
			c-0.07-0.157-0.256-0.228-0.415-0.158c-0.071,0.031-0.128,0.087-0.159,0.158l-1.486,3.243l-3.576,0.397
			c-0.172,0.019-0.297,0.173-0.277,0.343c0.008,0.076,0.044,0.146,0.102,0.197l2.658,2.399l-0.725,3.489
			c-0.035,0.168,0.074,0.332,0.244,0.367c0.074,0.016,0.152,0.004,0.218-0.033l3.13-1.761l3.129,1.761
			C177.171,36.145,177.222,36.158,177.275,36.159L177.275,36.159z M176.833,35.238l-2.682-1.508c-0.097-0.055-0.214-0.055-0.311,0
			l-2.682,1.508l0.621-2.99c0.022-0.107-0.015-0.219-0.097-0.292l-2.278-2.058l3.065-0.34c0.109-0.014,0.205-0.082,0.25-0.182
			l1.275-2.778l1.274,2.778c0.046,0.1,0.141,0.168,0.251,0.182l3.064,0.34l-2.277,2.058c-0.082,0.073-0.119,0.185-0.097,0.292
			L176.833,35.238L176.833,35.238z"/>
	</g>
</g>
<g>
	<g>
		<path fill="#EB5689" d="M194.558,17.322c0.174,0.002,0.316-0.134,0.318-0.306c0-0.023-0.002-0.046-0.006-0.068l-0.725-3.489
			l2.658-2.4c0.129-0.116,0.139-0.312,0.021-0.439c-0.051-0.056-0.121-0.092-0.197-0.1l-3.576-0.397l-1.486-3.243
			c-0.07-0.157-0.256-0.228-0.415-0.158c-0.071,0.031-0.128,0.087-0.159,0.158l-1.486,3.243l-3.576,0.397
			c-0.172,0.019-0.297,0.172-0.277,0.343c0.008,0.076,0.044,0.145,0.102,0.196l2.658,2.4l-0.725,3.489
			c-0.035,0.168,0.074,0.333,0.244,0.368c0.074,0.016,0.152,0.003,0.218-0.034l3.13-1.76l3.129,1.76
			C194.455,17.308,194.505,17.321,194.558,17.322L194.558,17.322z M194.116,16.401l-2.682-1.508c-0.097-0.054-0.214-0.054-0.311,0
			l-2.682,1.508l0.621-2.99c0.022-0.107-0.015-0.218-0.097-0.292l-2.278-2.058l3.065-0.34c0.109-0.013,0.205-0.081,0.25-0.181
			l1.275-2.778l1.274,2.778c0.046,0.1,0.141,0.168,0.251,0.181l3.064,0.34l-2.277,2.058c-0.082,0.074-0.119,0.185-0.097,0.292
			L194.116,16.401L194.116,16.401z"/>
	</g>
</g>
<g>
	<g>
		<path fill="#EB5689" d="M233.943,17.322c0.174,0.002,0.316-0.134,0.319-0.306c0.001-0.023-0.001-0.046-0.007-0.068l-0.723-3.489
			l2.657-2.4c0.129-0.116,0.139-0.312,0.022-0.439c-0.052-0.056-0.123-0.092-0.199-0.1l-3.575-0.397l-1.486-3.243
			c-0.07-0.157-0.257-0.228-0.415-0.158c-0.07,0.031-0.127,0.087-0.159,0.158l-1.486,3.243l-3.576,0.397
			c-0.173,0.019-0.297,0.172-0.278,0.343c0.01,0.076,0.045,0.145,0.102,0.196l2.658,2.4l-0.723,3.489
			c-0.035,0.168,0.074,0.333,0.243,0.368c0.075,0.016,0.151,0.003,0.218-0.034l3.13-1.76l3.13,1.76
			C233.839,17.308,233.891,17.321,233.943,17.322L233.943,17.322z M233.501,16.401l-2.682-1.508c-0.097-0.054-0.215-0.054-0.311,0
			l-2.682,1.508l0.621-2.99c0.021-0.107-0.016-0.218-0.098-0.292l-2.277-2.058l3.066-0.34c0.109-0.013,0.204-0.081,0.25-0.181
			l1.274-2.778l1.274,2.778c0.046,0.1,0.141,0.168,0.25,0.181l3.066,0.34l-2.278,2.058c-0.082,0.074-0.118,0.185-0.097,0.292
			L233.501,16.401L233.501,16.401z"/>
	</g>
</g>
<g>
	<g>
		<path fill="#EB5689" d="M214.25,36.159c0.174,0.003,0.316-0.134,0.319-0.306c0-0.023-0.002-0.047-0.007-0.068l-0.724-3.489
			l2.658-2.399c0.129-0.116,0.139-0.313,0.021-0.439c-0.051-0.057-0.122-0.092-0.198-0.101l-3.575-0.397l-1.486-3.243
			c-0.07-0.157-0.257-0.228-0.416-0.158c-0.07,0.031-0.127,0.087-0.158,0.158l-1.486,3.243l-3.576,0.397
			c-0.173,0.019-0.297,0.173-0.278,0.343c0.009,0.076,0.044,0.146,0.102,0.197l2.658,2.399l-0.724,3.489
			c-0.035,0.168,0.074,0.332,0.244,0.367c0.074,0.016,0.151,0.004,0.217-0.033l3.131-1.761l3.129,1.761
			C214.147,36.145,214.199,36.158,214.25,36.159L214.25,36.159z M213.808,35.238l-2.682-1.508c-0.096-0.055-0.214-0.055-0.311,0
			l-2.682,1.508l0.621-2.99c0.022-0.107-0.015-0.219-0.097-0.292l-2.278-2.058l3.066-0.34c0.109-0.014,0.205-0.082,0.25-0.182
			l1.275-2.778l1.273,2.778c0.047,0.1,0.141,0.168,0.251,0.182l3.065,0.34l-2.277,2.058c-0.082,0.073-0.119,0.185-0.098,0.292
			L213.808,35.238L213.808,35.238z"/>
	</g>
</g>
<g>
	<g>
		<path fill="#EB5689" d="M255,36.159c0.174,0.003,0.316-0.134,0.318-0.306c0.001-0.023-0.001-0.047-0.006-0.068l-0.724-3.489
			l2.657-2.399c0.129-0.116,0.139-0.313,0.022-0.439c-0.052-0.057-0.122-0.092-0.198-0.101l-3.576-0.397l-1.486-3.243
			c-0.07-0.157-0.256-0.228-0.414-0.158c-0.071,0.031-0.128,0.087-0.16,0.158l-1.486,3.243l-3.576,0.397
			c-0.172,0.019-0.297,0.173-0.277,0.343c0.009,0.076,0.045,0.146,0.102,0.197l2.658,2.399l-0.724,3.489
			c-0.035,0.168,0.074,0.332,0.243,0.367c0.075,0.016,0.152,0.004,0.219-0.033l3.129-1.761l3.13,1.761
			C254.896,36.145,254.947,36.158,255,36.159L255,36.159z M254.558,35.238l-2.682-1.508c-0.098-0.055-0.215-0.055-0.311,0
			l-2.682,1.508l0.621-2.99c0.021-0.107-0.016-0.219-0.098-0.292l-2.277-2.058l3.065-0.34c0.109-0.014,0.204-0.082,0.25-0.182
			l1.274-2.778l1.275,2.778c0.045,0.1,0.141,0.168,0.25,0.182l3.065,0.34l-2.278,2.058c-0.082,0.073-0.118,0.185-0.096,0.292
			L254.558,35.238L254.558,35.238z"/>
	</g>
</g>
<g>
	<g>
		<path fill="#EB5689" d="M272.283,17.322c0.174,0.002,0.316-0.134,0.318-0.306c0.001-0.023-0.001-0.046-0.006-0.068l-0.724-3.489
			l2.657-2.4c0.129-0.116,0.139-0.312,0.022-0.439c-0.052-0.056-0.122-0.092-0.198-0.1l-3.576-0.397l-1.486-3.243
			c-0.07-0.157-0.256-0.228-0.414-0.158c-0.071,0.031-0.128,0.087-0.16,0.158l-1.486,3.243l-3.576,0.397
			c-0.172,0.019-0.297,0.172-0.277,0.343c0.009,0.076,0.045,0.145,0.102,0.196l2.658,2.4l-0.724,3.489
			c-0.035,0.168,0.074,0.333,0.243,0.368c0.075,0.016,0.152,0.003,0.219-0.034l3.129-1.76l3.13,1.76
			C272.179,17.308,272.23,17.321,272.283,17.322L272.283,17.322z M271.841,16.401l-2.682-1.508c-0.098-0.054-0.215-0.054-0.311,0
			l-2.682,1.508l0.621-2.99c0.021-0.107-0.016-0.218-0.098-0.292l-2.277-2.058l3.065-0.34c0.109-0.013,0.204-0.081,0.25-0.181
			l1.274-2.778l1.275,2.778c0.045,0.1,0.141,0.168,0.25,0.181l3.065,0.34l-2.278,2.058c-0.082,0.074-0.118,0.185-0.096,0.292
			L271.841,16.401L271.841,16.401z"/>
	</g>
</g>
<g>
	<path fill="#FFFFFF" d="M38.871,29.066c-1.169-0.644-2.086-1.537-2.751-2.678c-0.665-1.141-0.998-2.418-0.998-3.833
		c0-1.414,0.333-2.691,0.998-3.833c0.665-1.141,1.585-2.033,2.762-2.677c1.176-0.644,2.492-0.966,3.948-0.966
		c1.092,0,2.1,0.182,3.024,0.546c0.924,0.364,1.708,0.896,2.352,1.596l-0.987,0.987c-1.148-1.162-2.597-1.743-4.347-1.743
		c-1.162,0-2.219,0.266-3.171,0.798c-0.952,0.532-1.698,1.26-2.236,2.184c-0.539,0.924-0.809,1.96-0.809,3.108
		c0,1.148,0.27,2.184,0.809,3.108c0.539,0.924,1.284,1.652,2.236,2.185s2.009,0.798,3.171,0.798c1.764,0,3.213-0.588,4.347-1.764
		l0.987,0.987c-0.644,0.7-1.432,1.235-2.362,1.606c-0.931,0.371-1.942,0.557-3.035,0.557C41.353,30.032,40.04,29.71,38.871,29.066z"
		/>
	<path fill="#FFFFFF" d="M60.144,19.984c0.819,0.805,1.229,1.978,1.229,3.518v6.405h-1.491v-6.258c0-1.148-0.287-2.023-0.861-2.625
		c-0.574-0.602-1.394-0.903-2.457-0.903c-1.19,0-2.131,0.354-2.825,1.061c-0.693,0.707-1.04,1.684-1.04,2.93v5.796h-1.491V14.324
		h1.491v6.468c0.406-0.644,0.966-1.141,1.68-1.491c0.714-0.35,1.533-0.525,2.457-0.525C58.222,18.776,59.325,19.179,60.144,19.984z"
		/>
	<path fill="#FFFFFF" d="M72.607,19.858c0.77,0.721,1.155,1.789,1.155,3.202v6.846h-1.428v-1.722
		c-0.336,0.574-0.829,1.021-1.48,1.344c-0.651,0.322-1.424,0.483-2.32,0.483c-1.232,0-2.212-0.295-2.94-0.883
		c-0.728-0.588-1.092-1.365-1.092-2.331c0-0.938,0.339-1.694,1.019-2.268c0.679-0.574,1.761-0.861,3.245-0.861h3.507v-0.672
		c0-0.952-0.266-1.676-0.798-2.173c-0.532-0.497-1.309-0.746-2.331-0.746c-0.7,0-1.372,0.116-2.016,0.347s-1.197,0.549-1.659,0.956
		l-0.672-1.113c0.56-0.476,1.231-0.843,2.016-1.103c0.784-0.259,1.61-0.388,2.478-0.388C70.731,18.776,71.837,19.137,72.607,19.858z
		 M70.927,28.258c0.602-0.385,1.05-0.941,1.344-1.669v-1.806h-3.465c-1.89,0-2.835,0.658-2.835,1.974
		c0,0.644,0.245,1.152,0.735,1.522c0.49,0.371,1.176,0.557,2.058,0.557C69.604,28.835,70.325,28.643,70.927,28.258z"/>
	<path fill="#FFFFFF" d="M94.857,19.973c0.791,0.798,1.187,1.974,1.187,3.528v6.405h-1.491v-6.258c0-1.148-0.276-2.023-0.83-2.625
		s-1.333-0.903-2.341-0.903c-1.148,0-2.051,0.354-2.709,1.061c-0.658,0.707-0.987,1.684-0.987,2.93v5.796h-1.491v-6.258
		c0-1.148-0.277-2.023-0.83-2.625c-0.553-0.602-1.341-0.903-2.362-0.903c-1.134,0-2.034,0.354-2.699,1.061
		c-0.665,0.707-0.998,1.684-0.998,2.93v5.796h-1.491V18.86h1.428v2.016c0.392-0.672,0.938-1.19,1.638-1.554
		c0.7-0.364,1.505-0.546,2.415-0.546c0.924,0,1.725,0.196,2.404,0.588c0.679,0.392,1.187,0.973,1.522,1.743
		c0.406-0.728,0.99-1.298,1.754-1.712c0.763-0.413,1.634-0.619,2.614-0.619C92.978,18.776,94.066,19.175,94.857,19.973z"/>
	<path fill="#FFFFFF" d="M108.601,19.48c0.84,0.469,1.498,1.13,1.974,1.984c0.476,0.854,0.714,1.827,0.714,2.919
		c0,1.092-0.238,2.065-0.714,2.919c-0.476,0.854-1.134,1.519-1.974,1.995c-0.84,0.477-1.778,0.715-2.814,0.715
		c-0.924,0-1.753-0.196-2.488-0.589c-0.735-0.392-1.327-0.958-1.775-1.701v2.184h-1.428V14.324h1.491v6.636
		c0.462-0.714,1.053-1.256,1.775-1.628c0.721-0.371,1.529-0.556,2.425-0.556C106.823,18.776,107.761,19.011,108.601,19.48z
		 M107.782,28.152c0.63-0.356,1.124-0.864,1.48-1.522s0.535-1.407,0.535-2.247s-0.178-1.589-0.535-2.247
		c-0.357-0.658-0.851-1.166-1.48-1.522c-0.63-0.357-1.331-0.536-2.1-0.536c-0.784,0-1.488,0.179-2.11,0.536
		c-0.624,0.357-1.113,0.865-1.47,1.522c-0.357,0.658-0.536,1.407-0.536,2.247s0.179,1.589,0.536,2.247s0.847,1.166,1.47,1.522
		c0.623,0.357,1.326,0.536,2.11,0.536C106.452,28.688,107.152,28.51,107.782,28.152z"/>
	<path fill="#FFFFFF" d="M123.952,24.845h-9.24c0.084,1.148,0.525,2.076,1.323,2.783c0.798,0.707,1.806,1.061,3.024,1.061
		c0.686,0,1.315-0.123,1.89-0.368c0.574-0.244,1.071-0.605,1.491-1.081l0.84,0.966c-0.49,0.588-1.103,1.036-1.837,1.344
		c-0.735,0.309-1.543,0.463-2.425,0.463c-1.134,0-2.139-0.242-3.014-0.725c-0.875-0.483-1.558-1.151-2.047-2.006
		c-0.49-0.854-0.735-1.82-0.735-2.898s0.234-2.044,0.704-2.898c0.469-0.854,1.113-1.519,1.932-1.995
		c0.819-0.476,1.739-0.714,2.761-0.714s1.939,0.238,2.751,0.714c0.812,0.476,1.449,1.138,1.911,1.984
		c0.462,0.847,0.693,1.816,0.693,2.909L123.952,24.845z M115.94,21.076c-0.721,0.679-1.131,1.564-1.229,2.657h7.833
		c-0.098-1.092-0.508-1.978-1.229-2.657c-0.721-0.679-1.621-1.019-2.699-1.019C117.554,20.057,116.661,20.397,115.94,21.076z"/>
	<path fill="#FFFFFF" d="M130.01,19.343c0.693-0.378,1.551-0.567,2.573-0.567v1.449l-0.357-0.021c-1.162,0-2.072,0.357-2.73,1.071
		c-0.658,0.714-0.987,1.715-0.987,3.003v5.628h-1.491V18.86h1.428v2.163C128.795,20.281,129.317,19.721,130.01,19.343z"/>
	<path fill="#FFFFFF" d="M143.723,29.056c-1.183-0.651-2.107-1.543-2.772-2.677c-0.665-1.134-0.998-2.408-0.998-3.822
		c0-1.414,0.333-2.688,0.998-3.822c0.665-1.134,1.589-2.027,2.772-2.678s2.502-0.977,3.958-0.977s2.769,0.322,3.938,0.966
		s2.09,1.537,2.762,2.677c0.672,1.141,1.008,2.419,1.008,3.833c0,1.415-0.336,2.692-1.008,3.833
		c-0.672,1.141-1.593,2.034-2.762,2.678s-2.481,0.966-3.938,0.966S144.906,29.707,143.723,29.056z M150.832,27.858
		c0.938-0.524,1.672-1.252,2.205-2.184s0.798-1.97,0.798-3.119c0-1.147-0.266-2.187-0.798-3.118s-1.267-1.659-2.205-2.184
		c-0.938-0.525-1.988-0.788-3.15-0.788s-2.215,0.262-3.16,0.788c-0.945,0.525-1.688,1.253-2.226,2.184
		c-0.539,0.931-0.809,1.971-0.809,3.118c0,1.148,0.27,2.188,0.809,3.119c0.539,0.931,1.281,1.659,2.226,2.184
		c0.945,0.525,1.998,0.788,3.16,0.788S149.893,28.384,150.832,27.858z"/>
	<path fill="#FFFFFF" d="M160.753,16.004c-0.329,0.35-0.494,0.868-0.494,1.554v1.302h3.402v1.26h-3.36v9.786h-1.491V20.12h-1.974
		v-1.26h1.974v-1.365c0-1.008,0.291-1.806,0.872-2.394c0.581-0.588,1.403-0.882,2.467-0.882c0.42,0,0.826,0.06,1.218,0.179
		s0.722,0.291,0.987,0.514l-0.504,1.113c-0.435-0.364-0.98-0.546-1.638-0.546C161.569,15.479,161.083,15.654,160.753,16.004z"/>
	<path fill="#FFFFFF" d="M174.351,16.55h-5.166v-1.344h11.886v1.344h-5.166v13.356h-1.554V16.55z"/>
	<path fill="#FFFFFF" d="M192.169,19.984c0.819,0.805,1.229,1.978,1.229,3.518v6.405h-1.491v-6.258c0-1.148-0.287-2.023-0.861-2.625
		s-1.393-0.903-2.457-0.903c-1.189,0-2.131,0.354-2.824,1.061c-0.693,0.707-1.039,1.684-1.039,2.93v5.796h-1.491V14.324h1.491v6.468
		c0.405-0.644,0.966-1.141,1.68-1.491c0.714-0.35,1.533-0.525,2.457-0.525C190.248,18.776,191.35,19.179,192.169,19.984z"/>
	<path fill="#FFFFFF" d="M207.111,24.845h-9.24c0.084,1.148,0.525,2.076,1.323,2.783s1.806,1.061,3.023,1.061
		c0.687,0,1.316-0.123,1.891-0.368c0.573-0.244,1.07-0.605,1.49-1.081l0.841,0.966c-0.49,0.588-1.103,1.036-1.838,1.344
		c-0.735,0.309-1.544,0.463-2.426,0.463c-1.134,0-2.139-0.242-3.014-0.725c-0.875-0.483-1.558-1.151-2.047-2.006
		c-0.49-0.854-0.735-1.82-0.735-2.898s0.234-2.044,0.704-2.898c0.469-0.854,1.112-1.519,1.932-1.995
		c0.819-0.476,1.739-0.714,2.762-0.714c1.021,0,1.938,0.238,2.751,0.714c0.812,0.476,1.449,1.138,1.911,1.984
		c0.462,0.847,0.692,1.816,0.692,2.909L207.111,24.845z M199.099,21.076c-0.722,0.679-1.131,1.564-1.229,2.657h7.833
		c-0.099-1.092-0.508-1.978-1.229-2.657c-0.722-0.679-1.621-1.019-2.698-1.019C200.712,20.057,199.82,20.397,199.099,21.076z"/>
	<path fill="#FFFFFF" d="M236.174,15.206l-4.956,14.7h-1.638l-4.306-12.537l-4.326,12.537h-1.616l-4.956-14.7h1.596l4.242,12.643
		l4.389-12.643h1.449l4.326,12.705l4.305-12.705H236.174z"/>
	<path fill="#FFFFFF" d="M247.472,24.845h-9.24c0.084,1.148,0.525,2.076,1.323,2.783s1.806,1.061,3.023,1.061
		c0.687,0,1.316-0.123,1.891-0.368c0.573-0.244,1.07-0.605,1.49-1.081l0.841,0.966c-0.49,0.588-1.103,1.036-1.838,1.344
		c-0.735,0.309-1.544,0.463-2.426,0.463c-1.134,0-2.139-0.242-3.014-0.725c-0.875-0.483-1.558-1.151-2.047-2.006
		c-0.49-0.854-0.735-1.82-0.735-2.898s0.234-2.044,0.704-2.898c0.469-0.854,1.112-1.519,1.932-1.995
		c0.819-0.476,1.739-0.714,2.762-0.714c1.021,0,1.938,0.238,2.751,0.714c0.812,0.476,1.449,1.138,1.911,1.984
		c0.462,0.847,0.692,1.816,0.692,2.909L247.472,24.845z M239.46,21.076c-0.722,0.679-1.131,1.564-1.229,2.657h7.833
		c-0.099-1.092-0.508-1.978-1.229-2.657c-0.722-0.679-1.621-1.019-2.698-1.019C241.074,20.057,240.181,20.397,239.46,21.076z"/>
	<path fill="#FFFFFF" d="M260.156,24.845h-9.24c0.084,1.148,0.525,2.076,1.323,2.783s1.806,1.061,3.023,1.061
		c0.687,0,1.316-0.123,1.891-0.368c0.573-0.244,1.07-0.605,1.49-1.081l0.841,0.966c-0.49,0.588-1.103,1.036-1.838,1.344
		c-0.735,0.309-1.544,0.463-2.426,0.463c-1.134,0-2.139-0.242-3.014-0.725c-0.875-0.483-1.558-1.151-2.047-2.006
		c-0.49-0.854-0.735-1.82-0.735-2.898s0.234-2.044,0.704-2.898c0.469-0.854,1.112-1.519,1.932-1.995
		c0.819-0.476,1.739-0.714,2.762-0.714c1.021,0,1.938,0.238,2.751,0.714c0.812,0.476,1.449,1.138,1.911,1.984
		c0.462,0.847,0.692,1.816,0.692,2.909L260.156,24.845z M252.144,21.076c-0.722,0.679-1.131,1.564-1.229,2.657h7.833
		c-0.099-1.092-0.508-1.978-1.229-2.657c-0.722-0.679-1.621-1.019-2.698-1.019C253.757,20.057,252.865,20.397,252.144,21.076z"/>
	<path fill="#FFFFFF" d="M267.316,24.362l-2.604,2.394v3.15h-1.491V14.324h1.491v10.563l6.594-6.027h1.848l-4.725,4.515l5.166,6.531
		h-1.827L267.316,24.362z"/>
</g>
</svg>
