<?xml version="1.0" encoding="utf-8"?>
<!-- Generator: Adobe Illustrator 15.0.0, SVG Export Plug-In . SVG Version: 6.00 Build 0)  -->
<!DOCTYPE svg PUBLIC "-//W3C//DTD SVG 1.1//EN" "http://www.w3.org/Graphics/SVG/1.1/DTD/svg11.dtd">
<svg version="1.1" id="Layer_1" xmlns="http://www.w3.org/2000/svg" xmlns:xlink="http://www.w3.org/1999/xlink" x="0px" y="0px"
	 width="1193.416px" height="1059.671px" viewBox="0 0 1193.416 1059.671" enable-background="new 0 0 1193.416 1059.671"
	 xml:space="preserve">
<path fill="#E8E9EA" d="M711.59,837.451V403.146l23.753-17.232l-6.256-8.907l-2.329,1.666l-15.168-20.679v-127.14h-19.714v19.139
	h-85.559c-2.396-4.491-7.127-7.553-12.56-7.553c-4.105,0-8.014,1.771-10.717,4.865l3.072,2.688h-124.92
	c-2.397-4.491-7.126-7.553-12.56-7.553c-4.107,0-8.012,1.771-10.718,4.865l3.072,2.688h-87.319
	c-2.398-4.491-7.125-7.553-12.562-7.553c-4.107,0-8.013,1.771-10.716,4.865l3.073,2.688h-19.731
	c-2.396-4.491-7.126-7.553-12.562-7.553c-4.104,0-8.01,1.771-10.714,4.865l3.072,2.688h-90.6c-2.396-4.491-7.126-7.553-12.56-7.553
	c-4.106,0-8.015,1.771-10.717,4.865l3.072,2.688h-7.977v-19.139h-19.715v73.783c-0.764,0.334-1.553,0.68-2.364,1.043
	c0.039,0.098,0.085,0.207,0.127,0.309c-18.896,8.441-49.336,23.353-49.336,23.353L67.299,378.66l-2.305-1.653l-6.257,8.907
	l38.671,28.054l6.445-9.101l-1.589-1.135l19.807-19.637c0,0,6.711,19.692,6.928,50.203c0.216,30.519-10.171,85.045-10.171,85.045
	c8.145,4.644,22.189,7.256,36.207,8.735v309.373H136.08h-17.44v15.168v28.057h17.44v-28.057h592.192v28.057h17.438v-28.057v-15.168
	h-17.438H711.59z M691.875,331.111l-1.295-1.769c0,0-42.847-20.99-58.427-27.261c-0.057,0.279-0.135,0.537-0.196,0.81l-0.588-0.008
	c-0.422,1.764-1.025,3.375-1.755,4.869l-31.438-14.894V273.76c0.35-3.992,1.911-5.109,4.065-6.654
	c0.34-0.244,0.697-0.502,1.062-0.781h88.572V331.111L691.875,331.111z M301.777,266.326c-1.113,1.672-1.988,3.904-2.243,7.064
	l-0.01,19.469l-28.736,13.603c-0.466-1.287-0.688-2.06-0.688-2.06l-17.274,8.465c-9.371-4.389-18.47-8.535-24.059-10.785
	c-0.057,0.279-0.134,0.537-0.198,0.81l-0.585-0.008c-0.424,1.764-1.025,3.375-1.756,4.869l-31.441-14.894v-19.098
	c0.352-3.992,1.914-5.109,4.065-6.654c0.34-0.244,0.699-0.502,1.063-0.781H301.777L301.777,266.326z M341.712,266.326
	c-1.114,1.672-1.988,3.904-2.244,7.064l-0.011,19.469l-16.938,8.021l-16.93-8.021v-19.098c0.35-3.992,1.911-5.109,4.064-6.654
	c0.34-0.244,0.699-0.502,1.063-0.781H341.712z M449.237,266.326c-1.114,1.672-1.988,3.904-2.244,7.064l-0.008,19.469l-28.738,13.603
	c-0.464-1.287-0.686-2.06-0.686-2.06l-18.953,9.283c-6.438-3.055-14.117-6.514-21.279-9.283c-0.149,0.726-0.456,1.795-0.924,3.086
	l-30.881-14.629v-19.098c0.35-3.992,1.913-5.109,4.065-6.654c0.341-0.244,0.699-0.502,1.063-0.781H449.237z M594.364,266.326
	c-1.115,1.672-1.987,3.904-2.244,7.064l-0.009,19.469l-25.987,12.303c-0.331-0.979-0.625-2-0.843-3.08
	c-0.153,0.064-0.326,0.13-0.482,0.199c-0.015-0.072-0.035-0.131-0.048-0.199h-0.313c-2.3,0.933-5.162,2.166-8.375,3.599
	c0.038,0.098,0.083,0.207,0.124,0.309c-10.838,4.844-25.46,11.81-35.973,16.873c0.522-1.143,0.849-1.779,0.849-1.779
	s-19.525-10.239-36.208-16.682c-0.149,0.726-0.457,1.795-0.924,3.086l-30.88-14.629v-19.098c0.351-3.992,1.912-5.109,4.064-6.654
	c0.342-0.244,0.698-0.502,1.063-0.781H594.364z M302.557,298.136l12.88,6.098l-4.716,2.228c-0.465-1.287-0.687-2.06-0.687-2.06
	l-32.161,15.756c-1.978-2.797-3.54-5.619-4.728-8.096L302.557,298.136z M342.491,298.136l31.471,14.899
	c-1.029,1.992-2.3,4.131-3.834,6.267c-6.349-3.217-20.323-10.104-32.733-14.899c-0.15,0.726-0.456,1.795-0.923,3.086l-6.864-3.254
	L342.491,298.136z M450.017,298.136l31.471,14.899c-4.729,9.166-14.592,21.507-31.471,21.507c-15.993,0-25.126-13.552-29.412-22.48
	L450.017,298.136z M598.157,324.47c0,0-0.431-0.011-1.183-0.072c0.143-2.025,0.485-4.066,1.155-5.957
	c0.362,1.062,1.04,3.269,1.488,5.932C598.698,324.453,598.157,324.47,598.157,324.47 M334.027,313.035
	c-2.269,4.398-5.721,9.519-10.563,13.668c-4.855-4.52-8.233-10.157-10.385-14.641l9.444-4.475L334.027,313.035z M194.769,324.47
	c0,0-0.431-0.011-1.182-0.072c0.143-2.025,0.484-4.066,1.156-5.957c0.361,1.062,1.041,3.269,1.488,5.932
	C195.309,324.453,194.769,324.47,194.769,324.47 M601.125,324.215c-0.478-2.877-1.212-5.252-1.595-6.361
	c-0.188-0.553-0.522-1.301-1.247-1.406c-0.326-0.037-0.81,0.029-1.271,0.668l-0.089,0.168c-0.868,2.211-1.309,4.607-1.483,6.966
	c-1.118-0.132-2.529-0.326-4.13-0.632c-6.909-1.397-16.954-4.793-22.503-13.018l26.333-12.465l31.072,14.713
	C618.895,321.174,606.711,323.554,601.125,324.215 M191.754,298.136l31.071,14.713c-7.319,8.326-19.504,10.705-25.089,11.367
	c-0.476-2.877-1.211-5.252-1.595-6.361c-0.188-0.553-0.522-1.301-1.246-1.406c-0.328-0.037-0.812,0.029-1.271,0.668l-0.089,0.168
	c-0.866,2.211-1.308,4.607-1.482,6.966c-1.12-0.132-2.531-0.326-4.132-0.632c-3.857-0.782-8.686-2.186-13.172-4.702v-12.73
	L191.754,298.136z M593.759,248.502c1.739,0,3.347,0.557,4.675,1.491h-9.356C590.438,249.041,592.066,248.502,593.759,248.502
	 M448.634,248.502c1.741,0,3.347,0.557,4.674,1.491h-9.359C445.313,249.041,446.941,248.502,448.634,248.502 M341.108,248.502
	c1.741,0,3.349,0.557,4.674,1.491h-9.356C337.787,249.041,339.415,248.502,341.108,248.502 M301.172,248.502
	c1.743,0,3.349,0.557,4.677,1.491h-9.359C297.851,249.041,299.48,248.502,301.172,248.502 M190.372,248.502
	c1.739,0,3.348,0.557,4.674,1.491h-9.358C187.049,249.041,188.679,248.502,190.372,248.502 M190.976,266.326
	c-1.114,1.672-1.989,3.904-2.244,7.064l-0.01,19.469l-13.971,6.615v-33.148H190.976L190.976,266.326z M174.75,529.521
	c9.137,0.418,16.756,0.461,20.578,0.461c5.381,0,22.116-2.271,38.567-4.714c-10.932,56.979-28.963,148.59-33.87,175.887
	c84.671,21.162,175.282,11.938,208.075,0c0,0-0.864-4.297-2.282-11.363c16.873-2.311,30.61-5.445,39.803-8.791
	c0,0-3.758-17.154-8.382-38.561c33.869,1.943,71.646-0.164,104.074-12.455c-5.388-27.039-10.701-53.861-12.67-64.363
	c-3.465-18.477-11.977-57.375-15.596-80.498h2.654v-21.983h-3.844c1.451-14.325,5.729-39.305,10.151-75.333
	c-0.049-0.051-0.087-0.105-0.134-0.16l3.584-3.553c0,0,6.712,19.692,6.927,50.203c0.217,30.519-10.172,85.045-10.172,85.045
	c18.012,10.258,64.854,10.64,76.502,10.64c11.646,0,76.502-10.64,76.502-10.64s-10.389-54.526-10.173-85.045
	c0.217-30.511,6.925-50.203,6.925-50.203l19.824,19.651l-1.568,1.121l1.649,2.33v430.253H174.75V529.521z"/>
<path fill="#E8E9EA" d="M1133.993,291.829h-44.78c3.268-0.094,5.891-2.76,5.891-6.051v-57.541c0-1.759-0.76-3.324-1.95-4.435
	c-0.54-0.496-1.162-0.906-1.854-1.19c-0.078-0.029-0.16-0.047-0.235-0.072c-0.275-0.096-0.554-0.193-0.847-0.252
	c-0.379-0.076-0.776-0.119-1.181-0.119h-6.274h-4.893c-1.279-16.168-11.034-47.248-28.108-47.248
	c-16.712,0-25.596,28.717-26.589,47.248h-4.58h-8.545c-0.377,0-0.746,0.043-1.105,0.109c-0.18,0.035-0.35,0.094-0.522,0.141
	c-0.154,0.045-0.312,0.088-0.464,0.144c-0.23,0.084-0.448,0.186-0.666,0.299c-0.064,0.037-0.134,0.073-0.196,0.106
	c-0.25,0.142-0.486,0.295-0.715,0.469l-0.007,0.003v0.004c-1.44,1.106-2.392,2.83-2.392,4.793v57.541
	c0,3.291,2.626,5.957,5.893,6.051h-71.146c11.627,0.404,12.383-6.553,12.383-6.553s8.09-117.195,8.596-122.757
	c0.507-5.557-0.758-8.594-6.064-8.594h-28.113c-0.658-9.764-5.85-69.178-34.304-69.178c-2.084,0-4.035,0.326-5.875,0.924
	c-2.535-1.131-5.291-1.754-8.294-1.754c-27.754,0-34.396,52.91-35.817,70.008h-23.074c-5.308,0-6.568,3.037-6.063,8.594
	c0.506,5.562,8.594,122.757,8.594,122.757s0.756,6.957,12.384,6.553h-72.289c3.354,0,6.067-2.719,6.067-6.068v-49.295v-33.401
	c0-3.351-2.715-6.068-6.067-6.068h-30.178v-10.051c0-9.211-7.47-16.679-16.681-16.679h-29.633c-9.214,0-16.681,7.468-16.681,16.679
	v10.051h-31.547c-3.351,0-6.066,2.717-6.066,6.068v31.471v51.225c0,3.349,2.717,6.068,6.066,6.068h-64.438
	c-0.838,0-1.519,0.674-1.519,1.514v25.629c0,0.84,0.681,1.519,1.519,1.519h266.668v24.666h93.966v-24.666h201.73
	c0.837,0,1.517-0.679,1.517-1.519v-25.629C1135.509,292.503,1134.83,291.829,1133.993,291.829 M1049.76,179.47
	c12.534,0,22.279,26.629,23.563,42.699h-1.556h-42.181h-1.851C1028.755,205.499,1036.934,179.47,1049.76,179.47 M678.053,186.778
	c0-3.351,2.717-6.068,6.069-6.068h30.312c3.348,0,6.064,2.717,6.064,6.068v10.219h-42.445V186.778z M884.439,95.71
	c12.35,9.387,18.072,41.211,19.753,58.215h-38.257C866.886,139.339,871.911,105.089,884.439,95.71 M916.971,153.925h-3.628
	c-1.111-12.307-5.07-43.305-17.612-59.608C909.979,100.983,915.841,138.452,916.971,153.925 M874.733,93.292
	c-13.993,16.789-16.889,53.113-17.344,60.633h-7.011C852.122,134.769,858.869,96.718,874.733,93.292"/>
<path fill="#F4F4F4" d="M1126.993,461.198h-61.498c8.089-0.231,12.947-1.123,13.834-4.067c1.443-4.823,5.523-18.336,7.873-21.894
	c0.115-0.179,0.232-0.354,0.341-0.481c2.274-2.648,3.788-10.866-4.931-12.888c-7.567-1.754-13.035-2.084-16.992-3.379
	c-0.602-0.198-1.174-0.414-1.707-0.666c-1.899,4.045-8.596,3.414-12.135,1.267c-3.541-2.147-16.934-23.127-24.645-32.604
	c-3.586-4.41-7.38-8.447-10.615-11.601c-3.719-3.625-6.691-6.067-7.707-6.472c0,0-13.51,3.33-12.133,21.734
	c0.756,10.112,8.846,14.53,9.729,27.807c0.885,13.265,1.771,43.243,1.771,43.243H847.831c0,0-0.016-2.817-0.03-6.517
	c-0.021-6.007-0.039-14.345,0.037-16.683c0.104-3.168-0.734-11.408,4.909-9.707c0.313,0.313,0.632,0.623,0.935,0.935
	c8.404,8.651,15.957,30.698,37.391,31.427c21.437,0.73,35.687-4.06,36.021-9.06c0.332-5-9.351-11.768-22.869-13.595
	c-0.408,0.604-0.818,1.166-1.23,1.709c-2.475-0.474-6.223-1.132-11.68-1.949c-6.195-0.933-14.033-7.426-20.086-13.387
	c-12.805-15.422-29.359-35.697-29.359-35.697c-3.367,1.443-11.705,7.891-12.03,22.359c-0.818,1.353-1.138,3.375-0.025,6.385
	c2.543,6.881,10.82,22.563,12.057,37.263c0.187,2.207,0.224,4.39,0.047,6.517H714.05c18.34-2.313,35.428-5.614,37.729-6.769
	c2.701-1.354,1.383-6.334,1.119-9.854c-0.094-1.286-0.68-1.762-1.451-1.834c-2.42-7.991-12.625-6.399-22.692-6.346
	c-0.468,0.004-0.931,0.008-1.394,0c-11.018-0.123-27.295-14.899-40.442-26.17c-18.28,17.781-52.467,6.39-52.467,6.39
	c-1.039,1.614-1.877,3.568-2.549,5.708c-3.086,9.793-2.737,23.578-2.535,27.953c-1.192,1.728-0.2,6.972-0.127,9.028
	c0.027,0.698,0.24,1.33,0.564,1.892h-65.178c-0.841,0-1.521,0.681-1.521,1.521v25.625c0,0.839,0.68,1.514,1.521,1.514h562.363
	c0.837,0,1.517-0.675,1.517-1.514v-25.625C1128.509,461.878,1127.829,461.198,1126.993,461.198 M1012.222,461.198
	c0,0-1.769-49.817,6.951-49.944c8.34,9.278,15.141,17.895,17.479,23.733c0.18,0.442,0.344,0.877,0.465,1.291
	c1.769,5.812,6.195,17.868,6.318,24.92H1012.222z"/>
<path fill="#E8E9EA" d="M1188.168,713.949h-21.814V567.535h-50.559v146.414H878.264c4.659-1.477,8.039-5.832,8.039-10.979
	c0-5.764-4.244-10.523-9.774-11.365c5.53-0.84,9.774-5.6,9.774-11.361c0-5.771-4.244-10.533-9.774-11.367
	c5.53-0.84,9.774-5.605,9.774-11.367c0-5.764-4.244-10.527-9.774-11.369c5.53-0.838,9.774-5.602,9.774-11.365
	c0-6.359-5.155-11.514-11.51-11.514h-28.862l-3.827-13.191l-59.231-0.52l0.146,0.072l-0.599-0.072l-4.446,13.711h-29.086
	c-6.358,0-11.512,5.154-11.512,11.514c0,5.764,4.243,10.527,9.772,11.365c-5.529,0.842-9.772,5.605-9.772,11.369
	c0,5.762,4.243,10.527,9.772,11.367c-5.529,0.834-9.772,5.598-9.772,11.367c0,5.764,4.243,10.521,9.772,11.361
	c-5.529,0.842-9.772,5.604-9.772,11.365c0,5.146,3.378,9.502,8.038,10.979H689.35c-0.839,0-1.52,0.678-1.52,1.514v25.629
	c0,0.84,0.681,1.52,1.52,1.52h498.818c0.838,0,1.518-0.68,1.518-1.52v-25.629C1189.686,714.625,1189.006,713.949,1188.168,713.949"
	/>
<path fill="#E8E9EA" d="M733.797,708.474c0,3.244,2.629,5.871,5.869,5.871h117.473c3.243,0,5.872-2.627,5.872-5.871
	c0-2.756-1.907-5.057-4.47-5.688c2.563-0.627,4.47-2.928,4.47-5.686s-1.907-5.059-4.47-5.686c2.563-0.635,4.47-2.934,4.47-5.689
	c0-2.76-1.907-5.055-4.47-5.688c2.563-0.627,4.47-2.928,4.47-5.688c0-2.756-1.907-5.057-4.47-5.688
	c2.563-0.629,4.47-2.93,4.47-5.686c0-3.244-2.629-5.871-5.872-5.871h-29.897l-1.95-5.107h-51.813l-2.369,5.107h-31.44
	c-3.241,0-5.87,2.627-5.87,5.873c0,2.754,1.908,5.057,4.47,5.684c-2.562,0.631-4.47,2.932-4.47,5.688
	c0,2.762,1.908,5.061,4.47,5.689c-2.562,0.633-4.47,2.928-4.47,5.688c0,2.756,1.908,5.055,4.47,5.689
	c-2.562,0.627-4.47,2.928-4.47,5.686c0,2.756,1.908,5.057,4.47,5.686C735.706,703.417,733.797,705.718,733.797,708.474"/>
<polygon fill="#E8E9EA" points="1029.082,940.826 1032.813,940.826 1032.813,993.775 1180.4,993.775 1180.4,940.826 
	1185.375,940.826 1185.375,919.574 1029.082,919.574 "/>
<path fill="#E8E9EA" d="M918.879,722.955c-19.125,2.789-18.594,24.199-18.594,24.199l16.527,2.4v38.508h-3.732v21.258h3.732v52.949
	H1064.4V809.32h4.974v-21.258h-4.974v-46.355l9.497,1.186l2.635-21.092l-155.09-19.361L918.879,722.955z M1014.968,735.537
	l-17.302-2.158l-0.015-0.006l17.322,2.164H1014.968z"/>
<polygon fill="#E8E9EA" points="1029.082,864.113 1032.813,864.113 1032.813,919.503 1180.4,919.503 1180.4,864.113 
	1185.375,864.113 1185.375,842.853 1029.082,842.853 "/>
<path fill="#EFA68E" d="M977.636,247.108c0,0,11.919-0.689,12.873-2.703c0.636,2.543,0.529,9.642-8.794,11.125
	C972.39,257.014,977.212,249.228,977.636,247.108"/>
<path fill="#2A3842" d="M491.731,463.921c0,0-27.605,55.738-35.797,69.985c-8.19,14.248,34.967,92.813,93.894,118.266
	c58.926,25.455,140.262-85.859,131.132-162.995C671.829,412.042,523.269,443.595,491.731,463.921"/>
<path fill="#AED0DB" d="M640.553,138.853c0,0,20.912-0.396,45.928,5.748c25.014,6.143,53.311,23.775,63.973,70.936
	c10.662,47.16,32.808,98.828,32.808,98.828l104.713-30.754v34.035c0,0-73.547,31.166-86.671,36.908
	c-13.122,5.74-52.902,14.764-66.025-19.273c0,0-23.371,78.325-31.981,102.107c-8.612,23.785-22.556,60.41-22.556,60.41
	l-198.888-19.812c0,0,35.677-123.842,36.496-155.008s-2.87-83.246-2.87-83.246l-96.779,20.504c0,0-4.92,6.971-18.453,9.431
	c-13.531,2.461-39.777-7.382-39.777-7.382s-7.381-35.266,13.532-50.028c20.914-14.763,183.717-100.881,183.717-100.881
	l15.582,21.325l-12.304,16.49C560.995,149.19,579.864,133.111,640.553,138.853"/>
<path fill="#82B7C8" d="M648.461,151.194c0,0,6.214,10.521,7.341,21.693c3.377-8.339,0.67-33.106-5.858-38.361
	C643.416,129.272,647.875,143.846,648.461,151.194"/>
<path fill="#EFA68E" d="M661.714,19.405c0,0,16.413,18.035,20.467,27.154c4.054,9.119,19.251,25.33,20.67,26.547
	c1.419,1.215-3.647,3.85-6.89,4.457c-3.243,0.61-4.054,1.824-4.66,1.824c-0.608,0-0.204,6.686,1.417,10.334
	c1.622,3.649,5.269,18.645,6.281,22.901c1.015,4.254,2.635,6.482-3.851,7.496c-6.483,1.014-40.327,11.957-47.014,27.764
	c-13.981,4.66-45.595-4.053-48.229-11.551s-1.216-7.701,0-13.78c1.216-6.08,0.153-30.414-1.063-37.304
	c-1.216-6.891-6.64-71.719,62.464-66.653"/>
<g>
	<g>
		<defs>
			<path id="SVGID_1_" d="M598.397,70.858c-0.44,7.139,0.139,12.637,0.448,14.389c0.186,1.052,0.366,2.514,0.538,4.252
				c0.946,9.646,1.555,27.9,0.523,33.052c-1.216,6.079-2.635,6.281,0,13.78c2.634,7.498,34.248,16.211,48.229,11.551
				c6.151-14.543,35.276-24.963,44.944-27.327c-12.465-0.8-30.91,1.229-38.865,1.387c-7.87,0.158-12.93-10.445-16.313-20.22
				c-0.972-2.809-1.809-5.55-2.532-7.945c-3.244-10.741-21.887-19.863-22.695-20.063c0,0-4.825-3.495-10.379-3.495
				C601.017,70.218,599.701,70.403,598.397,70.858"/>
		</defs>
		<clipPath id="SVGID_2_">
			<use xlink:href="#SVGID_1_"  overflow="visible"/>
		</clipPath>
		<defs>
			<filter id="Adobe_OpacityMaskFilter" filterUnits="userSpaceOnUse" x="562.096" y="29.279" width="166.162" height="164.202">
				<feColorMatrix  type="matrix" values="1 0 0 0 0  0 1 0 0 0  0 0 1 0 0  0 0 0 1 0"/>
			</filter>
		</defs>
		<mask maskUnits="userSpaceOnUse" x="562.096" y="29.279" width="166.162" height="164.202" id="SVGID_3_">
			<g filter="url(#Adobe_OpacityMaskFilter)">
				<g>
					<defs>
						<path id="SVGID_4_" d="M598.397,70.858c-0.44,7.139,0.139,12.637,0.448,14.389c0.186,1.052,0.366,2.514,0.538,4.252
							c0.946,9.646,1.555,27.9,0.523,33.052c-1.216,6.079-2.635,6.281,0,13.78c2.634,7.498,34.248,16.211,48.229,11.551
							c6.151-14.543,35.276-24.963,44.944-27.327c-12.465-0.8-30.91,1.229-38.865,1.387c-7.87,0.158-12.93-10.445-16.313-20.22
							c-0.972-2.809-1.809-5.55-2.532-7.945c-3.244-10.741-21.887-19.863-22.695-20.063c0,0-4.825-3.495-10.379-3.495
							C601.017,70.218,599.701,70.403,598.397,70.858"/>
					</defs>
					<clipPath id="SVGID_5_" clip-path="url(#SVGID_2_)">
						<use xlink:href="#SVGID_4_"  overflow="visible"/>
					</clipPath>
					
						<linearGradient id="SVGID_6_" gradientUnits="userSpaceOnUse" x1="-347.2581" y1="-423.5845" x2="-346.2581" y2="-423.5845" gradientTransform="matrix(-52.4909 -29.5259 29.5259 -52.4909 -5028.3789 -32349.2539)">
						<stop  offset="0" style="stop-color:#FFFFFF"/>
						<stop  offset="1" style="stop-color:#000000"/>
					</linearGradient>
					<polygon clip-path="url(#SVGID_5_)" fill="url(#SVGID_6_)" points="670.054,193.481 562.096,132.755 620.301,29.279 
						728.258,90.005 					"/>
				</g>
			</g>
		</mask>
		
			<linearGradient id="SVGID_7_" gradientUnits="userSpaceOnUse" x1="-347.259" y1="-423.5864" x2="-346.259" y2="-423.5864" gradientTransform="matrix(-52.4909 -29.5259 29.5259 -52.4909 -5028.3789 -32349.3789)">
			<stop  offset="0" style="stop-color:#A56456"/>
			<stop  offset="1" style="stop-color:#A56456"/>
		</linearGradient>
		<polygon clip-path="url(#SVGID_2_)" mask="url(#SVGID_3_)" fill="url(#SVGID_7_)" points="670.054,193.481 562.096,132.755 
			620.301,29.279 728.258,90.005 		"/>
	</g>
</g>
<path fill="#393B56" d="M599.299,93.776c0,0-2.836-27.154-4.458-38.301c-1.622-11.144-4.661-19.25,3.646-23.912
	c8.31-4.66,36.679-21.478,45.393-24.723c8.715-3.242,29.79-5.877,22.898,17.834c-7.7-3.851-23.101,1.012-26.546,3.444
	c-3.446,2.431-2.838,6.08-0.204,10.943c2.636,4.863,18.849,26.344,7.498,40.529c-7.294-12.16-16.21-14.388-20.264-11.753
	C623.21,70.471,626.25,87.899,599.299,93.776"/>
<path fill="#A56456" d="M665.159,58.312l12.97-8.105C680.559,56.287,679.952,61.756,665.159,58.312"/>
<path fill="#82B7C8" d="M648.136,147.882c10.999,0.139-31.779,25.006-31.779,25.006s-9.842-15.992-26.244-36.906
	c3.999-7.381,6.099-8.959,8.911-9.768C599.024,126.214,627.614,147.622,648.136,147.882"/>
<path fill="#82B7C8" d="M646.432,153.149c0,0,13.395,51.033-3.214,151.437c-16.608,100.407-41.646,169.346-38.661,185.624
	c4.214-4.022,23.283-96.905,30.05-117.819c6.765-20.914,15.403-73.32,16.929-96.941C653.06,251.828,658.871,168.881,646.432,153.149
	"/>
<path fill="#82B7C8" d="M454.677,232.759c0,0,78.229-61.953,106.318-83.568c-47.567,43.105-70.342,61.377-106.318,86.211"/>
<path fill="#82B7C8" d="M679.215,235.401c0,0,30.397,7.467,45.813,0C721.337,244.628,697.362,245.858,679.215,235.401"/>
<path fill="#82B7C8" d="M679.173,235.401c0,0,0.788,42.248,2.111,47.549c1.323,5.301,19.875,7.42,25.706,5.301
	c-19.611-2.651-20.333-0.938-22.357-11.866C682.609,265.458,679.173,235.401,679.173,235.401"/>
<path fill="#82B7C8" d="M663.724,196.647c0,2.402-1.447,4.35-3.232,4.35c-1.786,0-3.23-1.948-3.23-4.35
	c0-2.404,1.444-4.352,3.23-4.352C662.277,192.295,663.724,194.244,663.724,196.647"/>
<path fill="#82B7C8" d="M663.724,254.839c0,2.402-1.447,4.352-3.232,4.352c-1.786,0-3.23-1.95-3.23-4.352
	c0-2.404,1.444-4.352,3.23-4.352C662.277,250.487,663.724,252.435,663.724,254.839"/>
<path fill="#82B7C8" d="M663.41,301.626c-1.031,2.168-3.176,3.307-4.788,2.539c-1.611-0.768-2.081-3.148-1.049-5.318
	c1.032-2.168,3.175-3.307,4.788-2.539C663.972,297.073,664.443,299.456,663.41,301.626"/>
<path fill="#82B7C8" d="M648.573,373.05c-1.039,2.168-3.188,3.299-4.796,2.525c-1.61-0.771-2.07-3.154-1.03-5.32
	c1.038-2.166,3.187-3.299,4.795-2.525C649.152,368.503,649.613,370.884,648.573,373.05"/>
<path fill="#82B7C8" d="M632.329,444.497c-0.771,2.275-2.769,3.656-4.458,3.084c-1.689-0.574-2.436-2.883-1.664-5.158
	c0.771-2.278,2.769-3.658,4.459-3.084C632.357,439.911,633.1,442.222,632.329,444.497"/>
<polyline fill="#114472" points="595.354,83.751 623.588,89.812 625.899,115.063 621.817,116.425 591.725,98.733 594.748,83.751 "/>
<path fill="#3E6481" d="M625.899,115.063l-2.311-25.252l-28.234-6.06h-0.605l-0.291,1.443l24.325,7.037
	c0,0,2.009,17.223,2.919,24.127l0.115,0.066L625.899,115.063z"/>
<path fill="#EFA68E" d="M559.064,120.054c0,0,8.315-22.984,9.525-26.916c1.21-3.932,6.351-6.955,9.677-7.105
	c3.327-0.153,13.157-6.352,13.913-7.258c0.756-0.909,22.832,5.42,25.855,4.826c3.024-0.594-3.706,8.305-9.791,7.408
	c-6.086-0.894-14.252-1.045-14.252-1.045l15.728,7.561c0,0-4.552,2.345-7.107,1.845c-2.557-0.502-14.667-4.115-16.482-4.568
	c-1.813-0.453-2.872,0-0.604,5.443c2.27,5.444,7.41,8.467,9.375,7.561c1.966-0.906,8.922-3.93,11.039-2.268
	c2.117,1.664,4.536,2.873,4.536,2.873s-20.413,8.77-25.252,11.643c-4.84,2.873-13.459,7.785-20.717,6.16
	C557.25,124.591,557.713,123.796,559.064,120.054"/>
<path fill="#AED0DB" d="M557.717,111.376l14.104,19.303c0,0-4.938,14.705-14.104,5.388
	C548.551,126.753,555.703,111.733,557.717,111.376"/>
<path fill="#82B7C8" d="M564.992,136.853c-1.521,1.861-3.874,2.455-5.257,1.324c-1.383-1.129-1.268-3.553,0.252-5.414
	c1.522-1.861,3.873-2.455,5.256-1.324C566.627,132.568,566.514,134.992,564.992,136.853"/>
<polygon fill="#82B7C8" points="544.824,125.269 560.996,147.246 558.263,149.552 "/>
<polygon fill="#134574" points="873.579,220.149 975.434,204.158 996.602,342.558 894.493,357.937 "/>
<polygon fill="#FAFDFF" points="883.729,228.761 970.153,217.382 987.991,331.486 902.724,343.73 "/>
<path fill="#EFA68E" d="M985.441,254.839c0,0-0.255,2.92-2.795,3.049c-2.54,0.127-19.941,1.522-19.941,1.522
	s-2.288,3.557-2.415,3.938c-0.125,0.381,12.575,1.525,12.575,1.525s2.539,4.192,0,4.826c-2.539,0.635-17.4,0-17.4,0
	s4.19,11.307,9.652,13.465c5.461,2.16,27.438,1.651,27.438,1.651l2.668-6.096c0,0-0.889-10.672-1.145-13.973
	c-0.255-3.303-3.175-8.765-4.316-9.146C988.616,255.22,985.441,254.839,985.441,254.839"/>
<path fill="#85B6CC" d="M566.213,146.108c0,0,9.799,87.182-10.803,161.504c-20.601,74.324-45.396,182.447-59.188,201.646
	c-13.793,19.202,2.824,67.277,2.824,67.277l117.166,106.379c0,0,103.978-297.779,112.824-326.906
	c8.849-29.129,9.477-71.976-10.338-131.382c-9.187-27.543-21.656-71.696-25.617-80.711c-11.192-0.383-13.866-0.95-13.866-0.95
	s21.955,86.239-7.029,115.969c-28.983,29.729-63.052-23.396-74.378-54.603c-11.325-31.209-17.593-63.024-17.593-63.024
	L566.213,146.108z"/>
<path fill="#6896A9" d="M662.498,405.888c0,0,25.311,16.691,41.57,11.313C699.198,425.863,679.116,418.636,662.498,405.888"/>
<path fill="#6896A9" d="M663.306,405.901c0,0-14.523,39.682-15.203,45.104c-0.681,5.419-0.681,5.419,5.494-4.915
	C659.296,436.551,663.306,405.901,663.306,405.901"/>
<path fill="#6896A9" d="M572.7,371.401c0,0,30.437,22.924,51.263,21.957C615.41,401.914,587.995,391.799,572.7,371.401"/>
<path fill="#6896A9" d="M572.654,371.382c0,0-19.366,47.65-20.425,54.215c-1.061,6.566,18.682,17.83,26.223,18.252
	c-20.675-12.364-22.302-10.795-19.328-23.991C562.093,406.659,572.654,371.382,572.654,371.382"/>
<path fill="#85B6CC" d="M550.264,327.513c0,0-26.352-5.209-36.188-11.58c-10.542,19.82-4.537,22.697-4.537,22.697
	s23.957,21.533,34.813,14.637C555.205,346.37,563.726,336.966,550.264,327.513"/>
<path fill="#85B6CC" d="M951.037,343.382c0,1.842-1.494,3.336-3.338,3.336c-1.843,0-3.337-1.494-3.337-3.336
	c0-1.844,1.494-3.338,3.337-3.338C949.543,340.044,951.037,341.538,951.037,343.382"/>
<path fill="#82B7C8" d="M660.491,404.231c0,0,19.902,13.256,43.577,5.893"/>
<path fill="#F1A890" d="M52.702,307.329c-14.378-6.494-5.664-19.285-2.854-25.1c2.81-5.814,10.37,1.93,10.37,1.93
	s5.16,9.504,2.095,14.932C59.249,304.516,55.569,308.622,52.702,307.329"/>
<path fill="#F1A890" d="M27.96,280.479c0,0-10.593-1.217-11.635,0.52c-1.042,1.736,6.946,3.82,10.42,3.126
	C30.218,283.431,30.598,280.717,27.96,280.479"/>
<path fill="#F1A890" d="M31.742,275.069c0,0-10.594-1.217-11.636,0.52c-1.042,1.736,6.947,3.82,10.42,3.126
	C34,278.021,34.378,275.307,31.742,275.069"/>
<path fill="#F1A890" d="M27.961,286.671c0,0-10.593-1.215-11.635,0.521c-1.042,1.737,6.945,3.821,10.42,3.125
	C30.219,289.622,30.598,286.911,27.961,286.671"/>
<polygon fill="#2A3842" points="5.613,320.579 35.377,260.266 59.38,271.788 28.854,332.218 "/>
<path fill="#2A3842" d="M148.67,195.938c0,36.413-29.518,65.928-65.929,65.928s-65.929-29.515-65.929-65.928
	c0-36.412,29.518-65.927,65.929-65.927C119.154,130.011,148.67,159.526,148.67,195.938 M82.742,138.331
	c-31.815,0-57.607,25.791-57.607,57.607c0,31.817,25.792,57.608,57.607,57.608s57.607-25.791,57.607-57.608
	C140.35,164.122,114.558,138.331,82.742,138.331"/>
<path fill="#D5E1DF" d="M94.584,153.694c9.287,0,18.024,2.344,25.661,6.467c-9.442-9.896-22.747-16.069-37.503-16.069
	c-28.635,0-51.847,23.213-51.847,51.846c0,14.756,6.174,28.061,16.068,37.502c-4.123-7.635-6.467-16.373-6.467-25.66
	C40.497,177.91,64.713,153.694,94.584,153.694"/>
<path fill="#2A3842" d="M64.051,257.581c-8.137,1.246-4.997,11.268-4.997,11.268l-21.277-10.342c0,0,9.921-3.442,6.081-10.721
	L64.051,257.581z"/>
<path fill="#F1A890" d="M57.837,297.161c0,0-4.479-9.564-1.699-18.422c-7.12-9.029-7.814-14.414-3.994-18.756
	c-0.347,2.258,5.905,7.815,7.468,8.858c1.563,1.041,3.301,10.593,6.773,14.066c3.473,3.475,4.864,14.416,9.552,18.758
	c4.689,4.342-5.384,15.629-11.81,12.851c-6.425-2.779-11.425-7.187-11.425-7.187L57.837,297.161z"/>
<path fill="#2A3842" d="M340.704,311.362c0,0-134.923,40.365-156.498,45.041c-23.375-21.217-108.947-59.242-108.947-59.242
	c-5.754,6.832-12.946,17.621-12.946,17.621s60.414,52.142,80.193,71.922c19.779,19.779,11.493,17.527,40.263,17.527
	s171.534-18.34,171.534-18.34S365.586,321.341,340.704,311.362"/>
<path fill="#AED0DB" d="M345.203,301.358c0,0-10.121,11.188-8.05,28.35c2.072,17.162,0,81.963,66.281,125.164
	s94.004,112.235,109.391,122.887c15.388,10.654,92.115,22.691,108.096,13.521c15.978-9.174,97.94-108.692,5.62-156.035
	c-92.318-47.344-125.065-103.367-149.525-125.067c-24.461-21.699-81.273-38.267-104.155-31.168
	C349.977,286.112,345.203,301.358,345.203,301.358"/>
<path fill="#2A3842" d="M390.811,276.446c-6.67,1.061,2.565,39.65,6.905,57.799c4.339,18.147,34.718,88.767,96.659,112.836
	c61.94,24.066,192.136,52.74,241.451,136.836c24.857-34.656,36.691-83.969,33.93-102.512c-26.04-18.148-57.995-27.224-79.694-30.773
	c-21.699-3.551-57.603-50.5-66.28-57.602c-8.682-7.102-121.122-116.78-160.97-119.938
	C422.964,269.937,396.532,275.537,390.811,276.446"/>
<path fill="#374A56" d="M774.562,475.843c-19.778-13.787-45.214-15.896-65.813-17.672c18.421,5.035,39.431,13.266,57.575,25.912
	c2.492,16.74-6.916,58.555-27.056,92.028c0.457,0.748,0.92,1.488,1.365,2.244C765.49,543.699,777.323,494.386,774.562,475.843"/>
<g>
	<g>
		<defs>
			<polygon id="SVGID_8_" points="557.951,550.666 590.024,648.501 741.854,598.228 709,500.271 			"/>
		</defs>
		<clipPath id="SVGID_9_">
			<use xlink:href="#SVGID_8_"  overflow="visible"/>
		</clipPath>
		
			<linearGradient id="SVGID_10_" gradientUnits="userSpaceOnUse" x1="-352.886" y1="-424.1069" x2="-351.886" y2="-424.1069" gradientTransform="matrix(183.9028 0 0 183.9028 65454.6914 78568.9063)">
			<stop  offset="0" style="stop-color:#D3E3E7"/>
			<stop  offset="1" style="stop-color:#FBFBF6"/>
		</linearGradient>
		<rect x="557.951" y="500.271" clip-path="url(#SVGID_9_)" fill="url(#SVGID_10_)" width="183.902" height="148.23"/>
	</g>
</g>
<polygon fill="#1C315F" points="584.452,640.699 594.094,636.917 595.098,640.699 585.764,644.324 "/>
<polygon fill="#1C315F" points="581.497,630.302 591.141,626.519 592.143,630.302 582.809,633.925 "/>
<polygon fill="#1C315F" points="578.543,619.906 588.186,616.125 589.189,619.906 579.854,623.531 "/>
<polygon fill="#1C315F" points="575.588,609.507 585.231,605.726 586.233,609.507 576.899,613.13 "/>
<polygon fill="#1C315F" points="571.717,599.72 581.36,595.941 582.362,599.72 573.028,603.345 "/>
<polygon fill="#1C315F" points="568.661,589.173 578.305,585.392 579.307,589.173 569.974,592.798 "/>
<polygon fill="#1C315F" points="565.479,578.988 575.122,575.208 576.125,578.988 566.791,582.613 "/>
<polygon fill="#1C315F" points="561.988,568.611 571.631,564.832 572.633,568.611 563.3,572.236 "/>
<polygon fill="#1C315F" points="559.028,558.218 568.671,554.437 569.673,558.218 560.34,561.841 "/>
<path fill="#EFA68E" d="M667.461,572.587c0,0,0.508,13.455-7.108,19.041c-7.617,5.586-18.026,17.01-18.026,17.01
	s0.509,6.098,7.87,2.285c7.364-3.807,12.95-8.697,12.95-8.697s0.253,15.557-1.016,18.348c-1.271,2.793-7.232,7.361-7.232,7.361
	c4.691,3.557,9.529,4.063,12.57,0c3.293,1.777,7.102,2.285,9.895-2.283c2.54-0.256,6.349-0.512,8.38-6.857
	c2.03-6.344,2.284-27.408,0-29.953c-2.285-2.543-1.523-14.732-1.777-17.27C683.712,569.033,668.396,564.132,667.461,572.587"/>
<path fill="#2A3842" d="M454.922,273.399c13.832,0.787,172.803,22.971,187.006,24.154c14.203,1.184,61.94,1.578,60.362,48.528
	c-1.577,46.949-14.598,231.194-14.598,231.194h-24.065l-9.47-219.753l-92.319-0.394L454.922,273.399z"/>
<path fill="#374A56" d="M393.138,280.331c0,0,17.517,8.398,26.396,22.797c8.879,14.397,16.079,23.998,25.917,27.356
	c-4.799,20.159-15.357,27.838-15.357,27.838c13.919,3.119,27.837-1.681,27.837-1.681s15.599,59.752,48.954,88.548
	C469.448,427.194,408.977,386.638,393.138,280.331"/>
<path fill="#EFA68E" d="M337.406,181.634l-40.483,36.529c0,0-4.743,3.149-1.391,5.319c3.354,2.17,8.385,4.34,8.385,4.34
	l-15.387,31.957c0,0-3.156,3.945,2.762,7.791c5.918,3.847,51.781,42.609,51.781,42.609s16.964,8.482,26.434,0
	c9.469-8.482,24.066-28.406,20.516-33.732c-3.551-5.327-7.694-9.272-4.34-17.952c3.353-8.679,15.584-40.438,15.584-40.438
	s3.748-8.483-0.789-13.414c-4.537-4.932-43.596-36.297-43.596-36.297s-11.332-7.768-18.74,1.184
	C333.406,175.251,337.406,181.634,337.406,181.634"/>
<path fill="#393B56" d="M364.356,197.083c-2.343,5.051-10.008,7.457-15.217,21.391c-5.213,13.929-7.391,21.539-15.314,24.617
	c-7.924,3.076-22.49,3.959-27.315,0.547c6.211-7.58-1.395-15.721-5.263-16.645c-5.073,5.143-7.274,10.822-7.013,13.615
	c4.358,0.155,3.498,3.858,1.349,4.942c-2.154,1.09-7.813,5.813-8.902,12.31c-1.085,6.498-5.378,9.635,0.181,13.139
	c5.564,3.504,36.966,8.766,44.317,5.66c7.355-3.103,16.44-12.648,17.147-21.408c-2.128-6.4-4.303-7.24-1.979-14.223
	c2.322-6.976,11.981-15.531,18.87-12.476c6.888,3.054,18.084-1.436,17.154-14.487C381.864,206.952,364.356,197.083,364.356,197.083"
	/>
<g>
	<g>
		<defs>
			<path id="SVGID_12_" d="M352.739,253.168c-2.761,1.581-7.89,11.245-14.992,19.53c-7.102,8.285-29.787,0.395-36.69-2.959
				c-4.117-1.998-8.362-3.011-11.421-3.467c0.453,0.43,0.99,0.865,1.656,1.297c5.918,3.848,51.78,42.61,51.78,42.61
				s16.965,8.481,26.435,0c9.469-8.483,24.065-28.407,20.516-33.733c-3.52-5.279-7.613-9.209-4.415-17.735
				c-3.638-2.208-9.152-5.968-11.958-8.107c-2.523-1.921-4.156-4.647-4.968-7.289C363.506,251.926,355.255,251.731,352.739,253.168"
				/>
		</defs>
		<clipPath id="SVGID_13_">
			<use xlink:href="#SVGID_12_"  overflow="visible"/>
		</clipPath>
		<defs>
			<filter id="Adobe_OpacityMaskFilter_1_" filterUnits="userSpaceOnUse" x="258.857" y="200.858" width="165.493" height="160.26">
				<feColorMatrix  type="matrix" values="1 0 0 0 0  0 1 0 0 0  0 0 1 0 0  0 0 0 1 0"/>
			</filter>
		</defs>
		<mask maskUnits="userSpaceOnUse" x="258.857" y="200.858" width="165.493" height="160.26" id="SVGID_11_">
			<g filter="url(#Adobe_OpacityMaskFilter_1_)">
				<g>
					<defs>
						<path id="SVGID_14_" d="M352.739,253.168c-2.761,1.581-7.89,11.245-14.992,19.53c-7.102,8.285-29.787,0.395-36.69-2.959
							c-4.117-1.998-8.362-3.011-11.421-3.467c0.453,0.43,0.99,0.865,1.656,1.297c5.918,3.848,51.78,42.61,51.78,42.61
							s16.965,8.481,26.435,0c9.469-8.483,24.065-28.407,20.516-33.733c-3.52-5.279-7.613-9.209-4.415-17.735
							c-3.638-2.208-9.152-5.968-11.958-8.107c-2.523-1.921-4.156-4.647-4.968-7.289
							C363.506,251.926,355.255,251.731,352.739,253.168"/>
					</defs>
					<clipPath id="SVGID_15_" clip-path="url(#SVGID_13_)">
						<use xlink:href="#SVGID_14_"  overflow="visible"/>
					</clipPath>
					
						<linearGradient id="SVGID_17_" gradientUnits="userSpaceOnUse" x1="-350.3621" y1="-426.0698" x2="-349.3621" y2="-426.0698" gradientTransform="matrix(18.8823 -36.44 36.44 18.8823 22468.9492 -4413.459)">
						<stop  offset="0" style="stop-color:#FFFFFF"/>
						<stop  offset="1" style="stop-color:#000000"/>
					</linearGradient>
					<polygon clip-path="url(#SVGID_15_)" fill="url(#SVGID_17_)" points="258.857,302.712 311.635,200.858 424.35,259.264 
						371.571,361.118 					"/>
				</g>
			</g>
		</mask>
		
			<linearGradient id="SVGID_18_" gradientUnits="userSpaceOnUse" x1="-350.3606" y1="-426.0708" x2="-349.3607" y2="-426.0708" gradientTransform="matrix(18.8823 -36.44 36.44 18.8823 22468.9805 -4413.4277)">
			<stop  offset="0" style="stop-color:#A56456"/>
			<stop  offset="1" style="stop-color:#A56456"/>
		</linearGradient>
		<polygon clip-path="url(#SVGID_13_)" mask="url(#SVGID_11_)" fill="url(#SVGID_18_)" points="258.857,302.712 311.635,200.858 
			424.35,259.264 371.571,361.118 		"/>
	</g>
</g>
<path fill="#393B56" d="M401.266,218.056c0,0,3.748-8.482-0.789-13.414s-43.596-36.297-43.596-36.297s-11.332-7.768-18.74,1.184
	c-4.733,5.722-0.735,12.105-0.735,12.105l-0.411,0.371c2.43,0.53,5.6,1.209,8.209,1.727c4.972,0.988,15.623,3.158,16.215,8.484
	c0.593,5.326-6.114,13.807-10.061,18.147c-3.946,4.341-13.611,18.147-7.101,26.63c5.918-9.468,14.991-10.455,19.528-8.087
	c4.537,2.367,4.734,6.115,4.34,9.666c-0.153,1.388,0.035,3.048,0.556,4.744c0.504-0.838,0.979-1.756,1.418-2.77
	c-0.438,1.014-0.914,1.932-1.418,2.77c0.812,2.64,2.444,5.367,4.968,7.289c2.806,2.139,8.32,5.897,11.958,8.106
	c0.028-0.072,0.046-0.142,0.075-0.217C389.035,249.816,401.266,218.056,401.266,218.056"/>
<path fill="#82B7C8" d="M340.704,311.362c0,0,26.435-14.992,33.337-21.502c6.905-6.51,16.967-13.498,16.967-13.498
	s4.34,25.928-17.163,49.992C364.573,324.184,340.704,311.362,340.704,311.362"/>
<path fill="#A56456" d="M321.174,205.163l9.372,10.605l-10.021-1.964C320.526,213.804,318.028,208.022,321.174,205.163"/>
<path fill="none" stroke="#265D7F" stroke-width="6" stroke-miterlimit="10" d="M734.859,1054.373V830.945
	c0,0-6.962-29.24-33.417-29.24H437.588c-26.455,0-33.416,20.885-33.416,45.252v207.416"/>
<path fill="#215C82" d="M559.625,679.835c0,15.914-12.9,28.814-28.814,28.814H406.097c-15.914,0-28.814-12.9-28.814-28.814
	s12.901-28.813,28.814-28.813H530.81C546.725,651.023,559.625,663.921,559.625,679.835"/>
<line fill="none" stroke="#265D7F" stroke-width="6" stroke-miterlimit="10" x1="406.755" y1="705.431" x2="406.755" y2="824.621"/>
<path fill="#124573" d="M1065.844,567.373c0,0,32.188,85.354,34.772,91.965c2.588,6.609,10.636,35.789-25.864,35.789h-49.815v-7.912
	h54.127c12.646,0,17.265-9.516,14.005-25.342c-3.658-17.754-34.697-92.777-34.697-92.777L1065.844,567.373z"/>
<path fill="#235E84" d="M1072.166,560.906c0,6.107-4.953,11.063-11.064,11.063c-6.11,0-11.064-4.955-11.064-11.063
	c0-6.111,4.954-11.066,11.064-11.066S1072.166,554.794,1072.166,560.906"/>
<path fill="#124573" d="M1018.135,647.841l6.802,1.148c0,0,21.938-24.715,38.607-91.68c16.669-66.962,5.181-93.977,5.181-93.977
	h-5.181L1018.135,647.841z"/>
<path fill="#174575" d="M1104.454,704.652c0,2.209-1.791,4-4,4H907.349c-2.21,0-4-1.791-4-4v-5.523c0-2.209,1.79-4,4-4h193.104
	c2.209,0,4,1.791,4,4L1104.454,704.652L1104.454,704.652z"/>
<path fill="#072439" d="M565.607,966.382l-12.565,1.592v15.43h6.282c0,0-0.237,5.885-1.67,8.271
	c-1.432,2.385-3.817,9.861-3.182,16.064c0.637,6.203,0.796,17.02,0.796,17.02s2.598,0.396,4.135-1.332
	c0.592-0.666,0.298-1.418,0.717-2.963c1.511-5.566,3.42-20.359,6.76-23.381c3.34-3.023,8.589-10.34,8.589-10.34
	s-3.817-7.316-2.863-11.771C573.559,970.519,569.902,964.953,565.607,966.382"/>
<path fill="#072439" d="M827.866,1031.96v22.41h15.188v-9.09c0,0,4.231-0.746,7.345,1.744s10.085,6.723,20.418,6.598
	s18.425,0,18.425,0s2.614-3.484-0.125-4.979c-2.738-1.494-16.931-3.113-21.91-5.479s-17.305-10.83-19.048-17.055
	c-1.743-6.229-16.56-4.234-19.547-1.744S827.119,1027.23,827.866,1031.96"/>
<path fill="#242E33" d="M613.666,787.138c0,0,108.801,16.779,118.545,17.32c-73.076,68.748-168.887,162.391-168.887,162.391
	l14.074,18.404l230.594-150.482c0,0,35.187-67.66-21.65-82.275S652.097,770.359,613.666,787.138"/>
<path fill="#EFA68E" d="M973.291,662.083c0,0,3.862,2.281,24.127-2.322c20.263-4.604,22.06-6.18,30.01,2.049
	c7.951,8.225,20.263,17.201,20.263,17.201s-2.565,3.334-9.747,0.516c-7.182-2.822-12.055-6.156-20.519-4.361
	c-8.464,1.797-23.341,5.494-23.341,5.494s5.128,4.145,7.692,6.252c2.566,2.104,8.465,6.209,3.592,7.492
	c-4.873,1.281-9.232-3.334-12.567-4.617s-21.803-9.48-30.011-12.182C954.582,674.91,967.313,658.314,973.291,662.083"/>
<path fill="#0D3D60" d="M805.5,511.056c0,0,8.146,1.197,8.263,17.957c0.115,16.762,2.809,128.098,2.809,128.098L974,661.599
	l-3.892,20.354c0,0-116.127,8.381-129.894,10.475c-13.769,2.096-55.069,9.877-64.049-25.439s-17.13-79.572-17.13-79.572
	S798.054,501.025,805.5,511.056"/>
<path fill="#124573" d="M798.657,484.323c-2.062-3.504-7.827-23.269-29.571-31.888c-22.83-9.049-74.899-0.868-121.446,16.026
	c-46.547,16.896-126.193,95.506-134.813,109.297c-8.619,13.793-32.065,39.309-77.233,76.891c-2.352,1.953-4.305,3.859-5.932,5.725
	c-0.005,0.002-0.012,0.002-0.018,0.004c0,0-38.173,41.057-10.199,50.391c16.756,5.59,48.11,6.154,74.289,0.41
	c3.119,0.344,5.662,0.467,7.369,0.361c16.551-1.035,92.75-1.379,109.645-1.725c16.896-0.348,22.757-27.238,39.65-41.375
	c16.896-14.137,107.574-65.855,113.781-74.82c6.206-8.965,25.999-8.039,48.205-75.507
	C816.048,506.975,798.657,484.323,798.657,484.323"/>
<path fill="#EFA68E" d="M894.419,674.763c0,0,15.902,5.387,22.314,2.055c6.412-3.334,30.523-11.803,30.523-11.803
	s33.346,21.805,34.884,22.063c1.538,0.256-4.619,3.848-8.979,2.82c-4.359-1.025-14.364-5.898-20.265-3.078
	c-5.896,2.82-30.008,11.48-36.677,11.895c-6.669,0.416-13.339-1.637-21.804-8.818C885.952,682.716,887.356,672.839,894.419,674.763"
	/>
<path fill="#124573" d="M645.916,541.558c0,0,24.479,0,28.963,22.412c4.481,22.41,25.857,73.092,27.583,80.336
	c1.725,7.238,16.204,23.787,44.477,25.857c28.274,2.068,139.982,20.883,155.498,27.09c3.447-13.791,7.935-19.85,7.935-19.85
	s-35.099-13.445-58.406-17.584c-23.31-4.137-61.926-17.928-95.37-25.514c-2.759-18.275-24.135-128.985-26.549-136.038
	c-2.414-7.051-11.033-16.016-13.104-17.395"/>
<path fill="#1C527F" d="M696.069,626.554c-7.18-18.834-18.128-47.344-21.189-62.652c-4.482-22.412-28.964-22.412-28.964-22.412
	c-9.074-1.484,19.99,4.035,24.474,26.445c2.065,10.332,10.788,24.883,16.343,40.24C693.224,626.128,699.397,635.289,696.069,626.554
	"/>
<path fill="#1C527F" d="M723.475,489.177c1.812,1.703,10.688,10.345,13.103,17.396c1.072,3.134,5.63,30.689,10.361,60.337
	c2.799,17.535,6.917,48.064,3.095,30.943c-4.255-19.055-16.53-87.248-17.544-89.61c-6.214-14.486-23.927-28.66-25.996-30.039
	C706.493,478.204,719.725,485.652,723.475,489.177"/>
<path fill="#1C527F" d="M784.51,450.083h-24.245c0,0,17.959,43.432,34.572,59.881c16.611,16.449,17.549,7.121,17.96,0
	C813.207,502.843,799.777,467.145,784.51,450.083"/>
<path fill="#EFA68E" d="M776.021,450.595c2.25-0.037,4.823-0.684,6.912-2.848c4.83-5.002,18.628-28.115,22.77-36.395
	c4.142-8.278,21.563-38.121,52.438-29.324c30.877,8.796,32.081,24.495,32.427,30.877c0.346,6.38,6.038,50.192,6.383,51.571
	c0.345,1.382-0.345,4.141-3.278,3.104c-2.931-1.033-9.313-3.277-9.313-3.277s-10.637,37.523-13.452,42.263
	c-1.85,3.11-15.091-0.862-19.509-2.739c-2.628-1.119-35.517-1.574-47.417-0.541c-21.564-35.877-27.429-50.367-27.429-50.367
	L776.021,450.595z"/>
<g>
	<g>
		<defs>
			<path id="SVGID_19_" d="M805.844,410.916c-4.144,8.279-17.94,31.392-22.771,36.396c-2.089,2.164-4.662,2.813-6.912,2.849
				l0.529,2.326c0,0,5.864,14.489,27.429,50.367c11.9-1.035,44.788-0.578,47.417,0.539c2.987,1.27,10.004,3.493,14.812,3.842
				c-6.085-3.953-15.003-7.928-30.004-14.694c-22.14-9.983-13.238-20.835-11.285-29.517c1.954-8.682,2.17-15.41-2.169-24.31
				c-4.344-8.897,2.169-18.013,2.169-18.013s5.938-20.055-6.359-27.768C811.918,399.713,807.635,407.333,805.844,410.916"/>
		</defs>
		<clipPath id="SVGID_20_">
			<use xlink:href="#SVGID_19_"  overflow="visible"/>
		</clipPath>
		<defs>
			
				<filter id="Adobe_OpacityMaskFilter_2_" filterUnits="userSpaceOnUse" x="719.099" y="347.909" width="204.311" height="204.346">
				<feColorMatrix  type="matrix" values="1 0 0 0 0  0 1 0 0 0  0 0 1 0 0  0 0 0 1 0"/>
			</filter>
		</defs>
		<mask maskUnits="userSpaceOnUse" x="719.099" y="347.909" width="204.311" height="204.346" id="SVGID_16_">
			<g filter="url(#Adobe_OpacityMaskFilter_2_)">
				<g>
					<defs>
						<path id="SVGID_21_" d="M805.844,410.916c-4.144,8.279-17.94,31.392-22.771,36.396c-2.089,2.164-4.662,2.813-6.912,2.849
							l0.529,2.326c0,0,5.864,14.489,27.429,50.367c11.9-1.035,44.788-0.578,47.417,0.539c2.987,1.27,10.004,3.493,14.812,3.842
							c-6.085-3.953-15.003-7.928-30.004-14.694c-22.14-9.983-13.238-20.835-11.285-29.517c1.954-8.682,2.17-15.41-2.169-24.31
							c-4.344-8.897,2.169-18.013,2.169-18.013s5.938-20.055-6.359-27.768C811.918,399.713,807.635,407.333,805.844,410.916"/>
					</defs>
					<clipPath id="SVGID_22_" clip-path="url(#SVGID_20_)">
						<use xlink:href="#SVGID_21_"  overflow="visible"/>
					</clipPath>
					
						<linearGradient id="SVGID_23_" gradientUnits="userSpaceOnUse" x1="-348.0945" y1="-424.8306" x2="-347.0945" y2="-424.8306" gradientTransform="matrix(-49.3334 -46.6669 46.6669 -49.3334 3527.916 -36701.8945)">
						<stop  offset="0" style="stop-color:#FFFFFF"/>
						<stop  offset="1" style="stop-color:#000000"/>
					</linearGradient>
					<polygon clip-path="url(#SVGID_22_)" fill="url(#SVGID_23_)" points="823.757,552.255 719.099,453.255 818.75,347.909 
						923.409,446.91 					"/>
				</g>
			</g>
		</mask>
		
			<linearGradient id="SVGID_24_" gradientUnits="userSpaceOnUse" x1="-348.0959" y1="-424.8296" x2="-347.0959" y2="-424.8296" gradientTransform="matrix(-49.3334 -46.6669 46.6669 -49.3334 3527.8535 -36701.832)">
			<stop  offset="0" style="stop-color:#A56456"/>
			<stop  offset="1" style="stop-color:#A56456"/>
		</linearGradient>
		<polygon clip-path="url(#SVGID_20_)" mask="url(#SVGID_16_)" fill="url(#SVGID_24_)" points="823.757,552.255 719.099,453.255 
			818.75,347.909 923.409,446.911 		"/>
	</g>
</g>
<path fill="#393B56" d="M792.937,433.085c5.865,0.863,18.286,2.588,25.185-3.967c6.898-6.554,15.522-12.418,21.218-2.414
	c5.69,10.004,2.588,16.041,2.068,16.213c1.379,1.381,2.242,2.76,2.242,2.76s7.762-5.191,9.661-12.168
	c1.896-6.979,4.136-24.916,3.448-31.987c-0.69-7.073,3.968-10.522,8.452-8.972c4.482,1.553,20.525,5.52,23.457,11.559
	c10.179-5.693,9.661-21.734-5.52-26.218c-15.179-4.485-54.853-3.106-59.51-2.762c-4.657,0.346-9.313,0.346-12.766,10.006
	C807.426,394.792,792.937,433.085,792.937,433.085"/>
<path fill="#2A3842" d="M849.673,744.375c-2.706-35.184-36.782-35.725-36.782-35.725H491.332c-0.894,0-4.59,0.531-9.772,1.682
	c-24.454-0.635-51.652-1.273-61.981-1.273c-13.173,30.291,18.165,61.301,18.165,61.301c38.975,46.012,113.673,26.521,139.114,27.605
	c25.44,1.082,172.134-15.156,201.286-21.109c-4.95,5.951,15.235,102.307,21.189,123.955c5.953,21.652,27.605,130.455,27.605,130.455
	h22.734C849.673,1031.265,852.379,779.562,849.673,744.375"/>
<path fill="#A56456" d="M881.142,435.858c0,0,0.11,1.606-2.64,3.926c-2.75,2.317-6.188-0.849-6.188-0.849l-2.743-8.588
	C869.573,430.349,878.696,435.731,881.142,435.858"/>
<polygon fill="#C3DFEE" points="1062.395,457.872 1068.725,460.173 1021.009,651.58 1015.261,651.58 "/>
<path fill="#393B56" d="M857.241,395.456c-1.69,5.836,2.89,13.311-2.813,28.512c-5.696,15.201-9.36,23.025-5.046,31.238
	c4.313,8.213,15.67,19.383,22.086,20.037c0.325-10.693,12.418-11.939,16.267-9.926c0.486,7.868-1.773,14.12-3.993,16.23
	c-3.694-2.996-5.644,0.666-4.651,3.104s2.261,10.383-1.499,16.508c-3.768,6.127-2.482,11.789-9.569,10.686
	c-7.091-1.105-36.705-19.289-40.529-27.116c-3.827-7.827-4.46-22.196,1.238-29.911c6.341-3.742,8.734-2.875,11.825-10.285
	c3.093-7.406,1.273-21.373-6.582-23.797c-7.86-2.423-13.854-14.146-3.731-24.218C835.759,391.024,857.241,395.456,857.241,395.456"
	/>
<path fill="#393B56" d="M635.823,32.431c1.219,5.781,8.568,10.105,10.629,25.764c2.064,15.654,2.5,24.047,9.961,29.123
	c7.461,5.076,22.319,9.47,28.127,7.097c-4.614-9.33,5.198-15.931,9.424-15.964c4.02,6.531,4.938,12.933,4,15.761
	c-4.543-0.883-4.542,3.153-2.575,4.791c1.968,1.639,6.692,7.879,6.266,14.858c-0.429,6.984,3.263,11.256-3.326,13.55
	c-6.593,2.295-40.334,0.235-47.195-4.732c-6.87-4.969-13.987-17.016-12.623-26.246c3.729-6.111,6.182-6.463,5.444-14.238
	c-0.732-7.774-8.686-18.93-16.539-17.416c-7.855,1.515-18.364-5.807-14.284-19.086C615.353,38.454,635.823,32.431,635.823,32.431"/>
<polygon fill="#174575" points="915.161,711.212 1189.936,711.212 1189.483,1056.199 994.14,1056.199 915.161,731.539 "/>
<polygon fill="#174575" points="989.99,741.875 870.35,741.875 870.35,786.25 1018.375,786.25 "/>
<path fill="#CC3366" d="M340.704,311.362l-3.086,15.079c6.482,6.326,8.237,9.419,8.237,9.419s6.482,43.981,15.278,71.76
	c8.796,27.774,58.72,127.844,123.226,199.45c9.173,2.07,42.609,5.326,42.609,5.326l-4.734-44.68c0,0-86.078-73.827-118.035-125.016
	c-31.957-51.191-52.077-108.596-52.077-108.596c2.663-2.662,7.763-13.046,7.763-13.046s-9.542-6.606-16.345-8.809"/>
</svg>
