<?xml version="1.0" encoding="utf-8"?>
<!-- Generator: Adobe Illustrator 15.0.0, SVG Export Plug-In . SVG Version: 6.00 Build 0)  -->
<!DOCTYPE svg PUBLIC "-//W3C//DTD SVG 1.1//EN" "http://www.w3.org/Graphics/SVG/1.1/DTD/svg11.dtd">
<svg version="1.1" id="Layer_1" xmlns="http://www.w3.org/2000/svg" xmlns:xlink="http://www.w3.org/1999/xlink" x="0px" y="0px"
	 width="178.148px" height="576.667px" viewBox="0 0 178.148 576.667" enable-background="new 0 0 178.148 576.667"
	 xml:space="preserve">
<path fill="#BCBCBB" d="M53.25,411.675H37.978c-2.429,0-4.399,1.97-4.399,4.398v15.272c0,2.43,1.971,4.4,4.399,4.4h15.271
	c2.431,0,4.4-1.971,4.4-4.4v-15.272C57.65,413.645,55.681,411.675,53.25,411.675L53.25,411.675z"/>
<g>
	<path fill="#DB472E" d="M23.327,4.458c10.083,0,18.286,8.204,18.286,18.287S33.41,41.031,23.327,41.031S5.04,32.828,5.04,22.745
		S13.244,4.458,23.327,4.458 M23.327,3.458c-10.651,0-19.287,8.636-19.287,19.287c0,10.65,8.636,19.286,19.287,19.286
		c10.65,0,19.286-8.636,19.286-19.286C42.614,12.094,33.978,3.458,23.327,3.458L23.327,3.458z"/>
	<path fill="#DB472E" d="M24.875,13.417h1.188v4.844c0,0.279,0,0.425,0.015,0.464c0.024,0.186,0.119,0.279,0.278,0.279
		c0.238,0,0.49-0.185,0.754-0.559v-5.028h1.193v6.58H27.11v-0.719c-0.475,0.544-0.928,0.81-1.361,0.81
		c-0.384,0-0.648-0.156-0.768-0.489c-0.066-0.2-0.106-0.515-0.106-0.979V13.417L24.875,13.417z"/>
	<path fill="#DB472E" d="M17.186,11.168l0.938,3.466l0.901-3.466h1.338l-1.591,5.253v3.576h-1.321v-3.576
		c-0.12-0.634-0.386-1.563-0.81-2.793c-0.278-0.82-0.568-1.643-0.847-2.46H17.186z"/>
	<g>
		<path fill="#DB472E" d="M23.525,14.012c-0.33-0.449-0.794-0.674-1.392-0.674c-0.593,0-1.058,0.225-1.388,0.674
			c-0.253,0.333-0.372,0.847-0.372,1.551v2.304c0,0.699,0.119,1.218,0.372,1.547c0.33,0.449,0.795,0.675,1.388,0.675
			c0.598,0,1.062-0.226,1.392-0.675c0.25-0.329,0.368-0.848,0.368-1.547v-2.304C23.894,14.859,23.775,14.345,23.525,14.012z
			 M22.702,18.091c0,0.608-0.184,0.913-0.569,0.913c-0.384,0-0.568-0.305-0.568-0.913v-2.768c0-0.608,0.185-0.913,0.568-0.913
			c0.386,0,0.569,0.304,0.569,0.913V18.091z"/>
	</g>
	<g>
		<path fill="#DB472E" d="M25.089,26.001c-0.193,0-0.391,0.092-0.588,0.286v3.969c0.197,0.197,0.395,0.289,0.588,0.289
			c0.342,0,0.516-0.289,0.516-0.878V26.89C25.604,26.302,25.431,26.001,25.089,26.001z"/>
		<path fill="#DB472E" d="M29.47,26.001c-0.396,0-0.595,0.301-0.595,0.902v0.603h1.181v-0.603
			C30.056,26.302,29.858,26.001,29.47,26.001z"/>
		<path fill="#DB472E" d="M30.238,34.022c1.021-0.114,1.872-0.881,2.11-1.918l0.004-9.229c-0.238-1.039-1.088-1.805-2.11-1.918
			h-14.62c-1.021,0.113-1.87,0.879-2.109,1.918l-0.004,9.229c0.239,1.037,1.088,1.804,2.109,1.918H30.238z M18.737,24.022h-1.413
			v7.507h-1.311v-7.507h-1.388v-1.23h4.111L18.737,24.022L18.737,24.022z M22.302,31.529h-1.181V30.82
			c-0.47,0.538-0.915,0.799-1.349,0.799c-0.379,0-0.642-0.155-0.76-0.483c-0.064-0.199-0.104-0.509-0.104-0.97v-5.147h1.181v4.795
			c0,0.275,0,0.42,0.01,0.459c0.029,0.183,0.119,0.273,0.276,0.273c0.237,0,0.484-0.182,0.746-0.552v-4.976h1.181V31.529z
			 M26.783,29.576c0,0.603-0.039,1.035-0.119,1.312c-0.157,0.484-0.474,0.731-0.942,0.731c-0.42,0-0.824-0.233-1.22-0.72v0.63
			h-1.179v-8.737h1.179v2.854c0.382-0.469,0.786-0.707,1.22-0.707c0.469,0,0.785,0.248,0.942,0.736
			c0.08,0.262,0.119,0.69,0.119,1.309V29.576z M31.235,28.489h-2.359v1.154c0,0.602,0.197,0.901,0.604,0.901
			c0.289,0,0.461-0.157,0.527-0.474c0.01-0.063,0.025-0.326,0.025-0.799h1.203v0.173c0,0.382-0.014,0.643-0.025,0.761
			c-0.039,0.262-0.132,0.498-0.275,0.706c-0.325,0.474-0.81,0.707-1.426,0.707c-0.617,0-1.086-0.224-1.429-0.667
			c-0.251-0.325-0.379-0.839-0.379-1.531v-2.279c0-0.694,0.114-1.205,0.364-1.533c0.341-0.445,0.811-0.668,1.414-0.668
			c0.593,0,1.062,0.223,1.392,0.666c0.247,0.33,0.364,0.839,0.364,1.535V28.489z"/>
	</g>
</g>
<path fill="#28B5DE" d="M7.582,492.971c-0.392,0.394-0.39,1.03,0.003,1.422l6.119,6.114l-6.119,6.113
	c-0.013,0.013-0.024,0.023-0.037,0.037c-0.382,0.401-0.366,1.037,0.035,1.42c0.402,0.383,1.038,0.367,1.421-0.035l6.831-6.824
	c0-0.001,0-0.001,0-0.001c0.394-0.394,0.394-1.029,0-1.421l-6.831-6.826c0,0,0,0-0.001,0C8.611,492.578,7.975,492.578,7.582,492.971
	L7.582,492.971z"/>
<path fill="#538BC8" d="M26.459,492.971c-0.392,0.394-0.39,1.03,0.003,1.422l6.119,6.114l-6.119,6.113
	c-0.013,0.013-0.024,0.023-0.037,0.037c-0.382,0.401-0.366,1.037,0.035,1.42c0.402,0.383,1.038,0.367,1.421-0.035l6.831-6.824
	c0-0.001,0-0.001,0-0.001c0.394-0.394,0.394-1.029,0-1.421l-6.831-6.826c0,0,0,0-0.001,0
	C27.489,492.578,26.853,492.578,26.459,492.971L26.459,492.971z"/>
<g>
	<path fill="#515976" d="M43.237,559.484c0.627,0.579,0.941,1.442,0.941,2.59v5.147h-1.464v-1.127
		c-0.257,0.397-0.625,0.699-1.101,0.909c-0.478,0.209-1.044,0.313-1.696,0.313c-0.955,0-1.721-0.229-2.294-0.691
		c-0.573-0.461-0.86-1.065-0.86-1.817c0-0.75,0.272-1.354,0.821-1.811c0.546-0.454,1.415-0.683,2.605-0.683h2.444v-0.307
		c0-0.665-0.193-1.175-0.578-1.527c-0.386-0.354-0.955-0.53-1.706-0.53c-0.503,0-0.996,0.082-1.479,0.249
		c-0.483,0.167-0.891,0.389-1.224,0.668l-0.643-1.157c0.438-0.354,0.964-0.625,1.575-0.813c0.613-0.188,1.261-0.28,1.946-0.28
		C41.706,558.614,42.61,558.906,43.237,559.484z M41.7,565.733c0.431-0.264,0.74-0.638,0.934-1.118v-1.19h-2.382
		c-1.308,0-1.961,0.439-1.961,1.32c0,0.428,0.165,0.766,0.497,1.012c0.333,0.247,0.794,0.37,1.385,0.37
		C40.761,566.126,41.271,565.996,41.7,565.733z"/>
	<path fill="#515976" d="M51.483,566.722c-0.227,0.193-0.505,0.341-0.836,0.441c-0.333,0.103-0.676,0.153-1.031,0.153
		c-0.857,0-1.521-0.229-1.994-0.691c-0.472-0.461-0.708-1.121-0.708-1.979v-4.68h-1.448v-1.271h1.448v-1.864h1.546v1.865h2.444
		v1.271H48.46v4.616c0,0.461,0.114,0.814,0.344,1.062c0.23,0.247,0.563,0.369,0.99,0.369c0.471,0,0.873-0.133,1.207-0.399
		L51.483,566.722z"/>
	<path fill="#515976" d="M57.933,566.722c-0.225,0.193-0.504,0.341-0.836,0.441c-0.332,0.103-0.676,0.153-1.029,0.153
		c-0.857,0-1.521-0.229-1.995-0.691c-0.472-0.461-0.708-1.121-0.708-1.979v-4.68h-1.447v-1.271h1.447v-1.864h1.547v1.865h2.443
		v1.271h-2.443v4.616c0,0.461,0.115,0.814,0.344,1.062c0.23,0.247,0.561,0.369,0.99,0.369c0.471,0,0.873-0.133,1.207-0.399
		L57.933,566.722z"/>
	<path fill="#515976" d="M62.118,559c0.523-0.257,1.162-0.385,1.912-0.385v1.496c-0.084-0.011-0.203-0.017-0.354-0.017
		c-0.836,0-1.492,0.249-1.971,0.747c-0.477,0.499-0.717,1.209-0.717,2.133v4.246h-1.543v-8.525h1.479v1.432
		C61.194,559.633,61.593,559.259,62.118,559z"/>
	<path fill="#515976" d="M71.378,559.484c0.627,0.579,0.939,1.442,0.939,2.59v5.147h-1.463v-1.127
		c-0.258,0.397-0.625,0.699-1.102,0.909c-0.479,0.209-1.043,0.313-1.697,0.313c-0.953,0-1.719-0.229-2.293-0.691
		c-0.572-0.461-0.859-1.065-0.859-1.817c0-0.75,0.273-1.354,0.82-1.811c0.545-0.454,1.414-0.683,2.605-0.683h2.445v-0.307
		c0-0.665-0.193-1.175-0.578-1.527c-0.389-0.354-0.957-0.53-1.707-0.53c-0.504,0-0.996,0.082-1.479,0.249s-0.891,0.389-1.223,0.668
		l-0.645-1.157c0.438-0.354,0.967-0.625,1.574-0.813c0.613-0.188,1.264-0.28,1.947-0.28
		C69.845,558.614,70.751,558.906,71.378,559.484z M69.841,565.733c0.428-0.264,0.74-0.638,0.934-1.118v-1.19h-2.381
		c-1.309,0-1.963,0.439-1.963,1.32c0,0.428,0.166,0.766,0.498,1.012c0.332,0.247,0.793,0.37,1.385,0.37
		C68.903,566.126,69.413,565.996,69.841,565.733z"/>
	<path fill="#515976" d="M87.69,559.548c0.629,0.621,0.941,1.544,0.941,2.768v4.904h-1.543v-4.729c0-0.825-0.193-1.447-0.572-1.867
		c-0.381-0.417-0.924-0.626-1.633-0.626c-0.783,0-1.404,0.244-1.865,0.73c-0.463,0.489-0.691,1.188-0.691,2.1v4.394h-1.545v-4.729
		c0-0.825-0.191-1.447-0.572-1.866C79.829,560.21,79.286,560,78.579,560c-0.783,0-1.404,0.245-1.867,0.731
		c-0.461,0.489-0.689,1.188-0.689,2.1v4.393h-1.547v-8.525h1.48v1.271c0.311-0.438,0.719-0.775,1.223-1.006s1.078-0.346,1.721-0.346
		c0.666,0,1.256,0.135,1.771,0.402c0.514,0.269,0.91,0.659,1.189,1.173c0.32-0.492,0.77-0.879,1.344-1.155
		c0.572-0.279,1.219-0.418,1.936-0.418C86.214,558.614,87.063,558.926,87.69,559.548z"/>
	<path fill="#515976" d="M92.542,566.754c-0.674-0.375-1.203-0.895-1.584-1.553c-0.379-0.658-0.57-1.406-0.57-2.243
		s0.191-1.584,0.57-2.243c0.381-0.66,0.91-1.174,1.584-1.545c0.678-0.37,1.439-0.555,2.285-0.555c0.848,0,1.604,0.185,2.277,0.555
		c0.668,0.371,1.193,0.885,1.574,1.545c0.381,0.659,0.57,1.406,0.57,2.243s-0.189,1.585-0.57,2.243s-0.906,1.178-1.574,1.553
		c-0.674,0.374-1.43,0.563-2.277,0.563S93.218,567.13,92.542,566.754z M96.3,565.588c0.434-0.253,0.773-0.606,1.021-1.063
		c0.246-0.455,0.371-0.978,0.371-1.567s-0.125-1.113-0.371-1.569c-0.246-0.454-0.588-0.806-1.021-1.052
		c-0.436-0.247-0.926-0.371-1.473-0.371s-1.039,0.124-1.471,0.371c-0.436,0.246-0.779,0.598-1.029,1.052
		c-0.254,0.456-0.379,0.979-0.379,1.569c0,0.591,0.127,1.112,0.379,1.567c0.25,0.456,0.594,0.811,1.029,1.063
		c0.432,0.253,0.924,0.378,1.471,0.378S95.864,565.841,96.3,565.588z"/>
</g>
<g>
	<path fill="#0098CC" d="M28.865,549.451H12.531l-3.251,5.647v1.961c0,0.974,0.556,1.817,1.368,2.236h0.014v10.077
		c0,0.76,0.616,1.375,1.376,1.375h12.864l-0.86-2.782c-0.032-0.099-0.161-0.169-0.261-0.136l-2.333,0.721
		c-0.149,0.046-0.295-0.072-0.258-0.22l1.219-7.667c0.056-0.346,0.453-0.468,0.662-0.232l5.336,5.641
		c0.113,0.102,0.061,0.281-0.089,0.326l-2.366,0.706c-0.1,0.031-0.167,0.16-0.137,0.261l1.047,3.383h2.505
		c0.76,0,1.375-0.615,1.375-1.375v-10.077h0.006c0.812-0.419,1.366-1.265,1.366-2.236v-1.961L28.865,549.451z M18.519,551.71
		l-0.397,3.63v1.4c0,1.001-0.814,1.815-1.816,1.815c-1.001,0-1.816-0.814-1.816-1.815v-1.372h-0.003l1.201-3.658l0.408-1.24h2.558
		L18.519,551.71z M26.91,556.741L26.91,556.741c-0.001,1.001-0.816,1.815-1.818,1.815c-1.003,0-1.816-0.814-1.816-1.815v-1.4
		l-0.397-3.63l-0.135-1.24h2.559l0.406,1.24l1.202,3.658L26.91,556.741L26.91,556.741z"/>
</g>
<path fill="#28B5DE" d="M19.54,365.34c7.995,0,14.5,6.506,14.5,14.5c0,7.996-6.505,14.5-14.5,14.5s-14.5-6.504-14.5-14.5
	C5.04,371.846,11.544,365.34,19.54,365.34 M19.54,364.34c-8.561,0-15.5,6.939-15.5,15.5s6.939,15.5,15.5,15.5
	c8.561,0,15.5-6.939,15.5-15.5S28.1,364.34,19.54,364.34L19.54,364.34z"/>
<path fill="#538BC8" d="M23.632,373.678l0.023,0.023v11.535l-3.603-2.162l-0.514-0.307l-0.515,0.309l-3.599,2.158l0.021-11.557
	H23.632 M23.632,372.678h-8.186c-0.564,0-1.023,0.459-1.023,1.023v13.301l5.116-3.068l5.116,3.068v-13.301
	C24.656,373.137,24.197,372.678,23.632,372.678L23.632,372.678z"/>
<path fill="#28B5DE" d="M55.54,365.34c7.995,0,14.5,6.506,14.5,14.5c0,7.996-6.505,14.5-14.5,14.5s-14.5-6.504-14.5-14.5
	C41.04,371.846,47.544,365.34,55.54,365.34"/>
<path fill="#FFFFFF" d="M59.632,372.678h-8.186c-0.564,0-1.023,0.459-1.023,1.023v13.301l5.116-3.068l5.116,3.068v-13.301
	C60.656,373.137,60.197,372.678,59.632,372.678L59.632,372.678z"/>
<g>
	<path fill="#3C5A98" d="M23.327,55.876c10.084,0,18.287,8.204,18.287,18.287S33.411,92.45,23.327,92.45S5.04,84.246,5.04,74.163
		S13.243,55.876,23.327,55.876 M23.327,54.876c-10.651,0-19.287,8.636-19.287,19.287c0,10.65,8.636,19.287,19.287,19.287
		c10.65,0,19.287-8.637,19.287-19.287C42.614,63.512,33.977,54.876,23.327,54.876L23.327,54.876z"/>
	<path fill="#3C5A98" d="M27.162,74.923h-2.786v10.213H20.15V74.923h-2.009v-3.59h2.009v-2.322c0-1.661,0.789-4.262,4.261-4.262
		l3.129,0.013v3.484H25.27c-0.373,0-0.896,0.186-0.896,0.979v2.111h3.154L27.162,74.923z"/>
</g>
<g>
	<g>
		<path id="XMLID_30_" fill="#DC4E40" d="M23.327,107.294c10.084,0,18.287,8.204,18.287,18.288c0,10.083-8.203,18.287-18.287,18.287
			c-10.083,0-18.287-8.203-18.287-18.287C5.04,115.498,13.244,107.294,23.327,107.294 M23.327,106.294
			c-10.651,0-19.287,8.637-19.287,19.288s8.636,19.287,19.287,19.287c10.65,0,19.287-8.636,19.287-19.287
			S33.977,106.294,23.327,106.294L23.327,106.294z"/>
	</g>
	<g>
		<path fill="#DC4E40" d="M12.118,126.444c-0.061,2.956,1.977,5.778,4.777,6.698c2.639,0.887,5.883,0.225,7.639-2.036
			c1.281-1.583,1.574-3.694,1.436-5.667c-2.26-0.021-4.521-0.013-6.775-0.011c-0.004,0.807,0,1.606,0.003,2.411
			c1.353,0.039,2.706,0.021,4.06,0.049c-0.342,1.17-1.119,2.26-2.3,2.684c-2.281,1.004-5.19-0.309-5.907-2.699
			c-0.866-2.292,0.552-5.056,2.893-5.722c1.451-0.512,2.946,0.064,4.188,0.818c0.63-0.589,1.219-1.218,1.797-1.854
			c-1.412-1.182-3.225-1.905-5.088-1.746C15.181,119.414,11.979,122.791,12.118,126.444z"/>
		<path fill="#DC4E40" d="M30.367,123.398c-0.006,0.675-0.013,1.351-0.019,2.023c-0.676,0.006-1.349,0.011-2.021,0.015
			c0,0.672,0,1.343,0,2.017c0.674,0.002,1.352,0.006,2.021,0.014c0.008,0.674,0.008,1.346,0.015,2.021c0.67,0,1.345-0.002,2.017,0
			c0.004-0.677,0.008-1.349,0.014-2.025c0.675-0.004,1.351-0.006,2.022-0.01c0-0.674,0-1.345,0-2.017
			c-0.672-0.004-1.349-0.008-2.022-0.015c-0.004-0.673-0.01-1.349-0.014-2.022C31.708,123.398,31.037,123.398,30.367,123.398z"/>
		<g>
			<path fill="#DC4E40" d="M12.118,126.444c-0.139-3.653,3.062-7.03,6.72-7.074c1.864-0.159,3.677,0.564,5.088,1.746
				c-0.58,0.636-1.167,1.265-1.798,1.853c-1.241-0.753-2.737-1.329-4.188-0.818c-2.342,0.667-3.759,3.431-2.893,5.722
				c0.717,2.392,3.626,3.705,5.906,2.699c1.182-0.423,1.959-1.513,2.301-2.683c-1.354-0.026-2.707-0.011-4.06-0.048
				c-0.004-0.805-0.007-1.606-0.004-2.412c2.257-0.003,4.518-0.01,6.777,0.011c0.139,1.974-0.152,4.084-1.436,5.666
				c-1.756,2.261-5,2.925-7.639,2.037C14.095,132.223,12.057,129.4,12.118,126.444z"/>
			<path fill="#DC4E40" d="M30.367,123.398c0.67,0,1.341,0,2.013,0c0.004,0.675,0.01,1.351,0.014,2.023
				c0.675,0.006,1.351,0.011,2.022,0.015c0,0.672,0,1.343,0,2.017c-0.672,0.002-1.349,0.006-2.022,0.01
				c-0.006,0.677-0.01,1.35-0.014,2.025c-0.672-0.003-1.347,0-2.017,0c-0.007-0.677-0.007-1.35-0.015-2.021
				c-0.672-0.008-1.349-0.012-2.021-0.016c0-0.672,0-1.343,0-2.015c0.674-0.005,1.348-0.009,2.021-0.016
				C30.354,124.749,30.36,124.073,30.367,123.398z"/>
		</g>
	</g>
</g>
<g>
	<path fill="#6A453C" d="M23.327,158.712c10.083,0,18.286,8.204,18.286,18.287c0,10.084-8.203,18.287-18.286,18.287
		S5.04,187.083,5.04,177C5.04,166.917,13.244,158.712,23.327,158.712 M23.327,157.712c-10.652,0-19.287,8.635-19.287,19.287
		c0,10.65,8.635,19.287,19.287,19.287c10.65,0,19.286-8.637,19.286-19.287C42.614,166.348,33.979,157.712,23.327,157.712
		L23.327,157.712z"/>
	<g>
		<path fill="#6A453C" d="M23.327,172.344c-2.595,0-4.706,2.111-4.706,4.705c0,2.597,2.111,4.707,4.706,4.707
			c2.596,0,4.706-2.11,4.706-4.707C28.034,174.456,25.923,172.344,23.327,172.344z M23.327,179.767
			c-1.498,0-2.718-1.219-2.718-2.718c0-1.497,1.22-2.717,2.718-2.717s2.718,1.22,2.718,2.717
			C26.045,178.548,24.826,179.767,23.327,179.767z"/>
		<path fill="#6A453C" d="M27.854,167.914H18.8c-2.542,0-4.609,2.068-4.609,4.609v9.054c0,2.542,2.067,4.608,4.609,4.608h9.054
			c2.543,0,4.609-2.066,4.609-4.608v-9.054C32.464,169.981,30.397,167.914,27.854,167.914z M30.476,181.577
			c0,1.444-1.176,2.621-2.621,2.621H18.8c-1.445,0-2.621-1.177-2.621-2.621v-9.054c0-1.445,1.176-2.62,2.621-2.62h9.054
			c1.445,0,2.621,1.175,2.621,2.62V181.577z"/>
		<circle fill="#6A453C" cx="28.185" cy="172.203" r="1.114"/>
	</g>
</g>
<g>
	<path fill="#017AB9" d="M23.327,210.131c10.083,0,18.286,8.203,18.286,18.286c0,10.084-8.203,18.287-18.286,18.287
		s-18.286-8.203-18.286-18.286S13.244,210.131,23.327,210.131 M23.327,209.131c-10.651,0-19.286,8.635-19.286,19.287
		c0,10.652,8.635,19.287,19.286,19.287c10.65,0,19.286-8.635,19.286-19.287C42.613,217.766,33.977,209.131,23.327,209.131
		L23.327,209.131z"/>
	<g>
		<path fill="#017AB9" d="M32.717,229.518v6.379h-3.699v-5.951c0-1.493-0.533-2.515-1.873-2.515c-1.021,0-1.629,0.688-1.896,1.353
			c-0.098,0.236-0.122,0.566-0.122,0.9v6.213h-3.698c0,0,0.05-10.081,0-11.124h3.698v1.576c-0.007,0.013-0.018,0.025-0.024,0.036
			h0.024v-0.036c0.492-0.756,1.368-1.837,3.332-1.837C30.891,224.512,32.717,226.102,32.717,229.518L32.717,229.518z
			 M17.558,219.413c-1.265,0-2.091,0.831-2.091,1.922c0,1.066,0.803,1.921,2.043,1.921h0.024c1.289,0,2.092-0.854,2.092-1.921
			C19.601,220.244,18.824,219.413,17.558,219.413L17.558,219.413z M15.687,235.896h3.695v-11.124h-3.695V235.896z"/>
	</g>
</g>
<g>
	<g>
		<path fill="#CCCBCB" d="M20.689,525.398c0-3.46-2.806-6.265-6.266-6.265c-3.461,0-6.265,2.805-6.265,6.265
			c0,1.264,0.374,2.44,1.019,3.425H9.166l4.696,7.506l0,0c0.104,0.207,0.315,0.348,0.562,0.348s0.458-0.141,0.561-0.348h0.002
			l4.695-7.506h-0.012C20.314,527.838,20.689,526.662,20.689,525.398L20.689,525.398 M14.423,522.542
			c1.577,0,2.855,1.278,2.855,2.856c0,1.577-1.278,2.858-2.855,2.858c-1.578,0-2.857-1.279-2.857-2.857
			S12.845,522.542,14.423,522.542L14.423,522.542 M14.423,522.542"/>
	</g>
</g>
<g>
	<path fill="#CA2227" d="M23.326,261.55c10.083,0,18.286,8.203,18.286,18.285c0,10.084-8.203,18.288-18.286,18.288
		s-18.285-8.204-18.285-18.288C5.04,269.753,13.243,261.55,23.326,261.55 M23.326,260.55c-10.651,0-19.285,8.635-19.285,19.285
		c0,10.651,8.634,19.288,19.285,19.288c10.65,0,19.286-8.636,19.286-19.288C42.612,269.185,33.977,260.55,23.326,260.55
		L23.326,260.55z"/>
	<g>
		<path fill="#CA2227" d="M24.577,285.311c-1.172-0.091-1.664-0.673-2.584-1.229c-0.506,2.651-1.123,5.192-2.952,6.521
			c-0.565-4.009,0.829-7.019,1.476-10.214c-1.104-1.856,0.133-5.596,2.461-4.675c2.866,1.133-2.48,6.908,1.107,7.629
			c3.746,0.753,5.276-6.501,2.952-8.859c-3.356-3.406-9.771-0.078-8.981,4.799c0.191,1.191,1.424,1.554,0.492,3.199
			c-2.148-0.477-2.79-2.17-2.707-4.43c0.134-3.697,3.322-6.286,6.521-6.646c4.046-0.452,7.843,1.486,8.366,5.292
			C31.32,280.993,28.904,285.645,24.577,285.311L24.577,285.311z"/>
	</g>
</g>
<g>
	<path fill="#28B5DE" d="M71.974,450.234c8.146,0,14.775,6.628,14.775,14.775c0,8.148-6.629,14.777-14.774,14.777h-49.97
		c-8.146,0-14.775-6.629-14.775-14.777c0-8.147,6.629-14.775,14.775-14.775H71.974 M71.974,449.234H22.005
		c-8.713,0-15.775,7.063-15.775,15.775c0,8.711,7.063,15.777,15.775,15.777h49.969c8.714,0,15.774-7.063,15.774-15.777
		C87.75,456.296,80.688,449.234,71.974,449.234L71.974,449.234z"/>
</g>
<path fill="#538BC8" d="M29.201,462.732c1.498-0.002,2.73-1.186,2.802-2.688c0.072-1.504-1.047-2.797-2.538-2.94
	s-2.834,0.914-3.049,2.403l-6.121,3.557c-0.792-0.835-2.012-1.102-3.078-0.674c-1.065,0.429-1.767,1.466-1.767,2.619
	c0,1.156,0.699,2.19,1.767,2.619c1.066,0.431,2.286,0.162,3.078-0.675l6.121,3.561c0.197,1.384,1.376,2.411,2.771,2.419
	c1.393,0.007,2.579-1.012,2.792-2.393c0.212-1.384-0.614-2.712-1.943-3.127c-1.329-0.414-2.763,0.211-3.367,1.469l-5.645-3.285
	c0.083-0.387,0.083-0.786,0-1.172l5.65-3.289C27.141,462.109,28.123,462.729,29.201,462.732z"/>
<g>
	<path fill="#538BC8" d="M40.649,468.86c-0.668-0.231-1.184-0.541-1.547-0.924l0.405-0.8c0.354,0.354,0.825,0.644,1.414,0.861
		c0.588,0.219,1.195,0.327,1.82,0.327c0.877,0,1.533-0.159,1.975-0.481c0.438-0.32,0.656-0.738,0.656-1.254
		c0-0.392-0.119-0.703-0.354-0.938c-0.238-0.233-0.53-0.413-0.875-0.539c-0.347-0.126-0.826-0.263-1.441-0.413
		c-0.736-0.188-1.324-0.365-1.765-0.539c-0.438-0.173-0.813-0.437-1.127-0.791c-0.313-0.354-0.47-0.835-0.47-1.441
		c0-0.495,0.131-0.945,0.393-1.352s0.662-0.729,1.204-0.973c0.541-0.243,1.213-0.364,2.017-0.364c0.563,0,1.107,0.077,1.646,0.231
		c0.534,0.154,1.001,0.365,1.395,0.637l-0.353,0.827c-0.411-0.271-0.851-0.474-1.314-0.609c-0.468-0.135-0.926-0.202-1.373-0.202
		c-0.856,0-1.506,0.166-1.938,0.496c-0.436,0.331-0.651,0.758-0.651,1.281c0,0.393,0.119,0.707,0.357,0.945
		c0.236,0.238,0.535,0.42,0.896,0.546s0.844,0.264,1.448,0.413c0.72,0.177,1.302,0.352,1.743,0.524
		c0.442,0.173,0.817,0.435,1.127,0.784c0.309,0.35,0.462,0.824,0.462,1.422c0,0.494-0.133,0.944-0.397,1.352
		c-0.268,0.404-0.674,0.729-1.227,0.968c-0.551,0.235-1.229,0.354-2.029,0.354C42.014,469.212,41.316,469.093,40.649,468.86z"/>
	<path fill="#538BC8" d="M54.396,462.511c0.546,0.537,0.817,1.318,0.817,2.345v4.271h-0.992v-4.17c0-0.766-0.191-1.35-0.574-1.75
		c-0.383-0.402-0.93-0.603-1.639-0.603c-0.795,0-1.422,0.235-1.883,0.707c-0.463,0.471-0.692,1.122-0.692,1.953v3.866h-0.994
		v-10.393h0.994v4.313c0.271-0.43,0.646-0.76,1.12-0.994s1.021-0.35,1.638-0.35C53.115,461.707,53.85,461.975,54.396,462.511z"/>
	<path fill="#538BC8" d="M62.707,462.427c0.515,0.48,0.771,1.191,0.771,2.135v4.563h-0.952v-1.146
		c-0.226,0.383-0.553,0.682-0.986,0.896c-0.435,0.215-0.949,0.32-1.547,0.32c-0.82,0-1.476-0.195-1.961-0.588
		c-0.484-0.393-0.729-0.91-0.729-1.555c0-0.625,0.227-1.129,0.68-1.512c0.452-0.384,1.174-0.574,2.163-0.574h2.338v-0.448
		c0-0.636-0.178-1.118-0.53-1.449c-0.354-0.331-0.873-0.497-1.556-0.497c-0.467,0-0.915,0.077-1.345,0.23
		c-0.431,0.154-0.8,0.367-1.105,0.638l-0.447-0.742c0.373-0.317,0.82-0.563,1.345-0.735s1.073-0.258,1.651-0.258
		C61.455,461.707,62.192,461.947,62.707,462.427z M61.584,468.027c0.399-0.256,0.699-0.627,0.896-1.111v-1.205h-2.313
		c-1.26,0-1.891,0.438-1.891,1.315c0,0.431,0.163,0.771,0.49,1.017c0.325,0.248,0.783,0.369,1.372,0.369
		C60.705,468.412,61.184,468.284,61.584,468.027z"/>
	<path fill="#538BC8" d="M68.17,462.085c0.463-0.252,1.035-0.379,1.717-0.379v0.967l-0.237-0.015c-0.773,0-1.382,0.238-1.818,0.714
		c-0.438,0.477-0.658,1.145-0.658,2.002v3.752H66.18v-7.365h0.949v1.441C67.363,462.71,67.709,462.337,68.17,462.085z"/>
	<path fill="#538BC8" d="M78.021,465.753h-6.16c0.059,0.767,0.352,1.386,0.883,1.854c0.531,0.474,1.203,0.707,2.019,0.707
		c0.456,0,0.877-0.082,1.26-0.245s0.714-0.402,0.994-0.721l0.561,0.644c-0.326,0.394-0.734,0.691-1.226,0.896
		c-0.492,0.204-1.029,0.309-1.617,0.309c-0.756,0-1.426-0.161-2.009-0.481s-1.038-0.77-1.365-1.336
		c-0.324-0.569-0.488-1.213-0.488-1.935c0-0.718,0.154-1.362,0.469-1.933c0.313-0.568,0.742-1.012,1.289-1.329
		c0.545-0.317,1.158-0.476,1.842-0.476c0.681,0,1.292,0.158,1.834,0.476c0.541,0.317,0.966,0.758,1.271,1.323
		c0.31,0.564,0.463,1.211,0.463,1.938L78.021,465.753z M72.68,463.239c-0.479,0.453-0.756,1.043-0.819,1.771h5.225
		c-0.064-0.728-0.34-1.317-0.818-1.771c-0.479-0.452-1.08-0.679-1.801-0.679C73.754,462.561,73.162,462.787,72.68,463.239z"/>
</g>
<g>
	<path fill="#28B5DE" d="M159.721,450.234c8.146,0,14.775,6.628,14.775,14.775c0,8.148-6.629,14.777-14.774,14.777h-49.97
		c-8.146,0-14.775-6.629-14.775-14.777c0-8.147,6.629-14.775,14.775-14.775H159.721"/>
</g>
<path fill="#FFFFFF" d="M116.947,462.732c1.498-0.002,2.73-1.186,2.802-2.688c0.072-1.504-1.047-2.797-2.538-2.94
	s-2.834,0.914-3.049,2.403l-6.121,3.557c-0.792-0.835-2.012-1.102-3.078-0.674c-1.065,0.429-1.767,1.466-1.767,2.619
	c0,1.156,0.699,2.19,1.767,2.619c1.066,0.431,2.286,0.162,3.078-0.675l6.121,3.561c0.197,1.384,1.376,2.411,2.771,2.419
	c1.393,0.007,2.579-1.012,2.792-2.393c0.212-1.384-0.614-2.712-1.943-3.127c-1.329-0.414-2.763,0.211-3.367,1.469l-5.645-3.285
	c0.083-0.387,0.083-0.786,0-1.172l5.65-3.289C114.888,462.109,115.869,462.729,116.947,462.732z"/>
<g>
	<path fill="#FFFFFF" d="M128.396,468.86c-0.668-0.231-1.184-0.541-1.547-0.924l0.405-0.8c0.354,0.354,0.825,0.644,1.414,0.861
		c0.588,0.219,1.195,0.327,1.82,0.327c0.877,0,1.533-0.159,1.975-0.481c0.438-0.32,0.656-0.738,0.656-1.254
		c0-0.392-0.119-0.703-0.354-0.938c-0.238-0.233-0.53-0.413-0.875-0.539c-0.347-0.126-0.826-0.263-1.441-0.413
		c-0.736-0.188-1.324-0.365-1.765-0.539c-0.438-0.173-0.813-0.437-1.127-0.791c-0.313-0.354-0.47-0.835-0.47-1.441
		c0-0.495,0.131-0.945,0.393-1.352s0.662-0.729,1.204-0.973c0.541-0.243,1.213-0.364,2.017-0.364c0.563,0,1.107,0.077,1.646,0.231
		c0.534,0.154,1.001,0.365,1.395,0.637l-0.353,0.827c-0.411-0.271-0.851-0.474-1.314-0.609c-0.468-0.135-0.926-0.202-1.373-0.202
		c-0.856,0-1.506,0.166-1.938,0.496c-0.436,0.331-0.651,0.758-0.651,1.281c0,0.393,0.119,0.707,0.357,0.945
		c0.236,0.238,0.535,0.42,0.896,0.546s0.844,0.264,1.448,0.413c0.72,0.177,1.302,0.352,1.743,0.524
		c0.442,0.173,0.817,0.435,1.127,0.784c0.309,0.35,0.462,0.824,0.462,1.422c0,0.494-0.133,0.944-0.397,1.352
		c-0.268,0.404-0.674,0.729-1.227,0.968c-0.551,0.235-1.229,0.354-2.029,0.354C129.761,469.212,129.063,469.093,128.396,468.86z"/>
	<path fill="#FFFFFF" d="M142.143,462.511c0.546,0.537,0.817,1.318,0.817,2.345v4.271h-0.992v-4.17c0-0.766-0.191-1.35-0.574-1.75
		c-0.383-0.402-0.93-0.603-1.639-0.603c-0.795,0-1.422,0.235-1.883,0.707c-0.463,0.471-0.692,1.122-0.692,1.953v3.866h-0.994
		v-10.393h0.994v4.313c0.271-0.43,0.646-0.76,1.12-0.994s1.021-0.35,1.638-0.35C140.861,461.707,141.597,461.975,142.143,462.511z"
		/>
	<path fill="#FFFFFF" d="M150.453,462.427c0.515,0.48,0.771,1.191,0.771,2.135v4.563h-0.952v-1.146
		c-0.226,0.383-0.553,0.682-0.986,0.896c-0.435,0.215-0.949,0.32-1.547,0.32c-0.82,0-1.476-0.195-1.961-0.588
		c-0.484-0.393-0.729-0.91-0.729-1.555c0-0.625,0.227-1.129,0.68-1.512c0.452-0.384,1.174-0.574,2.163-0.574h2.338v-0.448
		c0-0.636-0.178-1.118-0.53-1.449c-0.354-0.331-0.873-0.497-1.556-0.497c-0.467,0-0.915,0.077-1.345,0.23
		c-0.431,0.154-0.8,0.367-1.105,0.638l-0.447-0.742c0.373-0.317,0.82-0.563,1.345-0.735s1.073-0.258,1.651-0.258
		C149.201,461.707,149.938,461.947,150.453,462.427z M149.331,468.027c0.399-0.256,0.699-0.627,0.896-1.111v-1.205h-2.313
		c-1.26,0-1.891,0.438-1.891,1.315c0,0.431,0.163,0.771,0.49,1.017c0.325,0.248,0.783,0.369,1.372,0.369
		C148.451,468.412,148.931,468.284,149.331,468.027z"/>
	<path fill="#FFFFFF" d="M155.917,462.085c0.463-0.252,1.035-0.379,1.717-0.379v0.967l-0.237-0.015
		c-0.773,0-1.382,0.238-1.818,0.714c-0.438,0.477-0.658,1.145-0.658,2.002v3.752h-0.993v-7.365h0.949v1.441
		C155.109,462.71,155.456,462.337,155.917,462.085z"/>
	<path fill="#FFFFFF" d="M165.768,465.753h-6.16c0.059,0.767,0.352,1.386,0.883,1.854c0.531,0.474,1.203,0.707,2.019,0.707
		c0.456,0,0.877-0.082,1.26-0.245s0.714-0.402,0.994-0.721l0.561,0.644c-0.326,0.394-0.734,0.691-1.226,0.896
		c-0.492,0.204-1.029,0.309-1.617,0.309c-0.756,0-1.426-0.161-2.009-0.481s-1.038-0.77-1.365-1.336
		c-0.324-0.569-0.488-1.213-0.488-1.935c0-0.718,0.154-1.362,0.469-1.933c0.313-0.568,0.742-1.012,1.289-1.329
		c0.545-0.317,1.158-0.476,1.842-0.476c0.681,0,1.292,0.158,1.834,0.476c0.541,0.317,0.966,0.758,1.271,1.323
		c0.31,0.564,0.463,1.211,0.463,1.938L165.768,465.753z M160.427,463.239c-0.479,0.453-0.756,1.043-0.819,1.771h5.225
		c-0.064-0.728-0.34-1.317-0.818-1.771c-0.479-0.452-1.08-0.679-1.801-0.679C161.501,462.561,160.908,462.787,160.427,463.239z"/>
</g>
<g>
	<path fill="#BCBCBB" d="M16.076,426.935l-4.375-4.375h8.75L16.076,426.935z"/>
</g>
<path fill="#BCBCBB" d="M23.711,412.675c1.875,0,3.4,1.525,3.4,3.398v15.272c0,1.875-1.525,3.4-3.4,3.4H8.439
	c-1.875,0-3.399-1.525-3.399-3.4v-15.272c0-1.873,1.525-3.398,3.399-3.398H23.711 M23.711,411.675H8.439
	c-2.429,0-4.399,1.97-4.399,4.398v15.272c0,2.43,1.971,4.4,4.399,4.4H23.71c2.431,0,4.4-1.971,4.4-4.4v-15.272
	C28.112,413.645,26.142,411.675,23.711,411.675L23.711,411.675z"/>
<g>
	<path fill="#FFFFFF" d="M45.614,426.935l-4.375-4.375h8.75L45.614,426.935z"/>
</g>
<g>
	<path fill="#5EA8DD" d="M23.327,312.968c10.084,0,18.287,8.203,18.287,18.287c0,10.082-8.203,18.285-18.287,18.285
		S5.04,341.337,5.04,331.255C5.04,321.171,13.243,312.968,23.327,312.968 M23.327,311.968c-10.652,0-19.287,8.635-19.287,19.287
		c0,10.65,8.635,19.285,19.287,19.285c10.652,0,19.287-8.633,19.287-19.285S33.979,311.968,23.327,311.968L23.327,311.968z"/>
	<g>
		<path fill="#5EA8DD" d="M33.26,327.046c-0.688,0.305-1.427,0.51-2.201,0.603c0.791-0.474,1.398-1.226,1.686-2.119
			c-0.74,0.438-1.561,0.759-2.434,0.931c-0.699-0.744-1.694-1.211-2.799-1.211c-2.115,0-3.832,1.717-3.832,3.832
			c0,0.301,0.034,0.594,0.101,0.873c-3.186-0.158-6.01-1.685-7.899-4.004c-0.33,0.564-0.52,1.225-0.52,1.928
			c0,1.328,0.678,2.502,1.705,3.188c-0.628-0.021-1.219-0.19-1.735-0.479c0,0.017,0,0.033,0,0.049c0,1.855,1.321,3.406,3.073,3.758
			c-0.32,0.088-0.66,0.135-1.009,0.135c-0.248,0-0.487-0.023-0.722-0.068c0.488,1.521,1.903,2.631,3.581,2.662
			c-1.313,1.027-2.965,1.641-4.761,1.641c-0.308,0-0.614-0.02-0.914-0.055c1.695,1.088,3.71,1.723,5.875,1.723
			c7.048,0,10.902-5.84,10.902-10.904c0-0.166-0.004-0.331-0.012-0.495C32.096,328.489,32.746,327.814,33.26,327.046L33.26,327.046z
			"/>
	</g>
</g>
<g>
	<path fill="#DB472E" d="M68.011,3.458c-10.651,0-19.287,8.636-19.287,19.287c0,10.65,8.636,19.286,19.287,19.286
		c10.65,0,19.286-8.636,19.286-19.286C87.298,12.094,78.662,3.458,68.011,3.458L68.011,3.458z"/>
	<path fill="#FFFFFF" d="M69.559,13.417h1.188v4.844c0,0.279,0,0.425,0.015,0.464c0.024,0.186,0.119,0.279,0.278,0.279
		c0.238,0,0.49-0.185,0.754-0.559v-5.028h1.193v6.58h-1.193v-0.719c-0.475,0.544-0.928,0.81-1.361,0.81
		c-0.384,0-0.648-0.156-0.768-0.489c-0.066-0.2-0.106-0.515-0.106-0.979V13.417L69.559,13.417z"/>
	<path fill="#FFFFFF" d="M61.87,11.168l0.938,3.466l0.901-3.466h1.338l-1.591,5.253v3.576h-1.321v-3.576
		c-0.12-0.634-0.386-1.563-0.81-2.793c-0.278-0.82-0.568-1.643-0.847-2.46H61.87z"/>
	<g>
		<path fill="#FFFFFF" d="M68.209,14.012c-0.33-0.449-0.794-0.674-1.392-0.674c-0.593,0-1.058,0.225-1.388,0.674
			c-0.253,0.333-0.372,0.847-0.372,1.551v2.304c0,0.699,0.119,1.218,0.372,1.547c0.33,0.449,0.795,0.675,1.388,0.675
			c0.598,0,1.062-0.226,1.392-0.675c0.25-0.329,0.368-0.848,0.368-1.547v-2.304C68.578,14.859,68.459,14.345,68.209,14.012z
			 M67.386,18.091c0,0.608-0.184,0.913-0.569,0.913c-0.384,0-0.568-0.305-0.568-0.913v-2.768c0-0.608,0.185-0.913,0.568-0.913
			c0.386,0,0.569,0.304,0.569,0.913V18.091z"/>
	</g>
	<g>
		<path fill="#FFFFFF" d="M69.773,26.001c-0.193,0-0.391,0.092-0.588,0.286v3.969c0.197,0.197,0.395,0.289,0.588,0.289
			c0.342,0,0.516-0.289,0.516-0.878V26.89C70.289,26.302,70.115,26.001,69.773,26.001z"/>
		<path fill="#FFFFFF" d="M74.154,26.001c-0.396,0-0.595,0.301-0.595,0.902v0.603h1.181v-0.603
			C74.74,26.302,74.542,26.001,74.154,26.001z"/>
		<path fill="#FFFFFF" d="M74.922,34.022c1.021-0.114,1.872-0.881,2.11-1.918l0.004-9.229c-0.238-1.039-1.088-1.805-2.11-1.918
			h-14.62c-1.021,0.113-1.87,0.879-2.109,1.918l-0.004,9.229c0.239,1.037,1.088,1.804,2.109,1.918H74.922z M63.421,24.022h-1.413
			v7.507h-1.311v-7.507h-1.388v-1.23h4.111L63.421,24.022L63.421,24.022z M66.986,31.529h-1.181V30.82
			c-0.47,0.538-0.915,0.799-1.349,0.799c-0.379,0-0.642-0.155-0.76-0.483c-0.064-0.199-0.104-0.509-0.104-0.97v-5.147h1.181v4.795
			c0,0.275,0,0.42,0.01,0.459c0.029,0.183,0.119,0.273,0.276,0.273c0.237,0,0.484-0.182,0.746-0.552v-4.976h1.181V31.529z
			 M71.467,29.576c0,0.603-0.039,1.035-0.119,1.312c-0.157,0.484-0.474,0.731-0.942,0.731c-0.42,0-0.824-0.233-1.22-0.72v0.63
			h-1.179v-8.737h1.179v2.854c0.382-0.469,0.786-0.707,1.22-0.707c0.469,0,0.785,0.248,0.942,0.736
			c0.08,0.262,0.119,0.69,0.119,1.309V29.576z M75.919,28.489H73.56v1.154c0,0.602,0.197,0.901,0.604,0.901
			c0.289,0,0.461-0.157,0.527-0.474c0.01-0.063,0.025-0.326,0.025-0.799h1.203v0.173c0,0.382-0.014,0.643-0.025,0.761
			c-0.039,0.262-0.132,0.498-0.275,0.706c-0.325,0.474-0.81,0.707-1.426,0.707c-0.617,0-1.086-0.224-1.429-0.667
			c-0.251-0.325-0.379-0.839-0.379-1.531v-2.279c0-0.694,0.114-1.205,0.364-1.533c0.341-0.445,0.811-0.668,1.414-0.668
			c0.593,0,1.062,0.223,1.392,0.666c0.247,0.33,0.364,0.839,0.364,1.535V28.489z"/>
	</g>
</g>
<g>
	<path fill="#3C5A98" d="M68.011,54.876c-10.651,0-19.287,8.636-19.287,19.287c0,10.65,8.636,19.287,19.287,19.287
		c10.65,0,19.287-8.637,19.287-19.287C87.298,63.512,78.661,54.876,68.011,54.876L68.011,54.876z"/>
	<path fill="#FFFFFF" d="M71.846,74.923H69.06v10.213h-4.225V74.923h-2.009v-3.59h2.009v-2.322c0-1.661,0.789-4.262,4.261-4.262
		l3.129,0.013v3.484h-2.271c-0.373,0-0.896,0.186-0.896,0.979v2.111h3.154L71.846,74.923z"/>
</g>
<g>
	<g>
		<path id="XMLID_1_" fill="#DC4E40" d="M68.011,106.294c-10.651,0-19.287,8.637-19.287,19.288s8.636,19.287,19.287,19.287
			c10.65,0,19.287-8.636,19.287-19.287S78.661,106.294,68.011,106.294L68.011,106.294z"/>
	</g>
	<g>
		<path fill="#DC4E40" d="M56.802,126.444c-0.061,2.956,1.977,5.778,4.777,6.698c2.639,0.887,5.883,0.225,7.639-2.036
			c1.281-1.583,1.574-3.694,1.436-5.667c-2.26-0.021-4.521-0.013-6.775-0.011c-0.004,0.807,0,1.606,0.003,2.411
			c1.353,0.039,2.706,0.021,4.06,0.049c-0.342,1.17-1.119,2.26-2.3,2.684c-2.281,1.004-5.19-0.309-5.907-2.699
			c-0.866-2.292,0.552-5.056,2.893-5.722c1.451-0.512,2.946,0.064,4.188,0.818c0.63-0.589,1.219-1.218,1.797-1.854
			c-1.412-1.182-3.225-1.905-5.088-1.746C59.865,119.414,56.663,122.791,56.802,126.444z"/>
		<path fill="#DC4E40" d="M75.051,123.398c-0.006,0.675-0.013,1.351-0.019,2.023c-0.676,0.006-1.349,0.011-2.021,0.015
			c0,0.672,0,1.343,0,2.017c0.674,0.002,1.352,0.006,2.021,0.014c0.008,0.674,0.008,1.346,0.015,2.021c0.67,0,1.345-0.002,2.017,0
			c0.004-0.677,0.008-1.349,0.014-2.025c0.675-0.004,1.351-0.006,2.022-0.01c0-0.674,0-1.345,0-2.017
			c-0.672-0.004-1.349-0.008-2.022-0.015c-0.004-0.673-0.01-1.349-0.014-2.022C76.392,123.398,75.721,123.398,75.051,123.398z"/>
		<g>
			<path fill="#FFFFFF" d="M56.802,126.444c-0.139-3.653,3.062-7.03,6.72-7.074c1.864-0.159,3.677,0.564,5.088,1.746
				c-0.58,0.636-1.167,1.265-1.798,1.853c-1.241-0.753-2.737-1.329-4.188-0.818c-2.342,0.667-3.759,3.431-2.893,5.722
				c0.717,2.392,3.626,3.705,5.906,2.699c1.182-0.423,1.959-1.513,2.301-2.683c-1.354-0.026-2.707-0.011-4.06-0.048
				c-0.004-0.805-0.007-1.606-0.004-2.412c2.257-0.003,4.518-0.01,6.777,0.011c0.139,1.974-0.152,4.084-1.436,5.666
				c-1.756,2.261-5,2.925-7.639,2.037C58.779,132.223,56.741,129.4,56.802,126.444z"/>
			<path fill="#FFFFFF" d="M75.051,123.398c0.67,0,1.341,0,2.013,0c0.004,0.675,0.01,1.351,0.014,2.023
				c0.675,0.006,1.351,0.011,2.022,0.015c0,0.672,0,1.343,0,2.017c-0.672,0.002-1.349,0.006-2.022,0.01
				c-0.006,0.677-0.01,1.35-0.014,2.025c-0.672-0.003-1.347,0-2.017,0c-0.007-0.677-0.007-1.35-0.015-2.021
				c-0.672-0.008-1.349-0.012-2.021-0.016c0-0.672,0-1.343,0-2.015c0.674-0.005,1.348-0.009,2.021-0.016
				C75.038,124.749,75.044,124.073,75.051,123.398z"/>
		</g>
	</g>
</g>
<path fill="#6A453C" d="M68.011,157.712c-10.652,0-19.287,8.635-19.287,19.287c0,10.65,8.635,19.287,19.287,19.287
	c10.65,0,19.286-8.637,19.286-19.287C87.298,166.348,78.664,157.712,68.011,157.712L68.011,157.712z"/>
<g>
	<path fill="#FFFFFF" d="M68.011,172.344c-2.595,0-4.706,2.111-4.706,4.705c0,2.597,2.111,4.707,4.706,4.707
		c2.596,0,4.706-2.11,4.706-4.707C72.718,174.456,70.607,172.344,68.011,172.344z M68.011,179.767c-1.498,0-2.718-1.219-2.718-2.718
		c0-1.497,1.22-2.717,2.718-2.717s2.718,1.22,2.718,2.717C70.729,178.548,69.51,179.767,68.011,179.767z"/>
	<path fill="#FFFFFF" d="M72.539,167.914h-9.054c-2.542,0-4.609,2.068-4.609,4.609v9.054c0,2.542,2.067,4.608,4.609,4.608h9.054
		c2.543,0,4.609-2.066,4.609-4.608v-9.054C77.148,169.981,75.082,167.914,72.539,167.914z M75.16,181.577
		c0,1.444-1.176,2.621-2.621,2.621h-9.054c-1.445,0-2.621-1.177-2.621-2.621v-9.054c0-1.445,1.176-2.62,2.621-2.62h9.054
		c1.445,0,2.621,1.175,2.621,2.62V181.577z"/>
	<circle fill="#FFFFFF" cx="72.869" cy="172.203" r="1.114"/>
</g>
<g>
	<path fill="#017AB9" d="M68.011,209.131c-10.651,0-19.286,8.635-19.286,19.287c0,10.652,8.635,19.287,19.286,19.287
		c10.65,0,19.286-8.635,19.286-19.287C87.297,217.766,78.661,209.131,68.011,209.131L68.011,209.131z"/>
	<g>
		<path fill="#FFFFFF" d="M77.401,229.518v6.379h-3.699v-5.951c0-1.493-0.533-2.515-1.873-2.515c-1.021,0-1.629,0.688-1.896,1.353
			c-0.098,0.236-0.122,0.566-0.122,0.9v6.213h-3.698c0,0,0.05-10.081,0-11.124h3.698v1.576c-0.007,0.013-0.018,0.025-0.024,0.036
			h0.024v-0.036c0.492-0.756,1.368-1.837,3.332-1.837C75.575,224.512,77.401,226.102,77.401,229.518L77.401,229.518z
			 M62.242,219.413c-1.265,0-2.091,0.831-2.091,1.922c0,1.066,0.803,1.921,2.043,1.921h0.024c1.289,0,2.092-0.854,2.092-1.921
			C64.285,220.244,63.508,219.413,62.242,219.413L62.242,219.413z M60.371,235.896h3.695v-11.124h-3.695V235.896z"/>
	</g>
</g>
<g>
	<path fill="#CA2227" d="M68.01,260.55c-10.651,0-19.285,8.635-19.285,19.285c0,10.651,8.634,19.288,19.285,19.288
		c10.65,0,19.286-8.636,19.286-19.288C87.296,269.185,78.661,260.55,68.01,260.55L68.01,260.55z"/>
	<g>
		<path fill="#FFFFFF" d="M69.261,285.311c-1.172-0.091-1.664-0.673-2.584-1.229c-0.506,2.651-1.123,5.192-2.952,6.521
			c-0.565-4.009,0.829-7.019,1.476-10.214c-1.104-1.856,0.133-5.596,2.461-4.675c2.866,1.133-2.48,6.908,1.107,7.629
			c3.746,0.753,5.276-6.501,2.952-8.859c-3.356-3.406-9.771-0.078-8.981,4.799c0.191,1.191,1.424,1.554,0.492,3.199
			c-2.148-0.477-2.79-2.17-2.707-4.43c0.134-3.697,3.322-6.286,6.521-6.646c4.046-0.452,7.843,1.486,8.366,5.292
			C76.004,280.993,73.588,285.645,69.261,285.311L69.261,285.311z"/>
	</g>
</g>
<g>
	<path fill="#5EA8DD" d="M68.011,311.968c-10.652,0-19.287,8.635-19.287,19.287c0,10.65,8.635,19.285,19.287,19.285
		c10.652,0,19.287-8.633,19.287-19.285S78.663,311.968,68.011,311.968L68.011,311.968z"/>
	<g>
		<path fill="#FFFFFF" d="M77.944,327.046c-0.688,0.305-1.427,0.51-2.201,0.603c0.791-0.474,1.398-1.226,1.686-2.119
			c-0.74,0.438-1.561,0.759-2.434,0.931c-0.699-0.744-1.694-1.211-2.799-1.211c-2.115,0-3.832,1.717-3.832,3.832
			c0,0.301,0.034,0.594,0.101,0.873c-3.186-0.158-6.01-1.685-7.899-4.004c-0.33,0.564-0.52,1.225-0.52,1.928
			c0,1.328,0.678,2.502,1.705,3.188c-0.628-0.021-1.219-0.19-1.735-0.479c0,0.017,0,0.033,0,0.049c0,1.855,1.321,3.406,3.073,3.758
			c-0.32,0.088-0.66,0.135-1.009,0.135c-0.248,0-0.487-0.023-0.722-0.068c0.488,1.521,1.903,2.631,3.581,2.662
			c-1.313,1.027-2.965,1.641-4.761,1.641c-0.308,0-0.614-0.02-0.914-0.055c1.695,1.088,3.71,1.723,5.875,1.723
			c7.048,0,10.902-5.84,10.902-10.904c0-0.166-0.004-0.331-0.012-0.495C76.78,328.489,77.43,327.814,77.944,327.046L77.944,327.046z
			"/>
	</g>
</g>
</svg>
